SplineFontDB: 3.0
FontName: Rokkitt-Bold
FamilyName: Rokkitt
Copyright: 
ItalicAngle: 0
UnderlinePosition: 0
UnderlineWidth: 0
Ascent: 1638
Descent: 410
UFOAscent: 1152
UFODescent: -410
LayerCount: 2
Layer: 0 0 "Back"  1
Layer: 1 0 "Fore"  0
FSType: 0
OS2Version: 0
OS2_WeightWidthSlopeOnly: 0
OS2_UseTypoMetrics: 1
CreationTime: 1390528229
ModificationTime: 1390610489
PfmFamily: 17
TTFWeight: 700
TTFWidth: 5
LineGap: 0
VLineGap: 0
OS2TypoAscent: 1638
OS2TypoAOffset: 0
OS2TypoDescent: -410
OS2TypoDOffset: 0
OS2TypoLinegap: 0
OS2WinAscent: 1638
OS2WinAOffset: 0
OS2WinDescent: 410
OS2WinDOffset: 0
HheadAscent: 1638
HheadAOffset: 0
HheadDescent: -410
HheadDOffset: 0
OS2Vendor: 'NeWT'
Lookup: 258 0 0 "'kern' Horizontal Kerning in Latin lookup 0"  {"'kern' Horizontal Kerning in Latin lookup 0 subtable"  } ['kern' ('latn' <'dflt' > ) ]
MarkAttachClasses: 1
DEI: 91125
LangName: 1033 
PickledData: "(dp1
S'com.typemytype.robofont.shouldAddPointsInSplineConversion'
p2
I1
sS'com.petr.ptt'
p3
(dp4
S'originals'
p5
(dp6
S'maxp'
p7
(dp8
S'tableTag'
p9
S'maxp'
p10
sS'numGlyphs'
p11
I423
sS'tableVersion'
p12
I20480
ssssS'com.schriftgestaltung.weight'
p13
S'Light'
p14
sS'com.typemytype.robofont.compileSettings.autohint'
p15
I0
sS'GSDimensionPlugin.Dimensions'
p16
(dp17
S'1F09728C-766D-4240-AE17-E499EF32E23D'
p18
(dp19
sS'98C086B7-81AA-4491-8494-0C6A76849168'
p20
(dp21
sS'EFCDB4D9-E20B-4A8D-9DB5-150AD166B0AE'
p22
(dp23
ssS'com.typemytype.robofont.compileSettings.checkOutlines'
p24
I1
sS'com.typemytype.robofont.compileSettings.MacRomanFirst'
p25
I1
sS'com.typemytype.robofont.compileSettings.generateFormat'
p26
I0
sS'com.typemytype.robofont.compileSettings.decompose'
p27
I1
sS'com.typemytype.robofont.compileSettings.path'
p28
S'/Users/vern/Github/RokkittFont/in-progress/roman/Light/Rokkitt-Light.otf'
p29
sS'com.typemytype.robofont.layerOrder'
p30
(S'b'
tp31
sS'com.typemytype.robofont.segmentType'
p32
S'curve'
p33
sS'com.schriftgestaltung.weightValue'
p34
F700

StartChar: A
Encoding: 65 65 0
Width: 1423
VWidth: 0
Flags: HW
PickledData: "(dp1
S'org.robofab.postScriptHintData'
p2
(dp3
sS'com.typemytype.robofont.layerData'
p4
(dp5
S'b'
(dp6
S'name'
p7
S'A'
sS'lib'
p8
(dp9
sS'unicodes'
p10
(tsS'width'
p11
I1433
sS'contours'
p12
(tsS'components'
p13
(tsS'anchors'
p14
(tsss."
AnchorPoint: "top" 708 1152 basechar 0
LayerCount: 2
Fore
SplineSet
45 0 m 1
 563 0 l 1
 563 152 l 1
 402 152 l 1
 493 424 l 1
 886 424 l 1
 979 152 l 1
 818 152 l 1
 818 0 l 1
 1378 0 l 1
 1378 152 l 1
 1241 152 l 1
 926 1001 l 1
 1053 1001 l 1
 1053 1152 l 1
 367 1152 l 1
 367 1001 l 1
 494 1001 l 1
 188 152 l 1
 45 152 l 1
 45 0 l 1
536 567 m 1
 683 998 l 1
 700 998 l 1
 844 567 l 1
 536 567 l 1
EndSplineSet
EndChar

StartChar: AE
Encoding: 198 198 1
Width: 1894
VWidth: 0
Flags: HW
PickledData: "(dp1
S'org.robofab.postScriptHintData'
p2
(dp3
sS'com.typemytype.robofont.layerData'
p4
(dp5
S'b'
(dp6
S'name'
p7
S'AE'
p8
sS'lib'
p9
(dp10
sS'unicodes'
p11
(tsS'width'
p12
I1877
sS'contours'
p13
(tsS'components'
p14
(tsS'anchors'
p15
(tsss."
AnchorPoint: "top" 1174 1152 basechar 0
LayerCount: 2
Fore
SplineSet
-4 0 m 257
 522 0 l 257
 522 152 l 257
 392 152 l 257
 544 413 l 257
 918 413 l 257
 918 152 l 257
 767 152 l 257
 767 0 l 257
 1816 0 l 257
 1816 360 l 257
 1645 360 l 257
 1645 152 l 257
 1161 152 l 257
 1161 524 l 257
 1463 524 l 257
 1463 406 l 257
 1570 406 l 257
 1570 789 l 257
 1463 789 l 257
 1463 667 l 257
 1160 667 l 257
 1160 1001 l 257
 1643 1001 l 257
 1643 799 l 257
 1814 799 l 257
 1814 1152 l 257
 563 1152 l 257
 563 1001 l 257
 681 1001 l 257
 145 152 l 257
 -4 152 l 257
 -4 0 l 257
610 544 m 257
 894 1001 l 257
 918 1001 l 257
 918 544 l 257
 610 544 l 257
EndSplineSet
EndChar

StartChar: B
Encoding: 66 66 13
Width: 1181
VWidth: 0
Flags: HW
PickledData: "(dp1
S'org.robofab.postScriptHintData'
p2
(dp3
sS'com.typemytype.robofont.layerData'
p4
(dp5
S'b'
(dp6
S'name'
p7
S'B'
sS'lib'
p8
(dp9
sS'unicodes'
p10
(tsS'width'
p11
I1260
sS'contours'
p12
((dp13
S'points'
p14
((dp15
S'segmentType'
p16
S'line'
p17
sS'x'
I353
sS'smooth'
p18
I0
sS'y'
I1095
s(dp19
g16
S'line'
p20
sS'x'
I740
sg18
I1
sS'y'
I1095
s(dp21
S'y'
I1095
sS'x'
I917
sg18
I0
s(dp22
S'y'
I983
sS'x'
I1004
sg18
I0
s(dp23
g16
S'curve'
p24
sS'x'
I1004
sg18
I1
sS'y'
I868
s(dp25
S'y'
I751
sS'x'
I1004
sg18
I0
s(dp26
S'y'
I634
sS'x'
I928
sg18
I0
s(dp27
g16
S'curve'
p28
sS'x'
I784
sg18
I1
sS'y'
I634
s(dp29
g16
S'line'
p30
sS'x'
I353
sg18
I0
sS'y'
I634
stp31
s(dp32
g14
((dp33
g16
S'line'
p34
sS'x'
I353
sg18
I0
sS'y'
I573
s(dp35
g16
S'line'
p36
sS'x'
I793
sg18
I1
sS'y'
I573
s(dp37
S'y'
I573
sS'x'
I979
sg18
I0
s(dp38
S'y'
I439
sS'x'
I1072
sg18
I0
s(dp39
g16
S'curve'
p40
sS'x'
I1072
sg18
I1
sS'y'
I320
s(dp41
S'y'
I187
sS'x'
I1072
sg18
I0
s(dp42
S'y'
I58
sS'x'
I985
sg18
I0
s(dp43
g16
S'curve'
p44
sS'x'
I807
sg18
I1
sS'y'
I58
s(dp45
g16
S'line'
p46
sS'x'
I353
sg18
I0
sS'y'
I58
stp47
s(dp48
g14
((dp49
g16
S'line'
p50
sS'x'
I807
sg18
I1
sS'y'
I0
s(dp51
S'y'
I0
sS'x'
I1031
sg18
I0
s(dp52
S'y'
I158
sS'x'
I1146
sg18
I0
s(dp53
g16
S'curve'
p54
sS'x'
I1146
sg18
I1
sS'y'
I316
s(dp55
S'y'
I439
sS'x'
I1146
sg18
I0
s(dp56
S'y'
I568
sS'x'
I1074
sg18
I0
s(dp57
g16
S'curve'
p58
sS'x'
I919
sg18
I0
sS'y'
I611
s(dp59
S'y'
I669
sS'x'
I1029
sg18
I0
s(dp60
S'y'
I769
sS'x'
I1079
sg18
I0
s(dp61
g16
S'curve'
p62
sS'x'
I1079
sg18
I1
sS'y'
I870
s(dp63
S'y'
I1012
sS'x'
I1079
sg18
I0
s(dp64
S'y'
I1154
sS'x'
I964
sg18
I0
s(dp65
g16
S'curve'
p66
sS'x'
I740
sg18
I1
sS'y'
I1154
s(dp67
g16
S'line'
p68
sS'x'
I122
sg18
I0
sS'y'
I1154
s(dp69
g16
S'line'
p70
sS'x'
I122
sg18
I0
sS'y'
I1095
s(dp71
g16
S'line'
p72
sS'x'
I278
sg18
I0
sS'y'
I1095
s(dp73
g16
S'line'
p74
sS'x'
I278
sg18
I0
sS'y'
I58
s(dp75
g16
S'line'
p76
sS'x'
I135
sg18
I0
sS'y'
I58
s(dp77
g16
S'line'
p78
sS'x'
I135
sg18
I0
sS'y'
I0
stp79
stp80
sS'components'
p81
(tsS'anchors'
p82
(tsss."
AnchorPoint: "top" 512 1152 basechar 0
LayerCount: 2
Fore
SplineSet
457 532 m 1
 603 532 l 2
 787 532 863 455 863 345 c 0
 863 224 798 152 598 152 c 2
 457 152 l 1
 457 532 l 1
559 1001 m 2
 741 1001 811 964 811 851 c 0
 811 741 743 684 578 684 c 2
 457 684 l 1
 457 1001 l 1
 559 1001 l 2
632 1152 m 2
 56 1152 l 1
 56 1001 l 1
 213 1001 l 1
 213 151 l 1
 56 151 l 1
 56 0 l 1
 638 0 l 2
 1012 0 1115 173 1115 335 c 0
 1115 472 1030 578 875 619 c 1
 986 659 1058 743 1058 867 c 0
 1058 1048 913 1152 632 1152 c 2
EndSplineSet
EndChar

StartChar: C
Encoding: 67 67 15
Width: 1363
VWidth: 0
Flags: HW
PickledData: "(dp1
S'org.robofab.postScriptHintData'
p2
(dp3
sS'com.typemytype.robofont.layerData'
p4
(dp5
S'b'
(dp6
S'name'
p7
S'C'
sS'lib'
p8
(dp9
sS'unicodes'
p10
(tsS'width'
p11
I1440
sS'contours'
p12
(tsS'components'
p13
(tsS'anchors'
p14
(tsss."
AnchorPoint: "top" 718 1152 basechar 0
LayerCount: 2
Fore
SplineSet
709 -22 m 0
 972 -20 1189 80 1271 354 c 1
 1088 430 l 1
 1040 230 890 152 724 152 c 0
 481 152 335 334 335 579 c 0
 335 826 491 1000 724 1000 c 0
 872 1000 998 940 1072 778 c 1
 1237 778 l 1
 1237 1155 l 1
 1068 1155 l 1
 1068 1034 l 1
 992 1109 874 1174 710 1174 c 0
 334 1174 89 931 89 575 c 0
 89 243 311 -20 709 -22 c 0
EndSplineSet
EndChar

StartChar: D
Encoding: 68 68 22
Width: 1413
VWidth: 0
Flags: HW
PickledData: "(dp1
S'org.robofab.postScriptHintData'
p2
(dp3
sS'com.typemytype.robofont.layerData'
p4
(dp5
S'b'
(dp6
S'name'
p7
S'D'
sS'lib'
p8
(dp9
sS'unicodes'
p10
(tsS'width'
p11
I1488
sS'contours'
p12
(tsS'components'
p13
(tsS'anchors'
p14
(tsss."
AnchorPoint: "top" 607 1152 basechar 0
LayerCount: 2
Fore
SplineSet
460 1001 m 1
 531.333333333 1001 602.666666667 1001 674 1001 c 0
 953 1001 1070 810 1070 587 c 0
 1070 324 957 152 667 152 c 2
 460 152 l 1
 460 1001 l 1
117 151 m 1
 59 151 l 1
 59 0 l 1
 683 0 l 2
 1110 0 1325 218 1325 592 c 0
 1325 891 1118 1152 684 1152 c 2
 59 1152 l 1
 59 1001 l 1
 111.333333333 1001 163.666666667 1001 216 1001 c 1
 216 152 l 1
 117 152 l 1
 117 151 l 1
EndSplineSet
EndChar

StartChar: Delta
Encoding: 266 916 26
Width: 1175
VWidth: 0
Flags: HW
PickledData: "(dp1
S'org.robofab.postScriptHintData'
p2
(dp3
s."
LayerCount: 2
Fore
SplineSet
80 0 m 257
 1095 0 l 257
 1095 102 l 257
 686 1152 l 257
 489 1152 l 257
 80 102 l 257
 80 0 l 257
277 156 m 257
 561 932 l 257
 832 156 l 257
 277 156 l 257
EndSplineSet
EndChar

StartChar: E
Encoding: 69 69 29
Width: 1195
VWidth: 0
Flags: HW
PickledData: "(dp1
S'org.robofab.postScriptHintData'
p2
(dp3
sS'com.typemytype.robofont.layerData'
p4
(dp5
S'b'
(dp6
S'name'
p7
S'E'
sS'lib'
p8
(dp9
sS'unicodes'
p10
(tsS'width'
p11
I1314
sS'contours'
p12
(tsS'components'
p13
(tsS'anchors'
p14
(tsss."
AnchorPoint: "top" 627 1152 basechar 0
LayerCount: 2
Fore
SplineSet
934 798 m 1
 1115 798 l 1
 1115 1152 l 1
 56 1152 l 1
 56 1001 l 1
 213 1001 l 1
 213 151 l 1
 56 151 l 1
 56 0 l 1
 1118 0 l 1
 1118 367 l 1
 936 367 l 1
 936 152 l 1
 457 152 l 1
 457 523 l 1
 760 523 l 1
 760 411 l 1
 862 411 l 1
 862 797 l 1
 759 797 l 1
 759 681 l 1
 457 681 l 1
 457 1000.19561551 l 1
 934 1001 l 1
 934 798 l 1
EndSplineSet
EndChar

StartChar: Eng
Encoding: 273 330 38
Width: 1484
VWidth: 0
Flags: HW
PickledData: "(dp1
S'org.robofab.postScriptHintData'
p2
(dp3
s."
LayerCount: 2
Fore
SplineSet
800 -384 m 257
 1045 -384 1264 -316 1264 -26 c 258
 1264 204 l 257
 1087 204 l 257
 1088 -32 l 258
 1089 -191 971 -236 800 -236 c 257
 800 -384 l 257
EndSplineSet
Refer: 78 78 N 1 0 0 1 0 0 2
EndChar

StartChar: Euro
Encoding: 276 8364 41
Width: 1365
VWidth: 0
Flags: HW
PickledData: "(dp1
S'org.robofab.postScriptHintData'
p2
(dp3
s."
LayerCount: 2
Fore
SplineSet
-23 395 m 257
 618 395 l 257
 658 516 l 257
 252 516 l 257
 252 634 l 257
 618 634 l 257
 658 755 l 257
 17 755 l 257
 -23 634 l 257
 180 634 l 257
 180 516 l 257
 17 516 l 257
 -23 395 l 257
EndSplineSet
Refer: 15 67 N 1 0 0 1 0 0 2
EndChar

StartChar: F
Encoding: 70 70 42
Width: 1110
VWidth: 0
Flags: HW
PickledData: "(dp1
S'org.robofab.postScriptHintData'
p2
(dp3
sS'com.typemytype.robofont.layerData'
p4
(dp5
S'b'
(dp6
S'name'
p7
S'F'
sS'lib'
p8
(dp9
sS'unicodes'
p10
(tsS'width'
p11
I1193
sS'contours'
p12
((dp13
S'points'
p14
((dp15
S'segmentType'
p16
S'line'
p17
sS'x'
I990
sS'smooth'
p18
I0
sS'y'
I1086
s(dp19
g16
S'line'
p20
sS'x'
I990
sg18
I0
sS'y'
I802
s(dp21
g16
S'line'
p22
sS'x'
I1062
sg18
I0
sS'y'
I802
s(dp23
g16
S'line'
p24
sS'x'
I1062
sg18
I0
sS'y'
I1152
s(dp25
g16
S'line'
p26
sS'x'
I122
sg18
I0
sS'y'
I1152
s(dp27
g16
S'line'
p28
sS'x'
I122
sg18
I0
sS'y'
I1086
s(dp29
g16
S'line'
p30
sS'x'
I286
sg18
I0
sS'y'
I1086
s(dp31
g16
S'line'
p32
sS'x'
I286
sg18
I0
sS'y'
I1039
s(dp33
g16
S'line'
p34
sS'x'
I363
sg18
I0
sS'y'
I1039
s(dp35
g16
S'line'
p36
sS'x'
I363
sg18
I0
sS'y'
I1086
stp37
s(dp38
g14
((dp39
g16
S'line'
p40
sS'x'
I286
sg18
I0
sS'y'
I1039
s(dp41
g16
S'line'
p42
sS'x'
I286
sg18
I0
sS'y'
I677
s(dp43
g16
S'line'
p44
sS'x'
I363
sg18
I0
sS'y'
I677
s(dp45
g16
S'line'
p46
sS'x'
I363
sg18
I0
sS'y'
I1039
stp47
s(dp48
g14
((dp49
g16
S'line'
p50
sS'x'
I286
sg18
I0
sS'y'
I677
s(dp51
g16
S'line'
p52
sS'x'
I286
sg18
I0
sS'y'
I65
s(dp53
g16
S'line'
p54
sS'x'
I122
sg18
I0
sS'y'
I65
s(dp55
g16
S'line'
p56
sS'x'
I122
sg18
I0
sS'y'
I0
s(dp57
g16
S'line'
p58
sS'x'
I552
sg18
I0
sS'y'
I0
s(dp59
g16
S'line'
p60
sS'x'
I552
sg18
I0
sS'y'
I65
s(dp61
g16
S'line'
p62
sS'x'
I363
sg18
I0
sS'y'
I65
s(dp63
g16
S'line'
p64
sS'x'
I363
sg18
I0
sS'y'
I539
s(dp65
g16
S'line'
p66
sS'x'
I824
sg18
I0
sS'y'
I539
s(dp67
g16
S'line'
p68
sS'x'
I824
sg18
I0
sS'y'
I378
s(dp69
g16
S'line'
p70
sS'x'
I886
sg18
I0
sS'y'
I378
s(dp71
g16
S'line'
p72
sS'x'
I886
sg18
I0
sS'y'
I764
s(dp73
g16
S'line'
p74
sS'x'
I824
sg18
I0
sS'y'
I764
s(dp75
g16
S'line'
p76
sS'x'
I824
sg18
I0
sS'y'
I601
s(dp77
g16
S'line'
p78
sS'x'
I363
sg18
I0
sS'y'
I601
s(dp79
g16
S'line'
p80
sS'x'
I363
sg18
I0
sS'y'
I677
stp81
stp82
sS'components'
p83
(tsS'anchors'
p84
(tsss."
AnchorPoint: "top" 607 1152 basechar 0
LayerCount: 2
Fore
SplineSet
906 800 m 1
 1084 800 l 1
 1084 1152 l 1
 56 1152 l 1
 56 1001 l 1
 213 1001 l 1
 213 151 l 1
 56 151 l 1
 56 0 l 1
 614 0 l 1
 614 151 l 1
 457 151 l 1
 457 523 l 1
 727 523 l 1
 727 411 l 1
 835 411 l 1
 835 786 l 1
 726 786 l 1
 726 675 l 1
 457 675 l 1
 457 1001 l 1
 606.666666667 1001 756.333333333 1001 906 1001 c 1
 906 800 l 1
EndSplineSet
EndChar

StartChar: G
Encoding: 71 71 44
Width: 1425
VWidth: 0
Flags: HW
PickledData: "(dp1
S'org.robofab.postScriptHintData'
p2
(dp3
sS'com.typemytype.robofont.layerData'
p4
(dp5
S'b'
(dp6
S'name'
p7
S'G'
sS'lib'
p8
(dp9
sS'unicodes'
p10
(tsS'width'
p11
I1488
sS'contours'
p12
(tsS'components'
p13
(tsS'anchors'
p14
(tsss."
AnchorPoint: "top" 739 1152 basechar 0
LayerCount: 2
Fore
SplineSet
748 -19 m 0
 1126 -19 1344 166 1348 599 c 1
 877 599 l 1
 877 440 l 1
 1111 440 l 1
 1104 263 986 159 757 155 c 1
 513 155 351 319 351 590 c 0
 351 844 505 1000 753 1000 c 0
 921 1000 1051 921 1124 763 c 1
 1293 763 l 1
 1293 1157 l 1
 1108 1157 l 1
 1108 1031 l 1
 1030 1114 902 1174 742 1174 c 0
 363 1174 91 947 91 590 c 0
 91 215 347 -19 748 -19 c 0
EndSplineSet
EndChar

StartChar: Gcommaaccent
Encoding: 281 290 49
Width: 1425
VWidth: 0
Flags: HW
PickledData: "(dp1
S'org.robofab.postScriptHintData'
p2
(dp3
sS'com.typemytype.robofont.layerData'
p4
(dp5
S'b'
(dp6
S'name'
p7
S'Gcommaaccent'
p8
sS'lib'
p9
(dp10
sS'unicodes'
p11
(tsS'width'
p12
I1488
sS'contours'
p13
(tsS'components'
p14
(tsS'anchors'
p15
(tsss."
LayerCount: 2
Fore
SplineSet
600 -550 m 257
 773 -550 863 -473 862 -331 c 257
 862 -99 l 257
 600 -99 l 257
 600 -321 l 257
 735 -321 l 257
 735 -401 690 -435 600 -450 c 257
 600 -550 l 257
EndSplineSet
Refer: 44 71 N 1 0 0 1 0 0 2
EndChar

StartChar: H
Encoding: 72 72 51
Width: 1433
VWidth: 0
Flags: HW
PickledData: "(dp1
S'org.robofab.postScriptHintData'
p2
(dp3
sS'com.typemytype.robofont.layerData'
p4
(dp5
S'b'
(dp6
S'name'
p7
S'H'
sS'lib'
p8
(dp9
sS'unicodes'
p10
(tsS'width'
p11
I1513
sS'contours'
p12
(tsS'components'
p13
(tsS'anchors'
p14
(tsss."
AnchorPoint: "top" 725 1152 basechar 0
LayerCount: 2
Fore
SplineSet
56 0 m 1
 614 0 l 1
 614 151 l 1
 457 151 l 1
 457 515 l 1
 976 515 l 1
 976 151 l 1
 819 151 l 1
 819 0 l 1
 1377 0 l 1
 1377 151 l 1
 1220 151 l 1
 1220 1001 l 1
 1377 1001 l 1
 1377 1152 l 1
 819 1152 l 1
 819 1001 l 1
 976 1001 l 1
 976 675 l 1
 457 675 l 1
 457 1001 l 1
 614 1001 l 1
 614 1152 l 1
 56 1152 l 1
 56 1001 l 1
 213 1001 l 1
 213 151 l 1
 56 151 l 1
 56 0 l 1
EndSplineSet
EndChar

StartChar: Hbar
Encoding: 282 294 52
Width: 1401
VWidth: 0
Flags: HW
PickledData: "(dp1
S'org.robofab.postScriptHintData'
p2
(dp3
sS'com.typemytype.robofont.layerData'
p4
(dp5
S'b'
(dp6
S'name'
p7
S'Hbar'
p8
sS'lib'
p9
(dp10
sS'unicodes'
p11
(tsS'width'
p12
I1535
sS'contours'
p13
(tsS'components'
p14
(tsS'anchors'
p15
(tsss."
LayerCount: 2
Fore
SplineSet
110 781 m 257
 1346 781 l 257
 1346 895 l 257
 110 895 l 257
 110 781 l 257
EndSplineSet
Refer: 51 72 N 1 0 0 1 0 0 2
EndChar

StartChar: I
Encoding: 73 73 54
Width: 737
VWidth: 0
Flags: HW
PickledData: "(dp1
S'org.robofab.postScriptHintData'
p2
(dp3
sS'com.typemytype.robofont.layerData'
p4
(dp5
S'b'
(dp6
S'name'
p7
S'I'
sS'lib'
p8
(dp9
sS'unicodes'
p10
(tsS'width'
p11
I786
sS'contours'
p12
(tsS'components'
p13
(tsS'anchors'
p14
(tsss."
AnchorPoint: "top" 368 1152 basechar 0
LayerCount: 2
Fore
SplineSet
89 0 m 1
 647 0 l 1
 647 151 l 1
 490 151 l 1
 490 1001 l 1
 647 1001 l 1
 647 1152 l 1
 89 1152 l 1
 89 1001 l 1
 246 1001 l 1
 246 151 l 1
 89 151 l 1
 89 0 l 1
EndSplineSet
EndChar

StartChar: J
Encoding: 74 74 65
Width: 739
VWidth: 0
Flags: HW
PickledData: "(dp1
S'org.robofab.postScriptHintData'
p2
(dp3
sS'com.typemytype.robofont.layerData'
p4
(dp5
S'b'
(dp6
S'name'
p7
S'J'
sS'lib'
p8
(dp9
sS'unicodes'
p10
(tsS'width'
p11
I792
sS'contours'
p12
(tsS'components'
p13
(tsS'anchors'
p14
(tsss."
AnchorPoint: "top" 413 1152 basechar 0
LayerCount: 2
Fore
SplineSet
46 -298 m 1
 221 -298 l 2
 466 -298 538 -150 538 75 c 2
 538 1001 l 1
 704 1001 l 1
 704 1152 l 1
 119 1152 l 1
 119 1001 l 1
 294 1001 l 1
 294 61 l 2
 294 -30 274 -108 166 -108 c 2
 46 -108 l 1
 46 -298 l 1
EndSplineSet
EndChar

StartChar: K
Encoding: 75 75 67
Width: 1343
VWidth: 0
Flags: HW
PickledData: "(dp1
S'org.robofab.postScriptHintData'
p2
(dp3
sS'com.typemytype.robofont.guides'
p4
((dp5
S'y'
I593
sS'x'
I467
sS'magnetic'
p6
I5
sS'angle'
p7
I0
sS'isGlobal'
p8
I0
stp9
sS'com.typemytype.robofont.layerData'
p10
(dp11
S'b'
(dp12
S'name'
p13
S'K'
sS'lib'
p14
(dp15
sS'unicodes'
p16
(tsS'width'
p17
I1384
sS'contours'
p18
(tsS'components'
p19
(tsS'anchors'
p20
(tsss."
AnchorPoint: "top" 675 1152 basechar 0
LayerCount: 2
Fore
SplineSet
731 0 m 1
 1300 0 l 1
 1300 152 l 1
 1154 152 l 1
 706 591 l 1
 1150 1001 l 1
 1297 1001 l 1
 1297 1152 l 1
 754 1152 l 1
 754 1001 l 1
 882 1001 l 1
 457 609.188720174 l 1
 457 1001 l 1
 614 1001 l 1
 614 1152 l 1
 56 1152 l 1
 56 1001 l 1
 213 1001 l 1
 213 151 l 1
 56 151 l 1
 56 0 l 1
 614 0 l 1
 614 151 l 1
 457 151 l 1
 457 540.502325581 l 1
 851 152 l 1
 731 152 l 1
 731 0 l 1
EndSplineSet
EndChar

StartChar: Kcommaaccent
Encoding: 291 310 68
Width: 1343
VWidth: 0
Flags: HW
PickledData: "(dp1
S'org.robofab.postScriptHintData'
p2
(dp3
sS'com.typemytype.robofont.layerData'
p4
(dp5
S'b'
(dp6
S'name'
p7
S'Kcommaaccent'
p8
sS'lib'
p9
(dp10
sS'unicodes'
p11
(tsS'width'
p12
I1384
sS'contours'
p13
(tsS'components'
p14
(tsS'anchors'
p15
(tsss."
LayerCount: 2
Fore
SplineSet
540 -550 m 257
 713 -550 803 -473 802 -331 c 257
 802 -99 l 257
 540 -99 l 257
 540 -321 l 257
 675 -321 l 257
 675 -401 630 -435 540 -450 c 257
 540 -550 l 257
EndSplineSet
Refer: 67 75 N 1 0 0 1 0 0 2
EndChar

StartChar: L
Encoding: 76 76 69
Width: 1123
VWidth: 0
Flags: HW
PickledData: "(dp1
S'org.robofab.postScriptHintData'
p2
(dp3
sS'com.typemytype.robofont.layerData'
p4
(dp5
S'b'
(dp6
S'name'
p7
S'L'
sS'lib'
p8
(dp9
sS'unicodes'
p10
(tsS'width'
p11
I1189
sS'contours'
p12
(tsS'components'
p13
(tsS'anchors'
p14
(tsss."
AnchorPoint: "caron.alt" 734 822 basechar 0
AnchorPoint: "top" 704 1152 basechar 0
LayerCount: 2
Fore
SplineSet
457 152 m 1
 457 1001 l 1
 614 1001 l 1
 614 1152 l 1
 56 1152 l 1
 56 1001 l 1
 213 1001 l 1
 213 151 l 1
 56 151 l 1
 56 0 l 1
 1068 0 l 1
 1068 517 l 1
 868 517 l 1
 868 152 l 1
 457 152 l 1
EndSplineSet
EndChar

StartChar: Lcommaaccent
Encoding: 294 315 72
Width: 1123
VWidth: 0
Flags: HW
PickledData: "(dp1
S'org.robofab.postScriptHintData'
p2
(dp3
sS'com.typemytype.robofont.layerData'
p4
(dp5
S'b'
(dp6
S'name'
p7
S'Lcommaaccent'
p8
sS'lib'
p9
(dp10
sS'unicodes'
p11
(tsS'width'
p12
I1189
sS'contours'
p13
(tsS'components'
p14
(tsS'anchors'
p15
(tsss."
LayerCount: 2
Fore
SplineSet
425 -550 m 257
 598 -550 688 -473 687 -331 c 257
 687 -99 l 257
 425 -99 l 257
 425 -321 l 257
 560 -321 l 257
 560 -401 515 -435 425 -450 c 257
 425 -550 l 257
EndSplineSet
Refer: 69 76 N 1 0 0 1 0 0 2
EndChar

StartChar: Lslash
Encoding: 297 321 75
Width: 1206
VWidth: 0
Flags: HW
PickledData: "(dp1
S'org.robofab.postScriptHintData'
p2
(dp3
sS'com.typemytype.robofont.layerData'
p4
(dp5
S'b'
(dp6
S'name'
p7
S'Lslash'
p8
sS'lib'
p9
(dp10
sS'unicodes'
p11
(tsS'width'
p12
I1189
sS'contours'
p13
(tsS'components'
p14
(tsS'anchors'
p15
(tsss."
LayerCount: 2
Fore
SplineSet
114 391 m 257
 705 688 l 257
 705 828 l 257
 114 524 l 257
 114 391 l 257
EndSplineSet
Refer: 69 76 N 1 0 0 1 0 0 2
EndChar

StartChar: M
Encoding: 77 77 76
Width: 1765
VWidth: 0
Flags: HW
PickledData: "(dp1
S'org.robofab.postScriptHintData'
p2
(dp3
sS'com.typemytype.robofont.layerData'
p4
(dp5
S'b'
(dp6
S'name'
p7
S'M'
sS'lib'
p8
(dp9
sS'unicodes'
p10
(tsS'width'
p11
I1856
sS'contours'
p12
(tsS'components'
p13
(tsS'anchors'
p14
(tsss."
AnchorPoint: "top" 880 1152 basechar 0
LayerCount: 2
Fore
SplineSet
56 0 m 1
 536 0 l 1
 536 152 l 1
 388 152 l 1
 388 985 l 1
 806 38 l 1
 896 38 l 1
 1316 986 l 1
 1316 152 l 1
 1167 152 l 1
 1167 0 l 1
 1712 0 l 1
 1712 152 l 1
 1551 152 l 1
 1551 1001 l 1
 1711 1001 l 1
 1711 1152 l 1
 1200 1152 l 1
 885 427 l 1
 561 1152 l 1
 56 1152 l 1
 56 1001 l 1
 216 1001 l 1
 216 152 l 1
 56 152 l 1
 56 0 l 1
EndSplineSet
EndChar

StartChar: N
Encoding: 78 78 78
Width: 1512
VWidth: 0
Flags: HW
PickledData: "(dp1
S'org.robofab.postScriptHintData'
p2
(dp3
sS'com.typemytype.robofont.layerData'
p4
(dp5
S'b'
(dp6
S'name'
p7
S'N'
sS'lib'
p8
(dp9
sS'unicodes'
p10
(tsS'width'
p11
I1571
sS'contours'
p12
(tsS'components'
p13
(tsS'anchors'
p14
(tsss."
AnchorPoint: "top" 745 1152 basechar 0
LayerCount: 2
Fore
SplineSet
56 0 m 1
 577 0 l 1
 577 152 l 1
 407 152 l 1
 407 919 l 1
 1071 0 l 1
 1292 0 l 1
 1292 1001 l 1
 1473 1001 l 1
 1473 1152 l 1
 946 1152 l 1
 946 1001 l 1
 1115 1001 l 1
 1115 324 l 1
 513 1152 l 1
 56 1152 l 1
 56 1001 l 1
 231 1001 l 1
 231 152 l 1
 56 152 l 1
 56 0 l 1
EndSplineSet
EndChar

StartChar: Ncommaaccent
Encoding: 300 325 81
Width: 1512
VWidth: 0
Flags: HW
PickledData: "(dp1
S'org.robofab.postScriptHintData'
p2
(dp3
sS'com.typemytype.robofont.layerData'
p4
(dp5
S'b'
(dp6
S'name'
p7
S'Ncommaaccent'
p8
sS'lib'
p9
(dp10
sS'unicodes'
p11
(tsS'width'
p12
I1571
sS'contours'
p13
(tsS'components'
p14
(tsS'anchors'
p15
(tsss."
LayerCount: 2
Fore
SplineSet
631 -550 m 257
 804 -550 894 -473 893 -331 c 257
 893 -99 l 257
 631 -99 l 257
 631 -321 l 257
 766 -321 l 257
 766 -401 721 -435 631 -450 c 257
 631 -550 l 257
EndSplineSet
Refer: 78 78 N 1 0 0 1 0 0 2
EndChar

StartChar: O
Encoding: 79 79 84
Width: 1466
VWidth: 0
Flags: HW
PickledData: "(dp1
S'org.robofab.postScriptHintData'
p2
(dp3
sS'com.typemytype.robofont.layerData'
p4
(dp5
S'b'
(dp6
S'name'
p7
S'O'
sS'lib'
p8
(dp9
sS'unicodes'
p10
(tsS'width'
p11
I1538
sS'contours'
p12
(tsS'components'
p13
(tsS'anchors'
p14
(tsss."
AnchorPoint: "top" 729 1152 basechar 0
LayerCount: 2
Fore
SplineSet
731 152 m 0
 511 152 348 332 348 573 c 0
 348 820.318088939 510.104849278 1001.00412327 730.178305483 1001.00412327 c 0
 730.785097023 1001.00412327 731.392329256 1001.00274964 732 1001 c 0
 732.610425005 1001.00274966 733.220403931 1001.00412329 733.829934618 1001.00412329 c 0
 954.895157487 1001.00412329 1117 820.320833441 1117 574 c 0
 1117 332 953 152 731 152 c 0
732 -22 m 0
 732.735640741 -22.0019775289 733.470898241 -22.0029656708 734.205771139 -22.0029656708 c 0
 1105.08261431 -22.0029656708 1378 229.680269932 1378 573 c 0
 1378 919 1104 1174 731 1174 c 0
 361 1174 89 920 89 574 c 0
 89 229.682244792 360.921341051 -22.002965663 729.806090883 -22.002965663 c 0
 730.537013687 -22.002965663 731.26831718 -22.0019775211 732 -22 c 0
EndSplineSet
EndChar

StartChar: OE
Encoding: 302 338 85
Width: 2102
VWidth: 0
Flags: HW
PickledData: "(dp1
S'org.robofab.postScriptHintData'
p2
(dp3
sS'com.typemytype.robofont.layerData'
p4
(dp5
S'b'
(dp6
S'name'
p7
S'OE'
p8
sS'lib'
p9
(dp10
sS'unicodes'
p11
(tsS'width'
p12
I2046
sS'contours'
p13
(tsS'components'
p14
(tsS'anchors'
p15
(tsss."
LayerCount: 2
Fore
SplineSet
852 0 m 258
 2000 0 l 257
 2000 347 l 257
 1816 347 l 257
 1816 145 l 257
 1352 145 l 257
 1352 526 l 257
 1643 526 l 257
 1643 420 l 257
 1746 420 l 257
 1746 785 l 257
 1644 785 l 257
 1644 682 l 257
 1353 682 l 257
 1353 1007 l 257
 1815 1007 l 257
 1815 810 l 257
 1996 810 l 257
 1996 1152 l 257
 850 1152 l 258
 433 1152 179 943 179 587 c 256
 179 218 434 0 852 0 c 258
854 145 m 258
 853.251052928 144.997039735 852.50294712 144.995560445 851.755684159 144.995560445 c 0
 600.071852574 144.995560445 444 312.805192109 444 584 c 256
 444 846 606 1006 855 1007 c 257
 1108 1007 l 257
 1108 146 l 257
 854 145 l 258
EndSplineSet
EndChar

StartChar: Omega
Encoding: 306 937 93
Width: 1434
VWidth: 0
Flags: HW
PickledData: "(dp1
S'org.robofab.postScriptHintData'
p2
(dp3
s."
LayerCount: 2
Fore
SplineSet
98 0 m 257
 644 0 l 257
 644 143 l 257
 430 230 338 430 338 613 c 256
 338 821 468 999 717 999 c 256
 964 999 1095 820 1095 612 c 256
 1095 430 1004 230 790 143 c 257
 790 0 l 257
 1336 0 l 257
 1336 152 l 257
 1056 152 l 257
 1250 270 1336 447 1336 623 c 256
 1336 906 1105 1174 717 1174 c 256
 331 1174 98 905 98 621 c 256
 98 446 186 270 379 152 c 257
 98 152 l 257
 98 0 l 257
EndSplineSet
EndChar

StartChar: Oslash
Encoding: 216 216 94
Width: 1471
VWidth: 0
Flags: HW
PickledData: "(dp1
S'org.robofab.postScriptHintData'
p2
(dp3
sS'com.typemytype.robofont.layerData'
p4
(dp5
S'b'
(dp6
S'name'
p7
S'Oslash'
p8
sS'lib'
p9
(dp10
sS'unicodes'
p11
(tsS'width'
p12
I1439
sS'contours'
p13
(tsS'components'
p14
(tsS'anchors'
p15
(tsss."
LayerCount: 2
Fore
SplineSet
314 -82 m 257
 1285 1153 l 257
 1179 1228 l 257
 209 -7 l 257
 314 -82 l 257
EndSplineSet
Refer: 84 79 N 1 0 0 1 0 0 2
EndChar

StartChar: P
Encoding: 80 80 97
Width: 1152
VWidth: 0
Flags: HW
PickledData: "(dp1
S'org.robofab.postScriptHintData'
p2
(dp3
sS'com.typemytype.robofont.layerData'
p4
(dp5
S'b'
(dp6
S'name'
p7
S'P'
sS'lib'
p8
(dp9
sS'unicodes'
p10
(tsS'width'
p11
I1250
sS'contours'
p12
((dp13
S'points'
p14
((dp15
S'segmentType'
p16
S'line'
p17
sS'x'
I353
sS'smooth'
p18
I0
sS'y'
I1095
s(dp19
g16
S'line'
p20
sS'x'
I759
sg18
I1
sS'y'
I1095
s(dp21
S'y'
I1095
sS'x'
I936
sg18
I0
s(dp22
S'y'
I960
sS'x'
I1024
sg18
I0
s(dp23
g16
S'curve'
p24
sS'x'
I1024
sg18
I1
sS'y'
I823
s(dp25
S'y'
I683
sS'x'
I1024
sg18
I0
s(dp26
S'y'
I544
sS'x'
I934
sg18
I0
s(dp27
g16
S'curve'
p28
sS'x'
I759
sg18
I1
sS'y'
I544
s(dp29
g16
S'line'
p30
sS'x'
I353
sg18
I0
sS'y'
I544
stp31
s(dp32
g14
((dp33
g16
S'line'
p34
sS'x'
I135
sg18
I0
sS'y'
I0
s(dp35
g16
S'line'
p36
sS'x'
I512
sg18
I0
sS'y'
I0
s(dp37
g16
S'line'
p38
sS'x'
I512
sg18
I0
sS'y'
I58
s(dp39
g16
S'line'
p40
sS'x'
I353
sg18
I0
sS'y'
I58
s(dp41
g16
S'line'
p42
sS'x'
I353
sg18
I0
sS'y'
I483
s(dp43
g16
S'line'
p44
sS'x'
I759
sg18
I1
sS'y'
I483
s(dp45
S'y'
I483
sS'x'
I984
sg18
I0
s(dp46
S'y'
I656
sS'x'
I1098
sg18
I0
s(dp47
g16
S'curve'
p48
sS'x'
I1098
sg18
I1
sS'y'
I826
s(dp49
S'y'
I989
sS'x'
I1098
sg18
I0
s(dp50
S'y'
I1154
sS'x'
I984
sg18
I0
s(dp51
g16
S'curve'
p52
sS'x'
I759
sg18
I1
sS'y'
I1154
s(dp53
g16
S'line'
p54
sS'x'
I122
sg18
I0
sS'y'
I1154
s(dp55
g16
S'line'
p56
sS'x'
I122
sg18
I0
sS'y'
I1095
s(dp57
g16
S'line'
p58
sS'x'
I278
sg18
I0
sS'y'
I1095
s(dp59
g16
S'line'
p60
sS'x'
I278
sg18
I0
sS'y'
I58
s(dp61
g16
S'line'
p62
sS'x'
I135
sg18
I0
sS'y'
I58
stp63
stp64
sS'components'
p65
(tsS'anchors'
p66
(tsss."
AnchorPoint: "top" 567 1152 basechar 0
LayerCount: 2
Fore
SplineSet
529 465 m 1
 603 465 l 2
 955 465 1115 582 1115 813 c 0
 1115 1042 949 1152 632 1152 c 2
 56 1152 l 1
 56 1001 l 1
 213 1001 l 1
 213 151 l 1
 56 151 l 1
 56 0 l 1
 614 0 l 1
 614 151 l 1
 457 151 l 1
 457 1001 l 1
 523 1001 589 1001 655 1001 c 0
 789 1001 864 938 864 813 c 0
 864 682 778 614 599 614 c 2
 529 614 l 1
 529 465 l 1
EndSplineSet
EndChar

StartChar: Q
Encoding: 81 81 99
Width: 1466
VWidth: 0
Flags: HW
PickledData: "(dp1
S'org.robofab.postScriptHintData'
p2
(dp3
sS'com.typemytype.robofont.layerData'
p4
(dp5
S'b'
(dp6
S'name'
p7
S'Q'
sS'lib'
p8
(dp9
sS'unicodes'
p10
(tsS'width'
p11
I1538
sS'contours'
p12
(tsS'components'
p13
(tsS'anchors'
p14
(tsss."
LayerCount: 2
Fore
SplineSet
1253 -301 m 257
 1252 -141 l 257
 1242.96119652 -141.553396131 1233.7182282 -141.830791629 1224.31270848 -141.830791629 c 0
 1080.7542433 -141.830791629 899.326877115 -77.2071503606 828 57 c 257
 596 61 l 257
 743.681245156 -209.905723599 1039.12622428 -302.079265993 1220.16213712 -302.079265993 c 0
 1231.58558692 -302.079265993 1242.55349775 -301.712261517 1253 -301 c 257
EndSplineSet
Refer: 84 79 N 1 0 0 1 0 0 2
EndChar

StartChar: R
Encoding: 82 82 100
Width: 1296
VWidth: 0
Flags: HW
PickledData: "(dp1
S'org.robofab.postScriptHintData'
p2
(dp3
sS'com.typemytype.robofont.layerData'
p4
(dp5
S'b'
(dp6
S'name'
p7
S'R'
sS'lib'
p8
(dp9
sS'unicodes'
p10
(tsS'width'
p11
I1373
sS'contours'
p12
((dp13
S'points'
p14
((dp15
S'segmentType'
p16
S'line'
p17
sS'x'
I135
sS'smooth'
p18
I0
sS'y'
I0
s(dp19
g16
S'line'
p20
sS'x'
I512
sg18
I0
sS'y'
I0
s(dp21
g16
S'line'
p22
sS'x'
I512
sg18
I0
sS'y'
I58
s(dp23
g16
S'line'
p24
sS'x'
I353
sg18
I0
sS'y'
I58
s(dp25
g16
S'line'
p26
sS'x'
I353
sg18
I0
sS'y'
I539
s(dp27
g16
S'line'
p28
sS'x'
I641
sg18
I0
sS'y'
I539
s(dp29
g16
S'line'
p30
sS'x'
I961
sg18
I0
sS'y'
I0
s(dp31
g16
S'line'
p32
sS'x'
I1178
sg18
I0
sS'y'
I0
s(dp33
g16
S'line'
p34
sS'x'
I1178
sg18
I0
sS'y'
I58
s(dp35
g16
S'line'
p36
sS'x'
I1015
sg18
I0
sS'y'
I58
s(dp37
g16
S'line'
p38
sS'x'
I721
sg18
I0
sS'y'
I539
s(dp39
S'y'
I539
sS'x'
I945
sg18
I0
s(dp40
S'y'
I696
sS'x'
I1059
sg18
I0
s(dp41
g16
S'curve'
p42
sS'x'
I1059
sg18
I1
sS'y'
I848
s(dp43
S'y'
I1000
sS'x'
I1059
sg18
I0
s(dp44
S'y'
I1154
sS'x'
I945
sg18
I0
s(dp45
g16
S'curve'
p46
sS'x'
I721
sg18
I1
sS'y'
I1154
s(dp47
g16
S'line'
p48
sS'x'
I122
sg18
I0
sS'y'
I1154
s(dp49
g16
S'line'
p50
sS'x'
I122
sg18
I0
sS'y'
I1095
s(dp51
g16
S'line'
p52
sS'x'
I278
sg18
I0
sS'y'
I1095
s(dp53
g16
S'line'
p54
sS'x'
I278
sg18
I0
sS'y'
I58
s(dp55
g16
S'line'
p56
sS'x'
I135
sg18
I0
sS'y'
I58
stp57
s(dp58
g14
((dp59
g16
S'line'
p60
sS'x'
I353
sg18
I0
sS'y'
I1095
s(dp61
g16
S'line'
p62
sS'x'
I721
sg18
I1
sS'y'
I1095
s(dp63
S'y'
I1095
sS'x'
I898
sg18
I0
s(dp64
S'y'
I971
sS'x'
I985
sg18
I0
s(dp65
g16
S'curve'
p66
sS'x'
I985
sg18
I1
sS'y'
I845
s(dp67
S'y'
I723
sS'x'
I985
sg18
I0
s(dp68
S'y'
I600
sS'x'
I896
sg18
I0
s(dp69
g16
S'curve'
p70
sS'x'
I721
sg18
I1
sS'y'
I600
s(dp71
g16
S'line'
p72
sS'x'
I353
sg18
I0
sS'y'
I600
stp73
stp74
sS'components'
p75
(tsS'anchors'
p76
(tsss."
AnchorPoint: "top" 577 1152 basechar 0
LayerCount: 2
Fore
SplineSet
917 0 m 1
 1260 0 l 1
 1260 152 l 1
 1090 152 l 1
 859 544 l 1
 1028 586 1123 676 1123 850 c 0
 1123 1083 941 1152 691 1152 c 2
 56 1152 l 1
 56 1001 l 1
 213 1001 l 1
 213 151 l 1
 56 151 l 1
 56 0 l 1
 614 0 l 1
 614 151 l 1
 457 151 l 1
 457 1001 l 1
 533 1001 609 1001 685 1001 c 0
 814 1001 879 939 879 845 c 0
 879 754 832 671 670 671 c 2
 521 671 l 1
 521 518 l 1
 628 518 l 1
 917 0 l 1
EndSplineSet
EndChar

StartChar: Rcommaaccent
Encoding: 310 342 103
Width: 1296
VWidth: 0
Flags: HW
PickledData: "(dp1
S'org.robofab.postScriptHintData'
p2
(dp3
sS'com.typemytype.robofont.layerData'
p4
(dp5
S'b'
(dp6
S'name'
p7
S'Rcommaaccent'
p8
sS'lib'
p9
(dp10
sS'unicodes'
p11
(tsS'width'
p12
I1373
sS'contours'
p13
(tsS'components'
p14
(tsS'anchors'
p15
(tsss."
LayerCount: 2
Fore
SplineSet
533 -550 m 257
 706 -550 796 -473 795 -331 c 257
 795 -99 l 257
 533 -99 l 257
 533 -321 l 257
 668 -321 l 257
 668 -401 623 -435 533 -450 c 257
 533 -550 l 257
EndSplineSet
Refer: 100 82 N 1 0 0 1 0 0 2
EndChar

StartChar: S
Encoding: 83 83 104
Width: 1060
VWidth: 0
Flags: HW
PickledData: "(dp1
S'org.robofab.postScriptHintData'
p2
(dp3
sS'com.typemytype.robofont.layerData'
p4
(dp5
S'b'
(dp6
S'name'
p7
S'S'
sS'lib'
p8
(dp9
sS'unicodes'
p10
(tsS'width'
p11
I1170
sS'contours'
p12
((dp13
S'points'
p14
((dp15
S'segmentType'
p16
S'curve'
p17
sS'x'
I636
sS'smooth'
p18
I1
sS'y'
S'-23'
p19
s(dp20
S'y'
S'-23'
p21
sS'x'
I930
sg18
I0
s(dp22
S'y'
I171
sS'x'
I1026
sg18
I0
s(dp23
g16
S'curve'
p24
sS'x'
I1026
sg18
I1
sS'y'
I295
s(dp25
S'y'
I543
sS'x'
I1026
sg18
I0
s(dp26
S'y'
I599
sS'x'
I829
sg18
I0
s(dp27
g16
S'curve'
p28
sS'x'
I606
sg18
I1
sS'y'
I622
s(dp29
S'y'
I643
sS'x'
I405
sg18
I0
s(dp30
S'y'
I667
sS'x'
I269
sg18
I0
s(dp31
g16
S'curve'
p32
sS'x'
I269
sg18
I1
sS'y'
I851
s(dp33
S'y'
I998
sS'x'
I269
sg18
I0
s(dp34
S'y'
I1104
sS'x'
I360
sg18
I0
s(dp35
g16
S'curve'
p36
sS'x'
I573
sg18
I1
sS'y'
I1104
s(dp37
S'y'
I1104
sS'x'
I719
sg18
I0
s(dp38
S'y'
I1024
sS'x'
I885
sg18
I0
s(dp39
g16
S'curve'
p40
sS'x'
I885
sg18
I1
sS'y'
I941
s(dp41
g16
S'line'
p42
sS'x'
I885
sg18
I0
sS'y'
I839
s(dp43
g16
S'line'
p44
sS'x'
I959
sg18
I0
sS'y'
I839
s(dp45
g16
S'line'
p46
sS'x'
I959
sg18
I0
sS'y'
I1152
s(dp47
g16
S'line'
p48
sS'x'
I885
sg18
I0
sS'y'
I1152
s(dp49
g16
S'line'
p50
sS'x'
I885
sg18
I0
sS'y'
I1049
s(dp51
S'y'
I1131
sS'x'
I828
sg18
I0
s(dp52
S'y'
I1172
sS'x'
I673
sg18
I0
s(dp53
g16
S'curve'
p54
sS'x'
I561
sg18
I1
sS'y'
I1172
s(dp55
S'y'
I1172
sS'x'
I360
sg18
I0
s(dp56
S'y'
I1066
sS'x'
I184
sg18
I0
s(dp57
g16
S'curve'
p58
sS'x'
I184
sg18
I1
sS'y'
I863
s(dp59
S'y'
I635
sS'x'
I184
sg18
I0
s(dp60
S'y'
I579
sS'x'
I332
sg18
I0
s(dp61
g16
S'curve'
p62
sS'x'
I584
sg18
I1
sS'y'
I553
s(dp63
S'y'
I531
sS'x'
I805
sg18
I0
s(dp64
S'y'
I488
sS'x'
I942
sg18
I0
s(dp65
g16
S'curve'
p66
sS'x'
I942
sg18
I1
sS'y'
I300
s(dp67
S'y'
I169
sS'x'
I942
sg18
I0
s(dp68
S'y'
I47
sS'x'
I831
sg18
I0
s(dp69
g16
S'curve'
p70
sS'x'
I644
sg18
I1
sS'y'
I47
s(dp71
S'y'
I47
sS'x'
I448
sg18
I0
s(dp72
S'y'
I118
sS'x'
I261
sg18
I0
s(dp73
g16
S'curve'
p74
sS'x'
I261
sg18
I1
sS'y'
I247
s(dp75
g16
S'line'
p76
sS'x'
I261
sg18
I0
sS'y'
I387
s(dp77
g16
S'line'
p78
sS'x'
I187
sg18
I0
sS'y'
I387
s(dp79
g16
S'line'
p80
sS'x'
I187
sg18
I0
sS'y'
S'-1'
p81
s(dp82
g16
S'line'
p83
sS'x'
I261
sg18
I0
sS'y'
S'-1'
p84
s(dp85
g16
S'line'
p86
sS'x'
I261
sg18
I0
sS'y'
I122
s(dp87
S'y'
I22
sS'x'
I335
sg18
I0
s(dp88
S'y'
S'-23'
p89
sS'x'
I496
sg18
I0
stp90
stp91
sS'components'
p92
(tsS'anchors'
p93
(tsss."
AnchorPoint: "top" 553 1152 basechar 0
LayerCount: 2
Fore
SplineSet
599 -19 m 0
 823.698565152 -19 995.017264226 117.41521331 995.017264226 324.396458174 c 0
 995.017264226 571.433926377 841.754976973 639.839493084 587 694 c 0
 414 729 344 771 344 870 c 0
 344 957 406 1013 529 1013 c 0
 626 1013 700 979 752 916 c 1
 752 817 l 1
 931 817 l 1
 931 1156 l 1
 752 1156 l 1
 752 1081 l 1
 692 1139 607 1174 503 1174 c 0
 267 1174 119 1056 119 858 c 0
 119 623 280 549 531 500 c 0
 696 470 762 423 762 307 c 0
 762 211 693 144 575 144 c 0
 461 144 351 211 311 268 c 1
 311 398 l 1
 127 398 l 1
 127 -1 l 1
 311 -1 l 1
 311 91 l 1
 386 24 487 -19 599 -19 c 0
EndSplineSet
EndChar

StartChar: Scommaaccent
Encoding: 316 536 110
Width: 1060
VWidth: 0
Flags: HW
PickledData: "(dp1
S'org.robofab.postScriptHintData'
p2
(dp3
s."
LayerCount: 2
Fore
SplineSet
472 -550 m 257
 645 -550 735 -473 734 -331 c 257
 734 -99 l 257
 472 -99 l 257
 472 -321 l 257
 607 -321 l 257
 607 -401 562 -435 472 -450 c 257
 472 -550 l 257
EndSplineSet
Refer: 104 83 N 1 0 0 1 0 0 2
EndChar

StartChar: Sigma
Encoding: 317 931 112
Width: 998
VWidth: 0
Flags: HW
PickledData: "(dp1
S'org.robofab.postScriptHintData'
p2
(dp3
s."
LayerCount: 2
Fore
SplineSet
72 0 m 257
 937 0 l 257
 937 168 l 257
 385 168 l 257
 776 567 l 257
 390 989 l 257
 903 989 l 257
 903 1152 l 257
 89 1152 l 257
 89 1045 l 257
 481 575 l 257
 72 117 l 257
 72 0 l 257
EndSplineSet
EndChar

StartChar: T
Encoding: 84 84 113
Width: 1178
VWidth: 0
Flags: HW
PickledData: "(dp1
S'org.robofab.postScriptHintData'
p2
(dp3
sS'com.typemytype.robofont.layerData'
p4
(dp5
S'b'
(dp6
S'name'
p7
S'T'
sS'lib'
p8
(dp9
sS'unicodes'
p10
(tsS'width'
p11
I1252
sS'contours'
p12
(tsS'components'
p13
(tsS'anchors'
p14
(tsss."
AnchorPoint: "top" 591 1152 basechar 0
LayerCount: 2
Fore
SplineSet
45 726 m 1
 219 726 l 1
 219 1001 l 1
 304 1001 389 1001 474 1001 c 1
 474 151 l 1
 317 151 l 1
 317 0 l 1
 875 0 l 1
 875 151 l 1
 718 151 l 1
 718 1001 l 1
 798.666666667 1001 879.333333333 1001 960 1001 c 1
 960 726 l 1
 1133 726 l 1
 1133 1152 l 1
 45 1152 l 1
 45 726 l 1
EndSplineSet
EndChar

StartChar: Thorn
Encoding: 321 222 118
Width: 1124
VWidth: 0
Flags: HW
PickledData: "(dp1
S'org.robofab.postScriptHintData'
p2
(dp3
sS'com.typemytype.robofont.layerData'
p4
(dp5
S'b'
(dp6
S'name'
p7
S'Thorn'
p8
sS'lib'
p9
(dp10
sS'unicodes'
p11
(tsS'width'
p12
I1124
sS'contours'
p13
(tsS'components'
p14
(tsS'anchors'
p15
(tsss."
LayerCount: 2
Fore
SplineSet
56 0 m 257
 614 0 l 257
 614 151 l 257
 457 151 l 257
 457 1001 l 257
 614 1001 l 257
 614 1152 l 257
 56 1152 l 257
 56 1001 l 257
 213 1001 l 257
 213 151 l 257
 56 151 l 257
 56 0 l 257
533 323 m 257
 659 323 l 258
 966 323 1109 421 1109 613 c 256
 1109 801 957 902 679 902 c 258
 344 902 l 257
 344 764 l 257
 677 764 l 258
 795 764 871 710 871 613 c 256
 871 505 800 452 669 452 c 258
 533 452 l 257
 533 323 l 257
EndSplineSet
EndChar

StartChar: U
Encoding: 85 85 119
Width: 1359
VWidth: 0
Flags: HW
PickledData: "(dp1
S'org.robofab.postScriptHintData'
p2
(dp3
sS'com.typemytype.robofont.layerData'
p4
(dp5
S'b'
(dp6
S'name'
p7
S'U'
sS'lib'
p8
(dp9
sS'unicodes'
p10
(tsS'width'
p11
I1428
sS'contours'
p12
(tsS'components'
p13
(tsS'anchors'
p14
(tsss."
AnchorPoint: "top" 711 1152 basechar 0
LayerCount: 2
Fore
SplineSet
692 -19 m 0
 979 -19 1170 117 1170 430 c 2
 1170 1001 l 1
 1328 1001 l 1
 1328 1152 l 1
 822 1152 l 1
 822 1001 l 1
 978 1001 l 1
 978 423 l 2
 978 248 886 152 705 152 c 0
 531 152 442 249 442 418 c 2
 442 1001 l 1
 604 1001 l 1
 604 1152 l 1
 43 1152 l 1
 43 1001 l 1
 198 1001 l 1
 198 447 l 2
 198 175 320 -19 692 -19 c 0
EndSplineSet
EndChar

StartChar: V
Encoding: 86 86 130
Width: 1394
VWidth: 0
Flags: HW
PickledData: "(dp1
S'org.robofab.postScriptHintData'
p2
(dp3
sS'com.typemytype.robofont.layerData'
p4
(dp5
S'b'
(dp6
S'name'
p7
S'V'
sS'lib'
p8
(dp9
sS'unicodes'
p10
(tsS'width'
p11
I1407
sS'contours'
p12
(tsS'components'
p13
(tsS'anchors'
p14
(tsss."
LayerCount: 2
Fore
SplineSet
603 0 m 1
 802 0 l 1
 1207 1001 l 1
 1361 1001 l 1
 1361 1152 l 1
 862 1152 l 1
 862 1001 l 1
 1009 1001 l 1
 725 261 l 1
 438 1001 l 1
 586 1001 l 1
 586 1152 l 1
 34 1152 l 1
 34 1001 l 1
 184 1001 l 1
 603 0 l 1
EndSplineSet
EndChar

StartChar: W
Encoding: 87 87 131
Width: 1884
VWidth: 0
Flags: HW
PickledData: "(dp1
S'org.robofab.postScriptHintData'
p2
(dp3
sS'com.typemytype.robofont.layerData'
p4
(dp5
S'b'
(dp6
S'name'
p7
S'W'
sS'lib'
p8
(dp9
sS'unicodes'
p10
(tsS'width'
p11
I1935
sS'contours'
p12
(tsS'components'
p13
(tsS'anchors'
p14
(tsss."
AnchorPoint: "top" 973 1152 basechar 0
LayerCount: 2
Fore
SplineSet
495 0 m 1
 677 0 l 1
 945 780 l 1
 1218 0 l 1
 1404 0 l 1
 1700 1001 l 1
 1844 1001 l 1
 1844 1152 l 1
 1372 1152 l 1
 1372 1001 l 1
 1518 1001 l 1
 1327 312 l 1
 1042 1147 l 1
 896 1147 l 1
 613 312 l 1
 419 1001 l 1
 560 1001 l 1
 560 1152 l 1
 41 1152 l 1
 41 1001 l 1
 186 1001 l 1
 495 0 l 1
EndSplineSet
EndChar

StartChar: X
Encoding: 88 88 136
Width: 1345
VWidth: 0
Flags: HW
PickledData: "(dp1
S'org.robofab.postScriptHintData'
p2
(dp3
sS'com.typemytype.robofont.layerData'
p4
(dp5
S'b'
(dp6
S'name'
p7
S'X'
sS'lib'
p8
(dp9
sS'unicodes'
p10
(tsS'width'
p11
I1434
sS'contours'
p12
(tsS'components'
p13
(tsS'anchors'
p14
(tsss."
LayerCount: 2
Fore
SplineSet
38 0 m 1
 559 0 l 1
 559 145 l 1
 417 145 l 1
 643 461 l 1
 868 145 l 1
 732 145 l 1
 732 0 l 1
 1308 0 l 1
 1308 145 l 1
 1142 145 l 1
 796 598 l 1
 1111 1008 l 1
 1274 1008 l 1
 1274 1152 l 1
 768 1152 l 1
 768 1008 l 1
 902 1008 l 1
 692 719 l 1
 480 1008 l 1
 608 1008 l 1
 608 1152 l 1
 51 1152 l 1
 51 1008 l 1
 208 1008 l 1
 536 583 l 1
 206 145 l 1
 38 145 l 1
 38 0 l 1
EndSplineSet
EndChar

StartChar: Y
Encoding: 89 89 137
Width: 1333
VWidth: 0
Flags: HW
PickledData: "(dp1
S'org.robofab.postScriptHintData'
p2
(dp3
sS'com.typemytype.robofont.layerData'
p4
(dp5
S'b'
(dp6
S'name'
p7
S'Y'
sS'lib'
p8
(dp9
sS'unicodes'
p10
(tsS'width'
p11
I1337
sS'contours'
p12
(tsS'components'
p13
(tsS'anchors'
p14
(tsss."
AnchorPoint: "top" 677 1152 basechar 0
LayerCount: 2
Fore
SplineSet
376 0 m 1
 964 0 l 1
 964 152 l 1
 790 152 l 1
 790 501 l 1
 1140 1001 l 1
 1301 1001 l 1
 1301 1152 l 1
 791 1152 l 1
 791 1001 l 1
 930 1001 l 1
 693 645 l 1
 442 1001 l 1
 582 1001 l 1
 582 1152 l 1
 26 1152 l 1
 26 1001 l 1
 180 1001 l 1
 546 500 l 1
 546 152 l 1
 376 152 l 1
 376 0 l 1
EndSplineSet
EndChar

StartChar: Z
Encoding: 90 90 142
Width: 1175
VWidth: 0
Flags: HW
PickledData: "(dp1
S'org.robofab.postScriptHintData'
p2
(dp3
sS'com.typemytype.robofont.layerData'
p4
(dp5
S'b'
(dp6
S'name'
p7
S'Z'
sS'lib'
p8
(dp9
sS'unicodes'
p10
(tsS'width'
p11
I1256
sS'contours'
p12
(tsS'components'
p13
(tsS'anchors'
p14
(tsss."
AnchorPoint: "top" 621 1152 basechar 0
LayerCount: 2
Fore
SplineSet
110 0 m 1
 1088 0 l 1
 1088 446 l 1
 917 446 l 1
 917 152 l 1
 404 152 l 1
 1076 1006 l 1
 1076 1152 l 1
 135 1152 l 1
 135 731 l 1
 308 731 l 1
 308 1001 l 1
 769 1001 l 1
 110 163 l 1
 110 0 l 1
EndSplineSet
EndChar

StartChar: a
Encoding: 97 97 146
Width: 942
VWidth: 0
Flags: HW
PickledData: "(dp1
S'org.robofab.postScriptHintData'
p2
(dp3
sS'com.typemytype.robofont.layerData'
p4
(dp5
S'b'
(dp6
S'name'
p7
S'a'
sS'lib'
p8
(dp9
sS'unicodes'
p10
(tsS'width'
p11
I1003
sS'contours'
p12
((dp13
S'points'
p14
((dp15
S'segmentType'
p16
S'curve'
p17
sS'x'
I310
sS'smooth'
p18
I1
sS'y'
S'-14'
p19
s(dp20
S'y'
S'-14'
p21
sS'x'
I507
sg18
I0
s(dp22
S'y'
I21
sS'x'
I593
sg18
I0
s(dp23
g16
S'curve'
p24
sS'x'
I687
sg18
I0
sS'y'
I91
s(dp25
g16
S'line'
p26
sS'x'
I703
sg18
I0
sS'y'
S'-1'
p27
s(dp28
g16
S'line'
p29
sS'x'
I890
sg18
I0
sS'y'
S'-1'
p30
s(dp31
g16
S'line'
p32
sS'x'
I890
sg18
I0
sS'y'
I57
s(dp33
g16
S'line'
p34
sS'x'
I764
sg18
I0
sS'y'
I57
s(dp35
g16
S'line'
p36
sS'x'
I764
sg18
I1
sS'y'
I569
s(dp37
S'y'
I672
sS'x'
I764
sg18
I0
s(dp38
S'y'
I819
sS'x'
I710
sg18
I0
s(dp39
g16
S'curve'
p40
sS'x'
I461
sg18
I1
sS'y'
I819
s(dp41
S'y'
I819
sS'x'
I332
sg18
I0
s(dp42
S'y'
I792
sS'x'
I226
sg18
I0
s(dp43
g16
S'curve'
p44
sS'x'
I155
sg18
I0
sS'y'
I724
s(dp45
g16
S'line'
p46
sS'x'
I190
sg18
I0
sS'y'
I668
s(dp47
S'y'
I726
sS'x'
I247
sg18
I0
s(dp48
S'y'
I755
sS'x'
I339
sg18
I0
s(dp49
g16
S'curve'
p50
sS'x'
I459
sg18
I1
sS'y'
I755
s(dp51
S'y'
I755
sS'x'
I600
sg18
I0
s(dp52
S'y'
I706
sS'x'
I687
sg18
I0
s(dp53
g16
S'curve'
p54
sS'x'
I687
sg18
I1
sS'y'
I551
s(dp55
g16
S'line'
p56
sS'x'
I687
sg18
I0
sS'y'
I428
s(dp57
S'y'
I443
sS'x'
I609
sg18
I0
s(dp58
S'y'
I455
sS'x'
I539
sg18
I0
s(dp59
g16
S'curve'
p60
sS'x'
I465
sg18
I1
sS'y'
I455
s(dp61
S'y'
I455
sS'x'
I295
sg18
I0
s(dp62
S'y'
I433
sS'x'
I117
sg18
I0
s(dp63
g16
S'curve'
p64
sS'x'
I117
sg18
I1
sS'y'
I222
s(dp65
S'y'
I96
sS'x'
I117
sg18
I0
s(dp66
S'y'
S'-14'
p67
sS'x'
I206
sg18
I0
stp68
s(dp69
g14
((dp70
g16
S'curve'
p71
sS'x'
I401
sg18
I1
sS'y'
I50
s(dp72
S'y'
I50
sS'x'
I246
sg18
I0
s(dp73
S'y'
I142
sS'x'
I195
sg18
I0
s(dp74
g16
S'curve'
p75
sS'x'
I195
sg18
I1
sS'y'
I220
s(dp76
S'y'
I390
sS'x'
I195
sg18
I0
s(dp77
S'y'
I393
sS'x'
I346
sg18
I0
s(dp78
g16
S'curve'
p79
sS'x'
I462
sg18
I1
sS'y'
I393
s(dp80
S'y'
I393
sS'x'
I559
sg18
I0
s(dp81
S'y'
I368
sS'x'
I687
sg18
I0
s(dp82
g16
S'curve'
p83
sS'x'
I687
sg18
I0
sS'y'
I368
s(dp84
g16
S'line'
p85
sS'x'
I687
sg18
I0
sS'y'
I151
s(dp86
S'y'
I76
sS'x'
I606
sg18
I0
s(dp87
S'y'
I50
sS'x'
I511
sg18
I0
stp88
stp89
sS'components'
p90
(tsS'anchors'
p91
(tsss."
AnchorPoint: "top" 436 804 basechar 0
LayerCount: 2
Fore
SplineSet
339 -22 m 0
 451 -22 527 8 597 65 c 1
 609 0 l 1
 923 0 l 1
 923 152 l 1
 799 152 l 1
 799 529 l 2
 799 731 636 826 433 826 c 0
 319 826 176 793 81 726 c 1
 144 590 l 1
 239 644 354 667 420 667 c 0
 521 667 582 618 582 516 c 2
 582 457 l 1
 521 469 463 477 404 477 c 0
 219 477 56 407 56 221 c 0
 56 83 170 -22 339 -22 c 0
380 116 m 0
 308 116 262 162 262 229 c 0
 262 331 343 357 423 357 c 0
 498 357 548 346 582 336 c 1
 582 192 l 1
 523 143 449 116 380 116 c 0
EndSplineSet
EndChar

StartChar: acute
Encoding: 332 180 150
Width: 601
VWidth: 0
Flags: HW
PickledData: "(dp1
S'org.robofab.postScriptHintData'
p2
(dp3
sS'com.typemytype.robofont.layerData'
p4
(dp5
S'b'
(dp6
S'name'
p7
S'acute'
p8
sS'lib'
p9
(dp10
sS'unicodes'
p11
(tsS'width'
p12
I579
sS'contours'
p13
(tsS'components'
p14
(tsS'anchors'
p15
(tsss."
AnchorPoint: "top" 244 804 mark 0
LayerCount: 2
Fore
SplineSet
180 962 m 257
 319 962 l 257
 534 1290 l 257
 294 1290 l 257
 180 962 l 257
EndSplineSet
EndChar

StartChar: ae
Encoding: 230 230 152
Width: 1465
VWidth: 0
Flags: HW
PickledData: "(dp1
S'org.robofab.postScriptHintData'
p2
(dp3
sS'com.typemytype.robofont.layerData'
p4
(dp5
S'b'
(dp6
S'name'
p7
S'ae'
p8
sS'lib'
p9
(dp10
sS'unicodes'
p11
(tsS'width'
p12
I1542
sS'contours'
p13
(tsS'components'
p14
(tsS'anchors'
p15
(tsss."
AnchorPoint: "top" 735 804 basechar 0
LayerCount: 2
Fore
SplineSet
369 -22 m 256
 476 -22 573 2 712 91 c 257
 792 21 904 -19 1037 -19 c 256
 1199 -19 1336 46 1400 123 c 257
 1326 247 l 257
 1230 170 1140 142 1051 142 c 256
 911 142 816 230 808 362 c 257
 1410 362 l 257
 1410 637 1266 826 1019 826 c 256
 896 826 775 781 716 704 c 257
 668 781 548 826 429 826 c 256
 307 826 164 791 69 723 c 257
 132 590 l 257
 227 644 342 667 415 667 c 256
 516 667 581 618 581 516 c 258
 581 454 l 257
 520 467 458 474 399 474 c 256
 217 474 55 407 55 221 c 256
 55 19 265 -22 369 -22 c 256
402 111 m 256
 339 111 258 130 258 225 c 256
 258 327 332 354 416 354 c 256
 468 354 538 345 583 340 c 257
 590 289 605 239 628 197 c 257
 575 155 505 111 402 111 c 256
810 485 m 257
 828 598 904 676 1020 676 c 256
 1132 676 1191 598 1200 485 c 257
 810 485 l 257
EndSplineSet
EndChar

StartChar: ampersand
Encoding: 38 38 157
Width: 1401
VWidth: 0
Flags: HW
PickledData: "(dp1
S'org.robofab.postScriptHintData'
p2
(dp3
sS'com.typemytype.robofont.layerData'
p4
(dp5
S'b'
(dp6
S'name'
p7
S'ampersand'
p8
sS'lib'
p9
(dp10
sS'unicodes'
p11
(tsS'width'
p12
I1363
sS'contours'
p13
(tsS'components'
p14
(tsS'anchors'
p15
(tsss."
LayerCount: 2
Fore
SplineSet
531 -19 m 256
 672 -19 792 28 902 122 c 257
 995 0 l 257
 1317 0 l 257
 1317 157 l 257
 1125 157 l 257
 1036 265 l 257
 1095 334 1141 415 1176 518 c 257
 1316 520 l 257
 1316 674 l 257
 1040 674 l 257
 1017 578 983 477 923 402 c 257
 697 659 l 257
 874 739 946 839 946 969 c 256
 946 1109 818 1224 637 1224 c 256
 443 1224 307 1107 307 956 c 256
 307 866 347 790 415 704 c 257
 218 626 98 516 98 352 c 256
 98 144 276 -19 531 -19 c 256
566 153 m 256
 420 153 320 258 320 363 c 256
 320 460 387 532 515 584 c 257
 795 253 l 257
 725 183 650 153 566 153 c 256
601 783 m 257
 539 862 506 914 506 965 c 256
 506 1037 559 1080 636 1080 c 256
 709 1080 763 1034 763 960 c 256
 763 887 712 836 601 783 c 257
EndSplineSet
EndChar

StartChar: apostrophemod
Encoding: 337 700 159
Width: 600
VWidth: 0
Flags: HW
PickledData: "(dp1
S'org.robofab.postScriptHintData'
p2
(dp3
s."
LayerCount: 2
Fore
SplineSet
71 894 m 257
 244 894 334 971 333 1113 c 257
 333 1345 l 257
 71 1345 l 257
 71 1123 l 257
 206 1123 l 257
 206 1043 161 1009 71 994 c 257
 71 894 l 257
EndSplineSet
EndChar

StartChar: approxequal
Encoding: 338 8776 160
Width: 1246
VWidth: 0
Flags: HW
PickledData: "(dp1
S'org.robofab.postScriptHintData'
p2
(dp3
sS'com.typemytype.robofont.layerData'
p4
(dp5
S'b'
(dp6
S'name'
p7
S'approxequal'
p8
sS'lib'
p9
(dp10
sS'unicodes'
p11
(tsS'width'
p12
I1245
sS'contours'
p13
(tsS'components'
p14
(tsS'anchors'
p15
(tsss."
LayerCount: 2
Fore
SplineSet
166 399 m 257
 227 466 318 518 393 518 c 256
 453 518 497 506 594 464 c 256
 721 410 765 399 841 399 c 256
 940 399 1021 434 1089 510 c 257
 1089 676 l 257
 1027 612 939 557 862 557 c 256
 803 557 758 570 661 613 c 256
 534 666 490 676 413 676 c 256
 315 676 235 641 166 566 c 257
 166 399 l 257
166 748 m 257
 227 814 318 866 393 866 c 256
 453 866 497 854 594 812 c 256
 721 758 765 747 841 747 c 256
 940 747 1021 782 1089 859 c 257
 1089 1025 l 257
 1027 960 939 906 862 906 c 256
 803 906 758 919 661 961 c 256
 534 1015 490 1025 413 1025 c 256
 315 1025 235 990 166 914 c 257
 166 748 l 257
EndSplineSet
EndChar

StartChar: asciicircum
Encoding: 94 94 162
Width: 981
VWidth: 0
Flags: HW
PickledData: "(dp1
S'org.robofab.postScriptHintData'
p2
(dp3
sS'com.typemytype.robofont.layerData'
p4
(dp5
S'b'
(dp6
S'name'
p7
S'asciicircum'
p8
sS'lib'
p9
(dp10
sS'unicodes'
p11
(tsS'width'
p12
I933
sS'contours'
p13
(tsS'components'
p14
(tsS'anchors'
p15
(tsss."
LayerCount: 2
Fore
SplineSet
78 542 m 257
 273 542 l 257
 490 1050 l 257
 707 542 l 257
 901 542 l 257
 582 1220 l 257
 398 1220 l 257
 78 542 l 257
EndSplineSet
EndChar

StartChar: asciitilde
Encoding: 126 126 163
Width: 1220
VWidth: 0
Flags: HW
PickledData: "(dp1
S'org.robofab.postScriptHintData'
p2
(dp3
sS'com.typemytype.robofont.layerData'
p4
(dp5
S'b'
(dp6
S'name'
p7
S'asciitilde'
p8
sS'lib'
p9
(dp10
sS'unicodes'
p11
(tsS'width'
p12
I1220
sS'contours'
p13
(tsS'components'
p14
(tsS'anchors'
p15
(tsss."
LayerCount: 2
Fore
SplineSet
840 461 m 256
 936 461 1017 508 1085 588 c 257
 1058 731 l 257
 993 666 925 630 847 630 c 256
 710 630 559 757 386 757 c 256
 284 757 202 714 132 627 c 257
 155 489 l 257
 227 562 289 597 370 597 c 256
 523 597 674 461 840 461 c 256
EndSplineSet
EndChar

StartChar: asterisk
Encoding: 42 42 164
Width: 929
VWidth: 0
Flags: HW
PickledData: "(dp1
S'org.robofab.postScriptHintData'
p2
(dp3
sS'com.typemytype.robofont.layerData'
p4
(dp5
S'b'
(dp6
S'name'
p7
S'asterisk'
p8
sS'lib'
p9
(dp10
sS'unicodes'
p11
(tsS'width'
p12
I931
sS'contours'
p13
(tsS'components'
p14
(tsS'anchors'
p15
(tsss."
LayerCount: 2
Fore
SplineSet
303 408 m 257
 465 739 l 257
 628 408 l 257
 777 515 l 257
 521 771 l 257
 873 825 l 257
 824 997 l 257
 492 828 l 257
 556 1191 l 257
 375 1191 l 257
 439 828 l 257
 109 997 l 257
 58 825 l 257
 410 771 l 257
 153 515 l 257
 303 408 l 257
EndSplineSet
EndChar

StartChar: at
Encoding: 64 64 165
Width: 1480
VWidth: 0
Flags: HW
PickledData: "(dp1
S'org.robofab.postScriptHintData'
p2
(dp3
sS'com.typemytype.robofont.layerData'
p4
(dp5
S'b'
(dp6
S'name'
p7
S'at'
p8
sS'lib'
p9
(dp10
sS'unicodes'
p11
(tsS'width'
p12
I1481
sS'contours'
p13
(tsS'components'
p14
(tsS'anchors'
p15
(tsss."
LayerCount: 2
Fore
SplineSet
798 -66 m 256
 983 -66 1126 -15 1242 75 c 257
 1168 163 l 257
 1070 86 945 49 798 49 c 256
 442 49 245 252 245 556 c 256
 245 883 472 1116 783 1116 c 256
 1081 1116 1240 915 1240 700 c 256
 1240 462 1074 335 1008 335 c 256
 997.116024898 335 991.604426849 347.08784837 991.604426849 371.541987102 c 0
 991.604426849 394.270693657 996.365690574 427.682176639 1006 472 c 258
 1108 947 l 257
 965 947 l 257
 945 841 l 257
 903 926 831 963 751 963 c 256
 506 963 383 736 383 532 c 256
 383 326 515 213 653 213 c 256
 730 213 806 245 866 326 c 257
 877 242 917 213 967 213 c 256
 1216 213 1372 452 1372 701 c 256
 1372 962 1198 1233 788 1233 c 256
 348 1233 105 892 105 558 c 256
 105 243 324 -66 798 -66 c 256
683 327 m 256
 575 327 524 423 524 530 c 256
 524 676 600 845 738 845 c 256
 839 845 904 776 904 668 c 256
 904 510 805 327 683 327 c 256
EndSplineSet
EndChar

StartChar: b
Encoding: 98 98 167
Width: 1102
VWidth: 0
Flags: HW
PickledData: "(dp1
S'org.robofab.postScriptHintData'
p2
(dp3
sS'com.typemytype.robofont.layerData'
p4
(dp5
S'b'
(dp6
S'name'
p7
S'b'
sS'lib'
p8
(dp9
sS'unicodes'
p10
(tsS'width'
p11
I1128
sS'contours'
p12
(tsS'components'
p13
(tsS'anchors'
p14
(tsss."
AnchorPoint: "top" 685 804 basechar 0
LayerCount: 2
Fore
SplineSet
416 604.123425933 m 1
 477.543076222 645.252501096 539.662256091 665 598 665 c 0
 732 665 827 565 827 402 c 0
 827 221 717 133 587 133 c 0
 532.314282567 133 472.994482969 149.219287581 416 184.537613969 c 1
 416 604.123425933 l 1
645 -21 m 0
 851 -21 1056 134 1056 416 c 0
 1056 680 880 825 672 825 c 0
 585.702865606 825 496.761756512 797.678928101 416 745.084440817 c 1
 416 1174 l 1
 47 1174 l 1
 47 1023 l 1
 197 1023 l 1
 197 151 l 1
 45 151 l 1
 45 0 l 1
 416 0 l 1
 416 51.994566179 l 1
 484.745753663 2.76415313398 564.483300551 -21 645 -21 c 0
EndSplineSet
EndChar

StartChar: backslash
Encoding: 92 92 168
Width: 764
VWidth: 0
Flags: HW
PickledData: "(dp1
S'org.robofab.postScriptHintData'
p2
(dp3
sS'com.typemytype.robofont.layerData'
p4
(dp5
S'b'
(dp6
S'name'
p7
S'backslash'
p8
sS'lib'
p9
(dp10
sS'unicodes'
p11
(tsS'width'
p12
I773
sS'contours'
p13
(tsS'components'
p14
(tsS'anchors'
p15
(tsss."
LayerCount: 2
Fore
SplineSet
592 -19 m 257
 782 -19 l 257
 160 1248 l 257
 -30 1248 l 257
 592 -19 l 257
EndSplineSet
EndChar

StartChar: bar
Encoding: 124 124 169
Width: 529
VWidth: 0
Flags: HW
PickledData: "(dp1
S'org.robofab.postScriptHintData'
p2
(dp3
sS'com.typemytype.robofont.layerData'
p4
(dp5
S'b'
(dp6
S'name'
p7
S'bar'
p8
sS'lib'
p9
(dp10
sS'unicodes'
p11
(tsS'width'
p12
I506
sS'contours'
p13
(tsS'components'
p14
(tsS'anchors'
p15
(tsss."
LayerCount: 2
Fore
SplineSet
177 -242 m 257
 355 -242 l 257
 355 1219 l 257
 177 1219 l 257
 177 -242 l 257
EndSplineSet
EndChar

StartChar: braceleft
Encoding: 123 123 171
Width: 715
VWidth: 0
Flags: HW
PickledData: "(dp1
S'org.robofab.postScriptHintData'
p2
(dp3
sS'com.typemytype.robofont.layerData'
p4
(dp5
S'b'
(dp6
S'name'
p7
S'braceleft'
p8
sS'lib'
p9
(dp10
sS'unicodes'
p11
(tsS'width'
p12
I656
sS'contours'
p13
(tsS'components'
p14
(tsS'anchors'
p15
(tsss."
LayerCount: 2
Fore
SplineSet
558 -202 m 258
 644 -202 l 257
 644 -62 l 257
 461 -62 457 -34 457 162 c 256
 457 409 430 498 291 554 c 257
 444 615 459 706 459 1006 c 256
 459 1143 490 1169 644 1169 c 257
 644 1309 l 257
 557 1309 l 258
 269.945762712 1309 267.99963229 1142.60584889 267.99963229 909.644141767 c 0
 267.99963229 906.441918989 268 903.227118644 268 900 c 256
 268 727 237 627 97 627 c 257
 97 481 l 257
 242 481 268 379 268 199 c 256
 268 -39 268 -202 558 -202 c 258
EndSplineSet
EndChar

StartChar: braceright
Encoding: 125 125 172
Width: 716
VWidth: 0
Flags: HW
PickledData: "(dp1
S'org.robofab.postScriptHintData'
p2
(dp3
sS'com.typemytype.robofont.layerData'
p4
(dp5
S'b'
(dp6
S'name'
p7
S'braceright'
p8
sS'lib'
p9
(dp10
sS'unicodes'
p11
(tsS'width'
p12
I657
sS'contours'
p13
(tsS'components'
p14
(tsS'anchors'
p15
(tsss."
LayerCount: 2
Fore
SplineSet
119 -202 m 257
 206 -202 l 258
 496 -202 496 -39 496 199 c 256
 496 379 522 481 667 481 c 257
 667 627 l 257
 525 627 496 728 496 904 c 256
 496 1141 496 1309 207 1309 c 258
 119 1309 l 257
 119 1169 l 257
 274 1169 305 1143 305 1006 c 256
 305 706 320 615 473 554 c 257
 332 497 307 407 307 156 c 256
 307 -35 302 -62 119 -62 c 257
 119 -202 l 257
EndSplineSet
EndChar

StartChar: bracketleft
Encoding: 91 91 173
Width: 730
VWidth: 0
Flags: HW
PickledData: "(dp1
S'org.robofab.postScriptHintData'
p2
(dp3
sS'com.typemytype.robofont.layerData'
p4
(dp5
S'b'
(dp6
S'name'
p7
S'bracketleft'
p8
sS'lib'
p9
(dp10
sS'unicodes'
p11
(tsS'width'
p12
I688
sS'contours'
p13
(tsS'components'
p14
(tsS'anchors'
p15
(tsss."
LayerCount: 2
Fore
SplineSet
199 -203 m 257
 613 -203 l 257
 613 -51 l 257
 420 -51 l 257
 420 1115 l 257
 613 1115 l 257
 613 1266 l 257
 199 1266 l 257
 199 -203 l 257
EndSplineSet
EndChar

StartChar: bracketright
Encoding: 93 93 174
Width: 729
VWidth: 0
Flags: HW
PickledData: "(dp1
S'org.robofab.postScriptHintData'
p2
(dp3
sS'com.typemytype.robofont.layerData'
p4
(dp5
S'b'
(dp6
S'name'
p7
S'bracketright'
p8
sS'lib'
p9
(dp10
sS'unicodes'
p11
(tsS'width'
p12
I687
sS'contours'
p13
(tsS'components'
p14
(tsS'anchors'
p15
(tsss."
LayerCount: 2
Fore
SplineSet
117 -203 m 257
 532 -203 l 257
 532 1266 l 257
 117 1266 l 257
 117 1115 l 257
 310 1115 l 257
 310 -51 l 257
 117 -51 l 257
 117 -203 l 257
EndSplineSet
EndChar

StartChar: breve
Encoding: 339 728 175
Width: 622
VWidth: 0
Flags: HW
PickledData: "(dp1
S'org.robofab.postScriptHintData'
p2
(dp3
sS'com.typemytype.robofont.layerData'
p4
(dp5
S'b'
(dp6
S'name'
p7
S'breve'
p8
sS'lib'
p9
(dp10
sS'unicodes'
p11
(tsS'width'
p12
I575
sS'contours'
p13
(tsS'components'
p14
(tsS'anchors'
p15
(tsss."
AnchorPoint: "top" 311 804 mark 0
LayerCount: 2
Fore
SplineSet
310 912 m 256
 467 912 572 1011 587 1166 c 257
 442 1166 l 257
 432 1088 382 1044 310 1044 c 256
 234 1044 189 1088 176 1166 c 257
 36 1166 l 257
 47 1010 155 912 310 912 c 256
EndSplineSet
EndChar

StartChar: breveinvertedcomb
Encoding: 340 785 176
Width: 584
VWidth: 0
Flags: HW
PickledData: "(dp1
S'org.robofab.postScriptHintData'
p2
(dp3
sS'com.typemytype.robofont.layerData'
p4
(dp5
S'b'
(dp6
S'name'
p7
S'uni0311'
p8
sS'lib'
p9
(dp10
sS'unicodes'
p11
(tsS'width'
p12
I584
sS'contours'
p13
(tsS'components'
p14
(tsS'anchors'
p15
(tsss."
AnchorPoint: "top" 288 842 mark 0
LayerCount: 2
Fore
SplineSet
-6 950 m 257
 159 950 l 257
 171 1022 214 1062 285 1062 c 256
 352 1062 399 1022 408 950 c 257
 578 950 l 257
 562 1114 451 1221 284 1221 c 256
 120 1221 6 1115 -6 950 c 257
EndSplineSet
EndChar

StartChar: brokenbar
Encoding: 341 166 177
Width: 496
VWidth: 0
Flags: HW
PickledData: "(dp1
S'org.robofab.postScriptHintData'
p2
(dp3
sS'com.typemytype.robofont.layerData'
p4
(dp5
S'b'
(dp6
S'name'
p7
S'brokenbar'
p8
sS'lib'
p9
(dp10
sS'unicodes'
p11
(tsS'width'
p12
I467
sS'contours'
p13
(tsS'components'
p14
(tsS'anchors'
p15
(tsss."
LayerCount: 2
Fore
SplineSet
177 -223 m 257
 323 -223 l 257
 323 327 l 257
 177 327 l 257
 177 -223 l 257
177 658 m 257
 323 658 l 257
 323 1208 l 257
 177 1208 l 257
 177 658 l 257
EndSplineSet
EndChar

StartChar: bullet
Encoding: 342 8226 178
Width: 559
VWidth: 0
Flags: HW
PickledData: "(dp1
S'org.robofab.postScriptHintData'
p2
(dp3
sS'com.typemytype.robofont.layerData'
p4
(dp5
S'b'
(dp6
S'name'
p7
S'bullet'
p8
sS'lib'
p9
(dp10
sS'unicodes'
p11
(tsS'width'
p12
I559
sS'contours'
p13
(tsS'components'
p14
(tsS'anchors'
p15
(tsss."
LayerCount: 2
Fore
SplineSet
280 368 m 256
 392 368 481 455 481 562 c 256
 481 670 392 754 280 754 c 256
 167 754 80 669 80 562 c 256
 80 456 167 368 280 368 c 256
EndSplineSet
EndChar

StartChar: c
Encoding: 99 99 179
Width: 965
VWidth: 0
Flags: HW
PickledData: "(dp1
S'org.robofab.postScriptHintData'
p2
(dp3
sS'com.typemytype.robofont.layerData'
p4
(dp5
S'b'
(dp6
S'name'
p7
S'c'
sS'lib'
p8
(dp9
sS'unicodes'
p10
(tsS'width'
p11
I1040
sS'contours'
p12
((dp13
S'points'
p14
((dp15
S'y'
S'-14'
p16
sS'x'
I599
sS'smooth'
p17
I0
s(dp18
S'y'
I33
sS'x'
I758
sg17
I0
s(dp19
S'segmentType'
p20
S'curve'
p21
sS'x'
I868
sg17
I0
sS'y'
I142
s(dp22
g20
S'line'
p23
sS'x'
I845
sg17
I0
sS'y'
I213
s(dp24
S'y'
I105
sS'x'
I763
sg17
I0
s(dp25
S'y'
I51
sS'x'
I637
sg17
I0
s(dp26
g20
S'curve'
p27
sS'x'
I515
sg17
I1
sS'y'
I51
s(dp28
S'y'
I51
sS'x'
I316
sg17
I0
s(dp29
S'y'
I193
sS'x'
I169
sg17
I0
s(dp30
g20
S'curve'
p31
sS'x'
I169
sg17
I1
sS'y'
I406
s(dp32
S'y'
I630
sS'x'
I169
sg17
I0
s(dp33
S'y'
I755
sS'x'
I336
sg17
I0
s(dp34
g20
S'curve'
p35
sS'x'
I515
sg17
I1
sS'y'
I755
s(dp36
S'y'
I755
sS'x'
I705
sg17
I0
s(dp37
S'y'
I657
sS'x'
I768
sg17
I0
s(dp38
g20
S'curve'
p39
sS'x'
I776
sg17
I0
sS'y'
I570
s(dp40
g20
S'line'
p41
sS'x'
I840
sg17
I0
sS'y'
I570
s(dp42
g20
S'line'
p43
sS'x'
I840
sg17
I0
sS'y'
I825
s(dp44
g20
S'line'
p45
sS'x'
I767
sg17
I0
sS'y'
I825
s(dp46
g20
S'line'
p47
sS'x'
I767
sg17
I0
sS'y'
I714
s(dp48
S'y'
I764
sS'x'
I736
sg17
I0
s(dp49
S'y'
I819
sS'x'
I645
sg17
I0
s(dp50
g20
S'curve'
p51
sS'x'
I522
sg17
I1
sS'y'
I819
s(dp52
S'y'
I819
sS'x'
F268.96812951340218
sg17
I0
s(dp53
S'y'
I650
sS'x'
I90
sg17
I0
s(dp54
g20
S'curve'
p55
sS'x'
I90
sg17
I1
sS'y'
I406
s(dp56
S'y'
I145
sS'x'
I90
sg17
I0
s(dp57
S'y'
S'-14'
p58
sS'x'
I286
sg17
I0
s(dp59
g20
S'curve'
p60
sS'x'
I515
sg17
I1
sS'y'
S'-14'
p61
stp62
stp63
sS'components'
p64
(tsS'anchors'
p65
(tsss."
AnchorPoint: "top" 518 804 basechar 0
LayerCount: 2
Fore
SplineSet
275 414 m 0
 275 561.551849201 376.190340871 662.284417846 519.730892346 662.284417846 c 0
 634.442901504 662.284417846 715.062438488 601.408747961 742 485 c 1
 897 485 l 1
 897 808 l 1
 726 808 l 1
 725 723 l 1
 696 781 591 826 492 826 c 0
 231 826 49 653 49 409 c 0
 49 155 235 -19 504 -19 c 0
 679 -19 817 58 896 161 c 1
 806 284 l 1
 741.362845293 210.680242422 663.695736306 145.736884023 525.410596237 145.736884023 c 0
 375.135250976 145.736884023 275 255.092106894 275 414 c 0
EndSplineSet
EndChar

StartChar: caron
Encoding: 344 711 181
Width: 636
VWidth: 0
Flags: HW
PickledData: "(dp1
S'org.robofab.postScriptHintData'
p2
(dp3
sS'com.typemytype.robofont.layerData'
p4
(dp5
S'b'
(dp6
S'name'
p7
S'caron'
p8
sS'lib'
p9
(dp10
sS'unicodes'
p11
(tsS'width'
p12
I586
sS'contours'
p13
(tsS'components'
p14
(tsS'anchors'
p15
(tsss."
AnchorPoint: "top" 316 804 mark 0
LayerCount: 2
Fore
SplineSet
208 915 m 257
 430 915 l 257
 586 1233 l 257
 438 1233 l 257
 320 1025 l 257
 196 1233 l 257
 46 1233 l 257
 208 915 l 257
EndSplineSet
EndChar

StartChar: caron.alt
Encoding: 345 -1 182
Width: 600
VWidth: 0
Flags: HW
PickledData: "(dp1
S'org.robofab.postScriptHintData'
p2
(dp3
s."
AnchorPoint: "caron.alt" 123 804 mark 0
LayerCount: 2
Fore
SplineSet
90 723 m 257
 263 723 353 800 352 943 c 257
 352 1174 l 257
 90 1174 l 257
 90 953 l 257
 225 953 l 257
 225 872 180 838 90 823 c 257
 90 723 l 257
EndSplineSet
EndChar

StartChar: cedilla
Encoding: 348 184 187
Width: 479
VWidth: 0
Flags: HW
PickledData: "(dp1
S'org.robofab.postScriptHintData'
p2
(dp3
sS'com.typemytype.robofont.layerData'
p4
(dp5
S'b'
(dp6
S'name'
p7
S'cedilla'
p8
sS'lib'
p9
(dp10
sS'unicodes'
p11
(tsS'width'
p12
I456
sS'contours'
p13
(tsS'components'
p14
(tsS'anchors'
p15
(tsss."
LayerCount: 2
Fore
SplineSet
281 -393 m 256
 374 -393 449 -355 449 -256 c 256
 449 -192 400 -131 294 -117 c 257
 322 5 l 257
 232 5 l 257
 167 -168 l 257
 244 -175 283 -198 283 -238 c 256
 283 -280 252 -296 206 -296 c 256
 168 -296 120 -285 74 -270 c 257
 74 -345 l 257
 139 -375 215 -393 281 -393 c 256
EndSplineSet
EndChar

StartChar: cent
Encoding: 349 162 188
Width: 966
VWidth: 0
Flags: HW
PickledData: "(dp1
S'org.robofab.postScriptHintData'
p2
(dp3
sS'com.typemytype.robofont.layerData'
p4
(dp5
S'b'
(dp6
S'name'
p7
S'cent'
p8
sS'lib'
p9
(dp10
sS'unicodes'
p11
(tsS'width'
p12
I969
sS'contours'
p13
(tsS'components'
p14
(tsS'anchors'
p15
(tsss."
LayerCount: 2
Fore
SplineSet
388 -403 m 257
 703 1188 l 257
 621 1201 l 257
 308 -390 l 257
 388 -403 l 257
EndSplineSet
Refer: 179 99 N 1 0 0 1 0 0 2
EndChar

StartChar: circumflex
Encoding: 350 710 189
Width: 663
VWidth: 0
Flags: HW
PickledData: "(dp1
S'org.robofab.postScriptHintData'
p2
(dp3
sS'com.typemytype.robofont.layerData'
p4
(dp5
S'b'
(dp6
S'name'
p7
S'circumflex'
p8
sS'lib'
p9
(dp10
sS'unicodes'
p11
(tsS'width'
p12
I618
sS'contours'
p13
(tsS'components'
p14
(tsS'anchors'
p15
(tsss."
AnchorPoint: "top" 335 804 mark 0
LayerCount: 2
Fore
SplineSet
45 916 m 257
 197 916 l 257
 330 1168 l 257
 462 916 l 257
 618 916 l 257
 461 1251 l 257
 197 1251 l 257
 45 916 l 257
EndSplineSet
EndChar

StartChar: colon
Encoding: 58 58 190
Width: 625
VWidth: 0
Flags: HW
PickledData: "(dp1
S'org.robofab.postScriptHintData'
p2
(dp3
sS'com.typemytype.robofont.layerData'
p4
(dp5
S'b'
(dp6
S'name'
p7
S'colon'
p8
sS'lib'
p9
(dp10
sS'unicodes'
p11
(tsS'width'
p12
I560
sS'contours'
p13
(tsS'components'
p14
(tsS'anchors'
p15
(tsss."
LayerCount: 2
Fore
SplineSet
180 67 m 257
 446 67 l 257
 446 325 l 257
 180 325 l 257
 180 67 l 257
180 626 m 257
 446 626 l 257
 446 887 l 257
 180 887 l 257
 180 626 l 257
EndSplineSet
EndChar

StartChar: comma
Encoding: 44 44 191
Width: 574
VWidth: 0
Flags: HW
PickledData: "(dp1
S'org.robofab.postScriptHintData'
p2
(dp3
sS'com.typemytype.robofont.layerData'
p4
(dp5
S'b'
(dp6
S'name'
p7
S'comma'
p8
sS'lib'
p9
(dp10
sS'unicodes'
p11
(tsS'width'
p12
I522
sS'contours'
p13
(tsS'components'
p14
(tsS'anchors'
p15
(tsss."
LayerCount: 2
Fore
SplineSet
176 -272 m 257
 384 -271 449 -180 449 26 c 256
 449 79 445 216 440 258 c 257
 392 258 217 257 176 252 c 257
 176 215 178 38 178 1 c 257
 316 1 l 257
 316 -110 274 -153 176 -169 c 257
 176 -272 l 257
EndSplineSet
EndChar

StartChar: commaturnedabovecomb
Encoding: 351 786 192
Width: 600
VWidth: 0
Flags: HW
PickledData: "(dp1
S'org.robofab.postScriptHintData'
p2
(dp3
s."
AnchorPoint: "top" 171 804 mark 0
LayerCount: 2
Fore
SplineSet
92 907 m 257
 352 907 l 257
 352 1145 l 257
 206 1145 l 257
 206 1229 260 1263 351 1279 c 257
 351 1370 l 257
 175.017107019 1369.00574637 88.9913800695 1297.82513242 88.9913800695 1139.74954207 c 0
 88.9913800695 1123.82162755 89.707656043 919.607891763 92 907 c 257
EndSplineSet
EndChar

StartChar: copyright
Encoding: 169 169 193
Width: 1538
VWidth: 0
Flags: HW
PickledData: "(dp1
S'org.robofab.postScriptHintData'
p2
(dp3
sS'com.typemytype.robofont.layerData'
p4
(dp5
S'b'
(dp6
S'name'
p7
S'copyright'
p8
sS'lib'
p9
(dp10
sS'unicodes'
p11
(tsS'width'
p12
I1538
sS'contours'
p13
(tsS'components'
p14
(tsS'anchors'
p15
(tsss."
LayerCount: 2
Fore
SplineSet
782 276 m 256
 901 276 1022 339 1073 428 c 257
 974 492 l 257
 937 433 859 391 785 391 c 256
 678 391 602 479 602 604 c 256
 602 726 678 812 785 812 c 256
 860 812 926 759 945 683 c 257
 1060 683 l 257
 1060 913 l 257
 940 913 l 257
 941 855 l 257
 908 897 837 926 768 926 c 256
 582 926 451 791 451 601 c 256
 451 411 588 276 782 276 c 256
767 103 m 256
 483 103 282 309 282 600 c 256
 282 896 483 1106 767 1106 c 256
 1053 1106 1255 896 1255 600 c 256
 1255 309 1053 103 767 103 c 256
767 -22 m 256
 1147 -22 1415 237 1415 603 c 256
 1415 970 1147 1230 767 1230 c 256
 390 1230 123 970 123 603 c 256
 123 237 390 -22 767 -22 c 256
EndSplineSet
EndChar

StartChar: currency
Encoding: 352 164 194
Width: 1046
VWidth: 0
Flags: HW
PickledData: "(dp1
S'org.robofab.postScriptHintData'
p2
(dp3
sS'com.typemytype.robofont.layerData'
p4
(dp5
S'b'
(dp6
S'name'
p7
S'currency'
p8
sS'lib'
p9
(dp10
sS'unicodes'
p11
(tsS'width'
p12
I1010
sS'contours'
p13
(tsS'components'
p14
(tsS'anchors'
p15
(tsss."
LayerCount: 2
Fore
SplineSet
240 451 m 257
 328 538 l 257
 384 506 446 486 521 486 c 256
 596 486 659 504 717 539 c 257
 807 451 l 257
 876 519 l 257
 791 603 l 257
 837 658 865 724 865 806 c 256
 865 882 841 949 793 1005 c 257
 876 1088 l 257
 807 1157 l 257
 719 1069 l 257
 664 1103 598 1124 522 1124 c 256
 445 1124 380 1103 326 1071 c 257
 240 1157 l 257
 171 1088 l 257
 251 1007 l 257
 204 951 178 883 178 805 c 256
 178 724 208 655 253 601 c 257
 171 519 l 257
 240 451 l 257
521 600 m 256
 397 600 315 696 315 806 c 256
 315 911 396 1006 522 1006 c 256
 643 1006 727 912 727 805 c 256
 727 696 647 600 521 600 c 256
EndSplineSet
EndChar

StartChar: d
Encoding: 100 100 195
Width: 1080
VWidth: 0
Flags: HW
PickledData: "(dp1
S'org.robofab.postScriptHintData'
p2
(dp3
sS'com.typemytype.robofont.layerData'
p4
(dp5
S'b'
(dp6
S'name'
p7
S'd'
sS'lib'
p8
(dp9
sS'unicodes'
p10
(tsS'width'
p11
I1089
sS'contours'
p12
(tsS'components'
p13
(tsS'anchors'
p14
(tsss."
AnchorPoint: "caron.alt" 1043 804 basechar 0
AnchorPoint: "top" 317 804 basechar 0
LayerCount: 2
Fore
SplineSet
694 182.689053947 m 1
 634.056985251 153.345956144 572.026022945 138 516 138 c 0
 387 138 282 221 282 392 c 0
 282 579 378 666 508 666 c 0
 566.134617914 666 630.503369356 648.031026888 694 614.535855589 c 1
 694 182.689053947 l 1
694 0 m 1
 1031 0 l 1
 1031 151 l 1
 913 151 l 1
 913 1174 l 1
 546 1174 l 1
 546 1023 l 1
 694 1023 l 1
 694 750.243622348 l 1
 618.981285595 797.63725706 533.404298306 825 449 825 c 0
 237 825 53 680 53 400 c 0
 53 130 247 -22 466 -22 c 0
 546.732712612 -22 624.14924353 1.95020111748 694 45.8246733734 c 1
 694 0 l 1
EndSplineSet
EndChar

StartChar: dagger
Encoding: 353 8224 196
Width: 832
VWidth: 0
Flags: HW
PickledData: "(dp1
S'org.robofab.postScriptHintData'
p2
(dp3
sS'com.typemytype.robofont.layerData'
p4
(dp5
S'b'
(dp6
S'name'
p7
S'dagger'
p8
sS'lib'
p9
(dp10
sS'unicodes'
p11
(tsS'width'
p12
I833
sS'contours'
p13
(tsS'components'
p14
(tsS'anchors'
p15
(tsss."
LayerCount: 2
Fore
SplineSet
370 -227 m 257
 458 -227 l 257
 458 157 499 399 539 576 c 257
 458 765 l 257
 757 718 l 257
 757 913 l 257
 458 869 l 257
 522 1235 l 257
 310 1235 l 257
 370 869 l 257
 72 913 l 257
 72 718 l 257
 370 765 l 257
 293 576 l 257
 330 396 370 153 370 -227 c 257
EndSplineSet
EndChar

StartChar: daggerdbl
Encoding: 354 8225 197
Width: 791
VWidth: 0
Flags: HW
PickledData: "(dp1
S'org.robofab.postScriptHintData'
p2
(dp3
sS'com.typemytype.robofont.layerData'
p4
(dp5
S'b'
(dp6
S'name'
p7
S'daggerdbl'
p8
sS'lib'
p9
(dp10
sS'unicodes'
p11
(tsS'width'
p12
I784
sS'contours'
p13
(tsS'components'
p14
(tsS'anchors'
p15
(tsss."
LayerCount: 2
Fore
SplineSet
291 -227 m 257
 504 -227 l 257
 440 37 l 257
 738 -6 l 257
 738 189 l 257
 460 141 l 257
 447 506 l 257
 460 865 l 257
 738 818 l 257
 738 1012 l 257
 440 969 l 257
 504 1233 l 257
 291 1233 l 257
 352 969 l 257
 54 1012 l 257
 54 818 l 257
 332 865 l 257
 344 508 l 257
 332 141 l 257
 54 189 l 257
 54 -6 l 257
 352 37 l 257
 291 -227 l 257
EndSplineSet
EndChar

StartChar: dblgravecmb
Encoding: 355 783 198
Width: 699
VWidth: 0
Flags: HW
PickledData: "(dp1
S'org.robofab.postScriptHintData'
p2
(dp3
sS'com.typemytype.robofont.layerData'
p4
(dp5
S'b'
(dp6
S'name'
p7
S'uni030F'
p8
sS'lib'
p9
(dp10
sS'unicodes'
p11
(tsS'width'
p12
I677
sS'contours'
p13
(tsS'components'
p14
(tsS'anchors'
p15
(tsss."
AnchorPoint: "top" 456 804 mark 0
LayerCount: 2
Fore
SplineSet
193 962 m 257
 332 962 l 257
 218 1290 l 257
 -22 1290 l 257
 193 962 l 257
529 962 m 257
 668 962 l 257
 554 1290 l 257
 314 1290 l 257
 529 962 l 257
EndSplineSet
EndChar

StartChar: degree
Encoding: 358 176 202
Width: 669
VWidth: 0
Flags: HW
PickledData: "(dp1
S'org.robofab.postScriptHintData'
p2
(dp3
sS'com.typemytype.robofont.layerData'
p4
(dp5
S'b'
(dp6
S'name'
p7
S'degree'
p8
sS'lib'
p9
(dp10
sS'unicodes'
p11
(tsS'width'
p12
I653
sS'contours'
p13
(tsS'components'
p14
(tsS'anchors'
p15
(tsss."
LayerCount: 2
Fore
SplineSet
335 784 m 256
 220 784 165 870 165 955 c 256
 165 1039 221 1125 334 1125 c 256
 451 1125 505 1034 505 956 c 256
 505 868 447 784 335 784 c 256
335 695 m 256
 510 695 600 825 600 954 c 256
 600 1081 509 1211 335 1211 c 256
 161 1211 70 1081 70 954 c 256
 70 825 159 695 335 695 c 256
EndSplineSet
EndChar

StartChar: dieresis
Encoding: 359 168 203
Width: 727
VWidth: 0
Flags: HW
PickledData: "(dp1
S'org.robofab.postScriptHintData'
p2
(dp3
sS'com.typemytype.robofont.layerData'
p4
(dp5
S'b'
(dp6
S'name'
p7
S'dieresis'
p8
sS'lib'
p9
(dp10
sS'unicodes'
p11
(tsS'width'
p12
I661
sS'contours'
p13
(tsS'components'
p14
(tsS'anchors'
p15
(tsss."
AnchorPoint: "top" 362 804 mark 0
LayerCount: 2
Fore
SplineSet
141 926 m 256
 217 926 266 976 266 1046 c 256
 266 1119 214 1165 141 1165 c 256
 68 1165 16 1117 16 1046 c 256
 16 975 68 926 141 926 c 256
586 926 m 256
 662 926 712 976 711 1046 c 257
 711 1119 659 1165 586 1165 c 256
 513 1165 461 1117 461 1046 c 256
 461 975 513 926 586 926 c 256
EndSplineSet
EndChar

StartChar: divide
Encoding: 360 247 204
Width: 895
VWidth: 0
Flags: HW
PickledData: "(dp1
S'org.robofab.postScriptHintData'
p2
(dp3
sS'com.typemytype.robofont.layerData'
p4
(dp5
S'b'
(dp6
S'name'
p7
S'divide'
p8
sS'lib'
p9
(dp10
sS'unicodes'
p11
(tsS'width'
p12
I895
sS'contours'
p13
(tsS'components'
p14
(tsS'anchors'
p15
(tsss."
LayerCount: 2
Fore
SplineSet
356 141 m 257
 540 141 l 257
 540 323 l 257
 356 323 l 257
 356 141 l 257
35 484 m 257
 860 484 l 257
 860 613 l 257
 35 613 l 257
 35 484 l 257
356 771 m 257
 540 771 l 257
 540 952 l 257
 356 952 l 257
 356 771 l 257
EndSplineSet
EndChar

StartChar: dollar
Encoding: 36 36 205
Width: 1057
VWidth: 0
Flags: HW
PickledData: "(dp1
S'org.robofab.postScriptHintData'
p2
(dp3
sS'com.typemytype.robofont.layerData'
p4
(dp5
S'b'
(dp6
S'name'
p7
S'dollar'
p8
sS'lib'
p9
(dp10
sS'unicodes'
p11
(tsS'width'
p12
I1034
sS'contours'
p13
(tsS'components'
p14
(tsS'anchors'
p15
(tsss."
LayerCount: 2
Fore
SplineSet
467 -182 m 257
 563 -182 l 257
 563 1365 l 257
 467 1365 l 257
 467 -182 l 257
EndSplineSet
Refer: 104 83 N 1 0 0 1 -50 0 2
EndChar

StartChar: dotaccent
Encoding: 362 729 207
Width: 356
VWidth: 0
Flags: HW
PickledData: "(dp1
S'org.robofab.postScriptHintData'
p2
(dp3
sS'com.typemytype.robofont.layerData'
p4
(dp5
S'b'
(dp6
S'name'
p7
S'dotaccent'
p8
sS'lib'
p9
(dp10
sS'unicodes'
p11
(tsS'width'
p12
I219
sS'contours'
p13
(tsS'components'
p14
(tsS'anchors'
p15
(tsss."
AnchorPoint: "top" 180 804 mark 0
LayerCount: 2
Fore
SplineSet
182 966 m 256
 267 966 330 1026 330 1106 c 256
 330 1184 267 1244 182 1244 c 256
 100 1244 37 1184 37 1106 c 256
 37 1026 100 966 182 966 c 256
EndSplineSet
EndChar

StartChar: dotlessi
Encoding: 363 305 208
Width: 683
VWidth: 0
Flags: HW
PickledData: "(dp1
S'org.robofab.postScriptHintData'
p2
(dp3
sS'com.typemytype.robofont.layerData'
p4
(dp5
S'b'
(dp6
S'name'
p7
S'dotlessi'
p8
sS'lib'
p9
(dp10
sS'unicodes'
p11
(tsS'width'
p12
I651
sS'contours'
p13
(tsS'components'
p14
(tsS'anchors'
p15
(tsss."
AnchorPoint: "top" 351 804 basechar 0
LayerCount: 2
Fore
SplineSet
136 0 m 257
 620 0 l 257
 620 151 l 257
 494 151 l 257
 494 368.666992188 494 586.333007812 494 804 c 257
 138 804 l 257
 138 653 l 257
 277 653 l 257
 277 151 l 257
 136 151 l 257
 136 0 l 257
EndSplineSet
EndChar

StartChar: dotlessj
Encoding: 364 567 209
Width: 569
VWidth: 0
Flags: HW
PickledData: "(dp1
S'org.robofab.postScriptHintData'
p2
(dp3
sS'com.typemytype.robofont.layerData'
p4
(dp5
S'b'
(dp6
S'name'
p7
S'uni0237'
p8
sS'lib'
p9
(dp10
sS'unicodes'
p11
(tsS'width'
p12
I583
sS'contours'
p13
(tsS'components'
p14
(tsS'anchors'
p15
(tsss."
AnchorPoint: "top" 303 804 basechar 0
LayerCount: 2
Fore
SplineSet
1 -343 m 257
 99 -343 l 258
 440 -343 451 -151 451 76 c 258
 451 804 l 257
 67 804 l 257
 67 653 l 257
 231 653 l 257
 231 2 l 258
 231 -127 197 -172 92 -172 c 258
 1 -172 l 257
 1 -343 l 257
EndSplineSet
EndChar

StartChar: e
Encoding: 101 101 212
Width: 934
VWidth: 0
Flags: HW
PickledData: "(dp1
S'org.robofab.postScriptHintData'
p2
(dp3
sS'com.typemytype.robofont.layerData'
p4
(dp5
S'b'
(dp6
S'name'
p7
S'e'
sS'lib'
p8
(dp9
sS'unicodes'
p10
(tsS'width'
p11
I1054
sS'contours'
p12
((dp13
S'points'
p14
((dp15
S'segmentType'
p16
S'line'
p17
sS'x'
I119
sS'smooth'
p18
I0
sS'y'
I442
s(dp19
S'y'
I592
sS'x'
I130
sg18
I0
s(dp20
S'y'
I755
sS'x'
I244
sg18
I0
s(dp21
g16
S'curve'
p22
sS'x'
I455
sg18
I1
sS'y'
I755
s(dp23
S'y'
I755
sS'x'
I647
sg18
I0
s(dp24
S'y'
I616
sS'x'
I751
sg18
I0
s(dp25
g16
S'curve'
p26
sS'x'
I768
sg18
I0
sS'y'
I442
stp27
s(dp28
g14
((dp29
g16
S'line'
p30
sS'x'
I838
sg18
I0
sS'y'
I383
s(dp31
S'y'
I601
sS'x'
I837
sg18
I0
s(dp32
S'y'
I819
sS'x'
F726.76831688899995
sg18
I0
s(dp33
g16
S'curve'
p34
sS'x'
I450
sg18
I1
sS'y'
I819
s(dp35
S'y'
I819
sS'x'
I180
sg18
I0
s(dp36
S'y'
I618
sS'x'
I38
sg18
I0
s(dp37
g16
S'curve'
p38
sS'x'
I38
sg18
I1
sS'y'
I403
s(dp39
S'y'
I150
sS'x'
I38
sg18
I0
s(dp40
S'y'
S'-14'
p41
sS'x'
I232
sg18
I0
s(dp42
g16
S'curve'
p43
sS'x'
I511
sg18
I1
sS'y'
S'-14'
p44
s(dp45
S'y'
S'-14'
p46
sS'x'
I657
sg18
I0
s(dp47
S'y'
I34
sS'x'
I761
sg18
I0
s(dp48
g16
S'curve'
p49
sS'x'
I868
sg18
I0
sS'y'
I139
s(dp50
g16
S'line'
p51
sS'x'
I836
sg18
I0
sS'y'
I197
s(dp52
S'y'
I103
sS'x'
I747
sg18
I0
s(dp53
S'y'
I50
sS'x'
I652
sg18
I0
s(dp54
g16
S'curve'
p55
sS'x'
I515
sg18
I1
sS'y'
I50
s(dp56
S'y'
I50
sS'x'
I347
sg18
I0
s(dp57
S'y'
I162
sS'x'
I182
sg18
I0
s(dp58
g16
S'curve'
p59
sS'x'
I169
sg18
I0
sS'y'
I383
stp60
stp61
sS'components'
p62
(tsS'anchors'
p63
(tsss."
AnchorPoint: "top" 479 804 basechar 0
LayerCount: 2
Fore
SplineSet
502 -19 m 0
 661 -19 803 47 872 123 c 1
 798 247 l 1
 720 185 630 142 517 142 c 0
 383 142 282 230 273 362 c 1
 882 362 l 1
 882 637 720 826 484 826 c 0
 224 826 45 653 45 399 c 0
 45 151 231 -19 502 -19 c 0
276 485 m 1
 294 598 379 676 486 676 c 0
 587 676 663 598 672 485 c 1
 276 485 l 1
EndSplineSet
EndChar

StartChar: eight
Encoding: 56 56 220
Width: 1124
VWidth: 0
Flags: HW
PickledData: "(dp1
S'org.robofab.postScriptHintData'
p2
(dp3
sS'com.typemytype.robofont.layerData'
p4
(dp5
S'b'
(dp6
S'name'
p7
S'eight'
p8
sS'lib'
p9
(dp10
sS'unicodes'
p11
(tsS'width'
p12
I1109
sS'contours'
p13
(tsS'components'
p14
(tsS'anchors'
p15
(tsss."
LayerCount: 2
Fore
SplineSet
564 -22 m 256
 845 -22 1008 124 1008 314 c 256
 1008 449 934 554 786 601 c 257
 916 660 970 751 970 866 c 256
 970 1050 810 1174 561 1174 c 256
 312 1174 152 1047 152 865 c 256
 152 749 209 656 338 598 c 257
 189 552 115 449 115 314 c 256
 115 127 271 -22 564 -22 c 256
564 130 m 256
 435 130 355 207 355 321 c 256
 355 441 448 531 471 538 c 257
 645 497 769 456 769 319 c 256
 769 207 689 130 564 130 c 256
636 654 m 257
 495 683 380 734 380 850 c 256
 380 956 446 1023 561 1023 c 256
 682 1023 745 952 745 850 c 256
 745 745 656 660 636 654 c 257
EndSplineSet
EndChar

StartChar: emdash
Encoding: 372 8212 223
Width: 2010
VWidth: 0
Flags: HW
PickledData: "(dp1
S'org.robofab.postScriptHintData'
p2
(dp3
sS'com.typemytype.robofont.layerData'
p4
(dp5
S'b'
(dp6
S'name'
p7
S'emdash'
p8
sS'lib'
p9
(dp10
sS'unicodes'
p11
(tsS'width'
p12
I2045
sS'contours'
p13
(tsS'components'
p14
(tsS'anchors'
p15
(tsss."
LayerCount: 2
Fore
SplineSet
147 227 m 257
 1863 227 l 257
 1863 354 l 257
 147 354 l 257
 147 227 l 257
EndSplineSet
EndChar

StartChar: emptyset
Encoding: 373 8709 224
Width: 1349
VWidth: 0
Flags: HW
PickledData: "(dp1
S'org.robofab.postScriptHintData'
p2
(dp3
s."
LayerCount: 2
Fore
SplineSet
241 -64 m 257
 355 71 l 257
 446 11 556 -22 674 -22 c 256
 978 -22 1226 222 1226 525 c 256
 1226 676 1165 811 1067 910 c 257
 1182 1045 l 257
 1114 1104 l 257
 999 968 l 257
 907 1033 795 1073 674 1073 c 256
 372 1073 123 852 123 525 c 256
 123 357 186 219 288 124 c 257
 178 -7 l 257
 241 -64 l 257
358 207 m 257
 281 284 236 395 236 524 c 256
 236 783 425 971 674 971 c 256
 771 971 860 939 931 887 c 257
 358 207 l 257
673 80 m 256
 579 80 494 105 424 152 c 257
 997 827 l 257
 1070 746 1114 639 1114 524 c 256
 1114 287 923 80 673 80 c 256
EndSplineSet
EndChar

StartChar: endash
Encoding: 374 8211 225
Width: 1166
VWidth: 0
Flags: HW
PickledData: "(dp1
S'org.robofab.postScriptHintData'
p2
(dp3
sS'com.typemytype.robofont.layerData'
p4
(dp5
S'b'
(dp6
S'name'
p7
S'endash'
p8
sS'lib'
p9
(dp10
sS'unicodes'
p11
(tsS'width'
p12
I1222
sS'contours'
p13
(tsS'components'
p14
(tsS'anchors'
p15
(tsss."
LayerCount: 2
Fore
SplineSet
147 231 m 257
 1020 231 l 257
 1020 359 l 257
 147 359 l 257
 147 231 l 257
EndSplineSet
EndChar

StartChar: eng
Encoding: 375 331 226
Width: 1104
VWidth: 0
Flags: HW
PickledData: "(dp1
S'org.robofab.postScriptHintData'
p2
(dp3
s."
LayerCount: 2
Fore
SplineSet
48 0 m 257
 532 0 l 257
 532 151 l 257
 406 151 l 257
 406 368.666992188 406 586.333007812 406 804 c 257
 50 804 l 257
 50 653 l 257
 189 653 l 257
 189 151 l 257
 48 151 l 257
 48 0 l 257
500 -312 m 257
 746 -312 959 -227 959 63 c 258
 959 536 l 258
 959 728 831 826 684 826 c 256
 538 826 412 739 295 624 c 257
 295 486 l 257
 370 578 492 658 612 658 c 256
 693 658 743 599 743 487 c 258
 743 57 l 258
 743 -101 672 -156 501 -156 c 257
 500 -312 l 257
EndSplineSet
EndChar

StartChar: equal
Encoding: 61 61 228
Width: 1191
VWidth: 0
Flags: HW
PickledData: "(dp1
S'org.robofab.postScriptHintData'
p2
(dp3
sS'com.typemytype.robofont.layerData'
p4
(dp5
S'b'
(dp6
S'name'
p7
S'equal'
p8
sS'lib'
p9
(dp10
sS'unicodes'
p11
(tsS'width'
p12
I1209
sS'contours'
p13
(tsS'components'
p14
(tsS'anchors'
p15
(tsss."
LayerCount: 2
Fore
SplineSet
156 238 m 257
 1036 238 l 257
 1036 397 l 257
 156 397 l 257
 156 238 l 257
156 637 m 257
 1036 637 l 257
 1036 797 l 257
 156 797 l 257
 156 637 l 257
EndSplineSet
EndChar

StartChar: estimated
Encoding: 377 8494 229
Width: 1118
VWidth: 0
Flags: HW
PickledData: "(dp1
S'org.robofab.postScriptHintData'
p2
(dp3
s."
LayerCount: 2
Fore
SplineSet
976 115 m 257
 949 150 l 257
 840.172868617 76.9979491347 738.99883784 42.8325282073 651.731923038 42.8325282073 c 0
 480.791659085 42.8325282073 363.2127161 173.924552994 346 401 c 257
 967 401 l 257
 967 667 862 826 580 826 c 256
 312 826 134 674 134 420 c 256
 134 123.748670342 357.128546697 -19.7926631374 595.649939476 -19.7926631374 c 0
 729.90461148 -19.7926631374 869.035950126 25.683217614 976 115 c 257
349 461 m 257
 353.054268659 678.9169404 482.441381783 792.561063479 609.086827376 792.561063479 c 0
 732.341832407 792.561063479 853 684.920253624 853 461 c 257
 349 461 l 257
EndSplineSet
EndChar

StartChar: eth
Encoding: 378 240 230
Width: 1029
VWidth: 0
Flags: HW
PickledData: "(dp1
S'org.robofab.postScriptHintData'
p2
(dp3
sS'com.typemytype.robofont.layerData'
p4
(dp5
S'b'
(dp6
S'name'
p7
S'eth'
p8
sS'lib'
p9
(dp10
sS'unicodes'
p11
(tsS'width'
p12
I1022
sS'contours'
p13
(tsS'components'
p14
(tsS'anchors'
p15
(tsss."
LayerCount: 2
Fore
SplineSet
531 -19 m 256
 791 -19 963 172 963 410 c 256
 963 920 611 1164 306 1391 c 257
 206 1263 l 257
 431 1102 637 919 723 728 c 257
 722 728 648 784 500 784 c 256
 292 784 114 621 114 409 c 256
 114 166 261 -19 531 -19 c 256
538 146 m 256
 404 146 319 259 319 404 c 256
 319 542 396 635 528 635 c 256
 659 635 763 550 763 401 c 256
 763 266 694 146 538 146 c 256
285 876 m 257
 910 1164 l 257
 848 1290 l 257
 224 1004 l 257
 285 876 l 257
EndSplineSet
EndChar

StartChar: exclam
Encoding: 33 33 231
Width: 521
VWidth: 0
Flags: HW
PickledData: "(dp1
S'org.robofab.postScriptHintData'
p2
(dp3
sS'com.typemytype.robofont.layerData'
p4
(dp5
S'b'
(dp6
S'name'
p7
S'exclam'
p8
sS'lib'
p9
(dp10
sS'unicodes'
p11
(tsS'width'
p12
I502
sS'contours'
p13
(tsS'components'
p14
(tsS'anchors'
p15
(tsss."
LayerCount: 2
Fore
SplineSet
213 406 m 257
 321 406 l 257
 372 902 l 257
 372 1211 l 257
 156 1211 l 257
 156 902 l 257
 213 406 l 257
134 0 m 257
 392 0 l 257
 392 247 l 257
 134 247 l 257
 134 0 l 257
EndSplineSet
EndChar

StartChar: f
Encoding: 102 102 233
Width: 746
VWidth: 0
Flags: HW
PickledData: "(dp1
S'org.robofab.postScriptHintData'
p2
(dp3
sS'com.typemytype.robofont.layerData'
p4
(dp5
S'b'
(dp6
S'name'
p7
S'f'
sS'lib'
p8
(dp9
sS'unicodes'
p10
(tsS'width'
p11
I748
sS'contours'
p12
(tsS'components'
p13
(tsS'anchors'
p14
(tsss."
AnchorPoint: "top" 381 1146 basechar 0
LayerCount: 2
Fore
SplineSet
70 0 m 1
 673 0 l 1
 673 152 l 1
 456 152 l 1
 456 653 l 1
 659 653 l 1
 659 804 l 1
 456 804 l 1
 456 940 l 2
 456 1051 490 1089 545 1089 c 0
 611 1089 625 1042 636 972 c 1
 802 1017 l 1
 790 1182 675 1235 530 1235 c 0
 313 1235 237 1102 237 931 c 2
 237 804 l 1
 75 804 l 1
 75 653 l 1
 237 653 l 1
 237 152 l 1
 70 152 l 1
 70 0 l 1
EndSplineSet
EndChar

StartChar: ff
Encoding: 380 64256 235
Width: 1417
VWidth: 0
Flags: HW
PickledData: "(dp1
S'org.robofab.postScriptHintData'
p2
(dp3
sS'com.typemytype.robofont.layerData'
p4
(dp5
S'b'
(dp6
S'name'
p7
S'ff'
p8
sS'lib'
p9
(dp10
sS'unicodes'
p11
(tsS'width'
p12
I1351
sS'contours'
p13
(tsS'components'
p14
(tsS'anchors'
p15
(tsss."
LayerCount: 2
Fore
SplineSet
742 0 m 257
 1275 0 l 257
 1275 151 l 257
 1097 151 l 257
 1097 653 l 257
 1273 653 l 257
 1273 804 l 257
 1097 804 l 257
 1097 940 l 258
 1097 1051 1126 1089 1181 1089 c 256
 1242 1089 1256 1042 1267 972 c 257
 1433 1017 l 257
 1421 1182 1306 1235 1172 1235 c 256
 954 1235 878 1111 878 931 c 258
 878 804 l 257
 540 804 l 257
 540 653 l 257
 878 653 l 257
 878 151 l 257
 742 151 l 257
 742 0 l 257
EndSplineSet
Refer: 233 102 N 1 0 0 1 0 0 2
EndChar

StartChar: ffi
Encoding: 381 64259 236
Width: 1825
VWidth: 0
Flags: HW
PickledData: "(dp1
S'org.robofab.postScriptHintData'
p2
(dp3
sS'com.typemytype.robofont.layerData'
p4
(dp5
S'b'
(dp6
S'name'
p7
S'ffi'
p8
sS'lib'
p9
(dp10
sS'unicodes'
p11
(tsS'width'
p12
I1751
sS'contours'
p13
(tsS'components'
p14
(tsS'anchors'
p15
(tsss."
LayerCount: 2
Fore
SplineSet
64 0 m 257
 547 0 l 257
 547 151 l 257
 419 151 l 257
 419 653 l 257
 748 653 l 257
 748 804 l 257
 419 804 l 257
 419 933 l 258
 419 1048 512 1095 623 1095 c 256
 719 1095 829 1060 902 1001 c 257
 958 1116 l 257
 867 1202 726 1247 590 1247 c 256
 389 1247 200 1150 200 942 c 258
 200 804 l 257
 61 804 l 257
 61 653 l 257
 200 653 l 257
 200 151 l 257
 64 151 l 257
 64 0 l 257
EndSplineSet
Refer: 238 64257 N 1 0 0 1 560 0 2
EndChar

StartChar: ffl
Encoding: 382 64260 237
Width: 1864
VWidth: 0
Flags: HW
PickledData: "(dp1
S'org.robofab.postScriptHintData'
p2
(dp3
sS'com.typemytype.robofont.layerData'
p4
(dp5
S'b'
(dp6
S'name'
p7
S'ffl'
p8
sS'lib'
p9
(dp10
sS'unicodes'
p11
(tsS'width'
p12
I1771
sS'contours'
p13
(tsS'components'
p14
(tsS'anchors'
p15
(tsss."
LayerCount: 2
Fore
SplineSet
95 0 m 257
 578 0 l 257
 578 151 l 257
 449 151 l 257
 449 653 l 257
 778 653 l 257
 778 804 l 257
 449 804 l 257
 449 933 l 258
 449 1048 542 1095 653 1095 c 256
 749 1095 859 1060 932 1001 c 257
 988 1116 l 257
 897 1202 756 1247 620 1247 c 256
 420 1247 230 1150 230 942 c 258
 230 804 l 257
 91 804 l 257
 91 653 l 257
 230 653 l 257
 230 151 l 257
 95 151 l 257
 95 0 l 257
EndSplineSet
Refer: 241 64258 N 1 0 0 1 540 0 2
EndChar

StartChar: fi
Encoding: 383 64257 238
Width: 1265
VWidth: 0
Flags: HW
PickledData: "(dp1
S'org.robofab.postScriptHintData'
p2
(dp3
sS'com.typemytype.robofont.layerData'
p4
(dp5
S'b'
(dp6
S'name'
p7
S'fi'
p8
sS'lib'
p9
(dp10
sS'unicodes'
p11
(tsS'width'
p12
I1222
sS'contours'
p13
(tsS'components'
p14
(tsS'anchors'
p15
(tsss."
LayerCount: 2
Fore
SplineSet
100 0 m 257
 628 0 l 257
 628 151 l 257
 455 151 l 257
 455 653 l 257
 877 653 l 257
 877 151 l 257
 736 151 l 257
 736 0 l 257
 1220 0 l 257
 1220 151 l 257
 1094 151 l 257
 1094 804 l 257
 455 804 l 257
 455 899 l 258
 455 1108 550 1176 684 1176 c 256
 773 1176 843 1149 879 1122 c 257
 868 1104 862 1084 862 1063 c 256
 862 1002 912 954 983 954 c 256
 1057 954 1107 1006 1107 1069 c 256
 1107 1207 903 1296 686 1296 c 256
 457 1296 236 1196 236 894 c 258
 236 804 l 257
 97 804 l 257
 97 653 l 257
 236 653 l 257
 236 151 l 257
 100 151 l 257
 100 0 l 257
EndSplineSet
EndChar

StartChar: five
Encoding: 53 53 239
Width: 1076
VWidth: 0
Flags: HW
PickledData: "(dp1
S'org.robofab.postScriptHintData'
p2
(dp3
sS'com.typemytype.robofont.layerData'
p4
(dp5
S'b'
(dp6
S'name'
p7
S'five'
p8
sS'lib'
p9
(dp10
sS'unicodes'
p11
(tsS'width'
p12
I1054
sS'contours'
p13
(tsS'components'
p14
(tsS'anchors'
p15
(tsss."
LayerCount: 2
Fore
SplineSet
542 -22 m 256
 817 -22 985 124 985 363 c 256
 985 600 834 744 586 744 c 256
 503 744 413 709 352 652 c 257
 368 988 l 257
 733 988 l 257
 733 836 l 257
 920 836 l 257
 920 1152 l 257
 179 1152 l 257
 156 530 l 257
 324 460 l 257
 389 530 493 563 555 563 c 256
 682 563 758 487 758 362 c 256
 758 234 675 156 538 156 c 256
 409 156 305 216 232 305 c 257
 107 165 l 257
 199 53 342 -22 542 -22 c 256
EndSplineSet
EndChar

StartChar: fj
Encoding: 0 0 240
Width: 1248
VWidth: 0
Flags: HW
PickledData: "(dp1
S'org.robofab.postScriptHintData'
p2
(dp3
sS'com.typemytype.robofont.layerData'
p4
(dp5
S'b'
(dp6
S'name'
p7
S'fj'
p8
sS'lib'
p9
(dp10
sS'unicodes'
p11
(tsS'width'
p12
I1275
sS'contours'
p13
(tsS'components'
p14
(tsS'anchors'
p15
(tsss."
LayerCount: 2
Fore
SplineSet
680 -359 m 257
 779 -359 l 258
 1120 -359 1131 -167 1131 59 c 258
 1131 804 l 257
 455 804 l 257
 455 899 l 258
 455 1108 550 1176 684 1176 c 256
 773 1176 843 1149 879 1122 c 257
 868 1104 862 1084 862 1063 c 256
 862 1002 912 954 983 954 c 256
 1057 954 1107 1006 1107 1069 c 256
 1107 1207 903 1296 686 1296 c 256
 457 1296 236 1196 236 894 c 258
 236 804 l 257
 97 804 l 257
 97 653 l 257
 236 653 l 257
 236 151 l 257
 100 151 l 257
 100 0 l 257
 628 0 l 257
 628 151 l 257
 455 151 l 257
 455 653 l 257
 911 653 l 257
 911 -15 l 258
 911 -143 877 -189 771 -189 c 258
 680 -189 l 257
 680 -359 l 257
EndSplineSet
EndChar

StartChar: fl
Encoding: 384 64258 241
Width: 1283
VWidth: 0
Flags: HW
PickledData: "(dp1
S'org.robofab.postScriptHintData'
p2
(dp3
sS'com.typemytype.robofont.layerData'
p4
(dp5
S'b'
(dp6
S'name'
p7
S'fl'
p8
sS'lib'
p9
(dp10
sS'unicodes'
p11
(tsS'width'
p12
I1274
sS'contours'
p13
(tsS'components'
p14
(tsS'anchors'
p15
(tsss."
LayerCount: 2
Fore
SplineSet
95 0 m 257
 622 0 l 257
 622 151 l 257
 449 151 l 257
 449 653 l 257
 620 653 l 257
 620 804 l 257
 449 804 l 257
 449 951 l 258
 449 1060 593 1107 721 1107 c 256
 802 1107 871 1088 871 1043 c 258
 871 151 l 258
 871 79 924 0 1014 0 c 258
 1236 0 l 257
 1236 151 l 257
 1090 151 l 257
 1090 1108 l 258
 1090 1217 922 1278 734 1278 c 256
 497 1278 230 1185 230 938 c 258
 230 804 l 257
 91 804 l 257
 91 653 l 257
 230 653 l 257
 230 151 l 257
 95 151 l 257
 95 0 l 257
EndSplineSet
EndChar

StartChar: florin
Encoding: 385 402 242
Width: 1142
VWidth: 0
Flags: HW
PickledData: "(dp1
S'org.robofab.postScriptHintData'
p2
(dp3
sS'com.typemytype.robofont.layerData'
p4
(dp5
S'b'
(dp6
S'name'
p7
S'florin'
p8
sS'lib'
p9
(dp10
sS'unicodes'
p11
(tsS'width'
p12
I1142
sS'contours'
p13
(tsS'components'
p14
(tsS'anchors'
p15
(tsss."
LayerCount: 2
Fore
SplineSet
184 -347 m 256
 387 -347 522 -259 580 36 c 258
 704 669 l 257
 913 669 l 257
 934 783 l 257
 724 783 l 257
 756 948 l 257
 780 1078 800 1140 852 1140 c 256
 897 1140 920 1075 920 969 c 257
 1065 969 1108 1027 1108 1102 c 256
 1108 1176 1029 1233 860 1233 c 256
 651 1233 546 1125 508 937 c 258
 477 783 l 257
 316 783 l 257
 296 669 l 257
 457 669 l 257
 336 37 l 258
 296 -171 262 -245 180 -245 c 256
 140 -245 88 -232 60 -222 c 257
 35 -325 l 257
 72 -337 132 -347 184 -347 c 256
EndSplineSet
EndChar

StartChar: foundryicon
Encoding: 386 -1 243
Width: 1347
VWidth: 0
Flags: HW
PickledData: "(dp1
S'org.robofab.postScriptHintData'
p2
(dp3
sS'com.typemytype.robofont.layerData'
p4
(dp5
S'b'
(dp6
S'name'
p7
S'foundryicon'
p8
sS'lib'
p9
(dp10
sS'unicodes'
p11
(tsS'width'
p12
I0
sS'contours'
p13
(tsS'components'
p14
(tsS'anchors'
p15
(tsss."
LayerCount: 2
Fore
SplineSet
485 405 m 257
 485 672 l 257
 591 672 l 257
 761 523 l 257
 761 672 l 257
 867 672 l 257
 867 405 l 257
 761 405 l 257
 591 552 l 257
 591 405 l 257
 485 405 l 257
280 2 m 257
 669 278 l 257
 1066 2 l 257
 922 461 l 257
 1313 755 l 257
 828 755 l 257
 669 1215 l 257
 519 755 l 257
 34 755 l 257
 423 461 l 257
 280 2 l 257
EndSplineSet
EndChar

StartChar: four
Encoding: 52 52 244
Width: 1008
VWidth: 0
Flags: HW
PickledData: "(dp1
S'org.robofab.postScriptHintData'
p2
(dp3
sS'com.typemytype.robofont.layerData'
p4
(dp5
S'b'
(dp6
S'name'
p7
S'four'
p8
sS'lib'
p9
(dp10
sS'unicodes'
p11
(tsS'width'
p12
I973
sS'contours'
p13
(tsS'components'
p14
(tsS'anchors'
p15
(tsss."
LayerCount: 2
Fore
SplineSet
366 0 m 257
 875 0 l 257
 875 152 l 257
 734 152 l 257
 734 342 l 257
 908 342 l 257
 908 488 l 257
 734 488 l 257
 734 1152 l 257
 528 1152 l 257
 35 505 l 257
 56 342 l 257
 529 342 l 257
 529 152 l 257
 366 152 l 257
 366 0 l 257
224 488 m 257
 529 914 l 257
 529 488 l 257
 224 488 l 257
EndSplineSet
EndChar

StartChar: fraction
Encoding: 388 8260 246
Width: 745
VWidth: 0
Flags: HW
PickledData: "(dp1
S'org.robofab.postScriptHintData'
p2
(dp3
sS'com.typemytype.robofont.layerData'
p4
(dp5
S'b'
(dp6
S'name'
p7
S'fraction'
p8
sS'lib'
p9
(dp10
sS'unicodes'
p11
(tsS'width'
p12
I708
sS'contours'
p13
(tsS'components'
p14
(tsS'anchors'
p15
(tsss."
LayerCount: 2
Fore
SplineSet
-108 -58 m 257
 27 -58 l 257
 845 1244 l 257
 712 1244 l 257
 -108 -58 l 257
EndSplineSet
EndChar

StartChar: g
Encoding: 103 103 247
Width: 1080
VWidth: 0
Flags: HW
PickledData: "(dp1
S'org.robofab.postScriptHintData'
p2
(dp3
sS'com.typemytype.robofont.layerData'
p4
(dp5
S'b'
(dp6
S'name'
p7
S'g'
sS'lib'
p8
(dp9
sS'unicodes'
p10
(tsS'width'
p11
I1131
sS'contours'
p12
((dp13
S'points'
p14
((dp15
S'segmentType'
p16
S'curve'
p17
sS'x'
I510
sS'smooth'
p18
I1
sS'y'
S'-333'
p19
s(dp20
S'y'
S'-333'
p21
sS'x'
I722
sg18
I0
s(dp22
S'y'
S'-225'
p23
sS'x'
I880
sg18
I0
s(dp24
g16
S'curve'
p25
sS'x'
I880
sg18
I0
sS'y'
I15
s(dp26
g16
S'line'
p27
sS'x'
I880
sg18
I0
sS'y'
I735
s(dp28
g16
S'line'
p29
sS'x'
I1005
sg18
I0
sS'y'
I735
s(dp30
g16
S'line'
p31
sS'x'
I1005
sg18
I0
sS'y'
I789
s(dp32
g16
S'line'
p33
sS'x'
I804
sg18
I0
sS'y'
I789
s(dp34
g16
S'line'
p35
sS'x'
I804
sg18
I0
sS'y'
I673
s(dp36
S'y'
I673
sS'x'
I804
sg18
I0
s(dp37
S'y'
S'-2'
p38
sS'x'
I804
sg18
I0
s(dp39
g16
S'curve'
p40
sS'x'
I804
sg18
I1
sS'y'
S'-2'
p41
s(dp42
S'y'
S'-173'
p43
sS'x'
I804
sg18
I0
s(dp44
S'y'
S'-271'
p45
sS'x'
I695
sg18
I0
s(dp46
g16
S'curve'
p47
sS'x'
I515
sg18
I1
sS'y'
S'-271'
p48
s(dp49
S'y'
S'-271'
p50
sS'x'
I444
sg18
I0
s(dp51
S'y'
S'-255'
p52
sS'x'
I362
sg18
I0
s(dp53
g16
S'curve'
p54
sS'x'
I272
sg18
I0
sS'y'
S'-224'
p55
s(dp56
g16
S'line'
p57
sS'x'
I257
sg18
I0
sS'y'
S'-289'
p58
s(dp59
S'y'
S'-318'
p60
sS'x'
I345
sg18
I0
s(dp61
S'y'
S'-333'
p62
sS'x'
I431
sg18
I0
stp63
stp64
sS'components'
p65
(tsS'anchors'
p66
(tsss."
AnchorPoint: "top" 521 804 basechar 0
LayerCount: 2
Fore
SplineSet
705.056952529 615.126568435 m 1
 705.686745916 196.313966032 l 1
 644.297442005 166.07417185 580.487558839 150.240234375 523 150.240234375 c 0
 394 150.240234375 289 231.580078125 289 399.16015625 c 0
 289 582.419921875 385 667.6796875 515 667.6796875 c 0
 574.373121492 667.6796875 640.248830707 649.31196901 705.056952529 615.126568435 c 1
483 -392 m 0
 725 -392 926 -292 926 -3 c 2
 926 653 l 1
 1057 653 l 1
 1057 804 l 1
 720 804 l 1
 713.84374137 742.026996454 l 1
 635.834231971 793.509688109 545.261347414 823.5 456 823.5 c 0
 244 823.5 60 681.400390625 60 407 c 0
 60 142.400390625 254 -6.5595703125 473 -6.5595703125 c 0
 555.620403333 -6.5595703125 634.767734168 18.0217635547 705.887283765 62.9562962894 c 1
 706 -12 l 2
 707 -168 617 -223 477 -223 c 0
 393 -223 302 -205 210 -176 c 1
 168 -339 l 1
 268 -372 376 -392 483 -392 c 0
EndSplineSet
EndChar

StartChar: germandbls
Encoding: 223 223 254
Width: 1167
VWidth: 0
Flags: HW
PickledData: "(dp1
S'org.robofab.postScriptHintData'
p2
(dp3
sS'com.typemytype.robofont.layerData'
p4
(dp5
S'b'
(dp6
S'name'
p7
S'germandbls'
p8
sS'lib'
p9
(dp10
sS'unicodes'
p11
(tsS'width'
p12
I1143
sS'contours'
p13
(tsS'components'
p14
(tsS'anchors'
p15
(tsss."
LayerCount: 2
Fore
SplineSet
44 0 m 257
 535 0 l 257
 535 152 l 257
 422 152 l 257
 422 845 l 258
 422 995 504 1090 626 1090 c 256
 724 1090 789 1032 789 936 c 256
 789 818 709 742 577 742 c 257
 577 595 l 257
 763.304990964 593.992945995 876.030966291 509.414141387 876.030966291 373.891778549 c 0
 876.030966291 243.088815544 781.37842166 152 626 152 c 257
 626 0 l 257
 938.244658832 0 1115.01676711 149.316460834 1115.01676711 378.133463504 c 0
 1115.01676711 536.188103806 995.810768439 654.826914603 817 693 c 257
 933 735 1003 837 1003 950 c 256
 1003 1138 860 1258 624 1258 c 256
 352 1258 191 1095 191 838 c 258
 191 152 l 257
 44 152 l 257
 44 0 l 257
EndSplineSet
EndChar

StartChar: grave
Encoding: 96 96 255
Width: 456
VWidth: 0
Flags: HW
PickledData: "(dp1
S'org.robofab.postScriptHintData'
p2
(dp3
sS'com.typemytype.robofont.layerData'
p4
(dp5
S'b'
(dp6
S'name'
p7
S'grave'
p8
sS'lib'
p9
(dp10
sS'unicodes'
p11
(tsS'width'
p12
I407
sS'contours'
p13
(tsS'components'
p14
(tsS'anchors'
p15
(tsss."
AnchorPoint: "top" 288 804 mark 0
LayerCount: 2
Fore
SplineSet
218 962 m 257
 357 962 l 257
 242 1290 l 257
 3 1290 l 257
 218 962 l 257
EndSplineSet
EndChar

StartChar: greater
Encoding: 62 62 256
Width: 1108
VWidth: 0
Flags: HW
PickledData: "(dp1
S'org.robofab.postScriptHintData'
p2
(dp3
sS'com.typemytype.robofont.layerData'
p4
(dp5
S'b'
(dp6
S'name'
p7
S'greater'
p8
sS'lib'
p9
(dp10
sS'unicodes'
p11
(tsS'width'
p12
I1079
sS'contours'
p13
(tsS'components'
p14
(tsS'anchors'
p15
(tsss."
LayerCount: 2
Fore
SplineSet
166 93 m 257
 1086 513 l 257
 1086 678 l 257
 166 1101 l 257
 166 921 l 257
 888 597 l 257
 166 274 l 257
 166 93 l 257
EndSplineSet
EndChar

StartChar: greaterequal
Encoding: 394 8805 257
Width: 1045
VWidth: 0
Flags: HW
PickledData: "(dp1
S'org.robofab.postScriptHintData'
p2
(dp3
sS'com.typemytype.robofont.layerData'
p4
(dp5
S'b'
(dp6
S'name'
p7
S'greaterequal'
p8
sS'lib'
p9
(dp10
sS'unicodes'
p11
(tsS'width'
p12
I1035
sS'contours'
p13
(tsS'components'
p14
(tsS'anchors'
p15
(tsss."
LayerCount: 2
Fore
SplineSet
129 224 m 257
 1008 687 l 257
 1008 777 l 257
 129 1242 l 257
 129 1071 l 257
 776 731 l 257
 129 397 l 257
 129 224 l 257
129 0 m 257
 1008 0 l 257
 1008 156 l 257
 129 156 l 257
 129 0 l 257
EndSplineSet
EndChar

StartChar: guillemotleft
Encoding: 395 171 258
Width: 1013
VWidth: 0
Flags: HW
PickledData: "(dp1
S'org.robofab.postScriptHintData'
p2
(dp3
sS'com.typemytype.robofont.layerData'
p4
(dp5
S'b'
(dp6
S'name'
p7
S'guillemotleft'
p8
sS'lib'
p9
(dp10
sS'unicodes'
p11
(tsS'width'
p12
I954
sS'contours'
p13
(tsS'components'
p14
(tsS'anchors'
p15
(tsss."
LayerCount: 2
Fore
SplineSet
358 136 m 257
 519 136 l 257
 307 554 l 257
 519 973 l 257
 358 973 l 257
 48 553 l 257
 358 136 l 257
809 136 m 257
 970 136 l 257
 758 554 l 257
 970 973 l 257
 809 973 l 257
 499 553 l 257
 809 136 l 257
EndSplineSet
EndChar

StartChar: guillemotright
Encoding: 396 187 259
Width: 1003
VWidth: 0
Flags: HW
PickledData: "(dp1
S'org.robofab.postScriptHintData'
p2
(dp3
sS'com.typemytype.robofont.layerData'
p4
(dp5
S'b'
(dp6
S'name'
p7
S'guillemotright'
p8
sS'lib'
p9
(dp10
sS'unicodes'
p11
(tsS'width'
p12
I954
sS'contours'
p13
(tsS'components'
p14
(tsS'anchors'
p15
(tsss."
LayerCount: 2
Fore
SplineSet
48 136 m 257
 209 136 l 257
 519 555 l 257
 209 973 l 257
 48 973 l 257
 260 555 l 257
 48 136 l 257
499 136 m 257
 660 136 l 257
 970 555 l 257
 660 973 l 257
 499 973 l 257
 711 555 l 257
 499 136 l 257
EndSplineSet
EndChar

StartChar: guilsinglleft
Encoding: 397 8249 260
Width: 669
VWidth: 0
Flags: HW
PickledData: "(dp1
S'org.robofab.postScriptHintData'
p2
(dp3
sS'com.typemytype.robofont.layerData'
p4
(dp5
S'b'
(dp6
S'name'
p7
S'guilsinglleft'
p8
sS'lib'
p9
(dp10
sS'unicodes'
p11
(tsS'width'
p12
I619
sS'contours'
p13
(tsS'components'
p14
(tsS'anchors'
p15
(tsss."
LayerCount: 2
Fore
SplineSet
366 136 m 257
 527 136 l 257
 315 554 l 257
 527 973 l 257
 366 973 l 257
 49 553 l 257
 366 136 l 257
EndSplineSet
EndChar

StartChar: guilsinglright
Encoding: 398 8250 261
Width: 669
VWidth: 0
Flags: HW
PickledData: "(dp1
S'org.robofab.postScriptHintData'
p2
(dp3
sS'com.typemytype.robofont.layerData'
p4
(dp5
S'b'
(dp6
S'name'
p7
S'guilsinglright'
p8
sS'lib'
p9
(dp10
sS'unicodes'
p11
(tsS'width'
p12
I619
sS'contours'
p13
(tsS'components'
p14
(tsS'anchors'
p15
(tsss."
LayerCount: 2
Fore
SplineSet
147 136 m 257
 308 136 l 257
 625 556 l 257
 308 973 l 257
 147 973 l 257
 359 555 l 257
 147 136 l 257
EndSplineSet
EndChar

StartChar: h
Encoding: 104 104 262
Width: 1132
VWidth: 0
Flags: HW
PickledData: "(dp1
S'org.robofab.postScriptHintData'
p2
(dp3
sS'com.typemytype.robofont.layerData'
p4
(dp5
S'b'
(dp6
S'name'
p7
S'h'
sS'lib'
p8
(dp9
sS'unicodes'
p10
(tsS'width'
p11
I1115
sS'contours'
p12
(tsS'components'
p13
(tsS'anchors'
p14
(tsss."
AnchorPoint: "top" 657 1096 basechar 0
LayerCount: 2
Fore
SplineSet
49 0 m 1
 537 0 l 1
 537 151 l 1
 415 151 l 1
 415 574.92109243 l 1
 481.351056488 624.037158325 560.812331525 658 639 658 c 0
 719 658 769 599 769 487 c 2
 769 151 l 1
 657 151 l 1
 657 0 l 1
 1129 0 l 1
 1129 151 l 1
 986 151 l 1
 986 536 l 2
 986 728 858 826 711 826 c 0
 602.84926633 826 505.672994279 778.261091958 415 706.765080144 c 1
 415 1174 l 1
 50 1174 l 1
 50 1023 l 1
 196 1023 l 1
 196 151 l 1
 49 151 l 1
 49 0 l 1
EndSplineSet
EndChar

StartChar: hungarumlaut
Encoding: 401 733 265
Width: 817
VWidth: 0
Flags: HW
PickledData: "(dp1
S'org.robofab.postScriptHintData'
p2
(dp3
sS'com.typemytype.robofont.layerData'
p4
(dp5
S'b'
(dp6
S'name'
p7
S'hungarumlaut'
p8
sS'lib'
p9
(dp10
sS'unicodes'
p11
(tsS'width'
p12
I757
sS'contours'
p13
(tsS'components'
p14
(tsS'anchors'
p15
(tsss."
AnchorPoint: "top" 316 804 mark 0
LayerCount: 2
Fore
SplineSet
105 962 m 257
 243 962 l 257
 458 1290 l 257
 219 1290 l 257
 105 962 l 257
441 962 m 257
 579 962 l 257
 794 1290 l 257
 555 1290 l 257
 441 962 l 257
EndSplineSet
EndChar

StartChar: hyphen
Encoding: 45 45 266
Width: 633
VWidth: 0
Flags: HW
PickledData: "(dp1
S'org.robofab.postScriptHintData'
p2
(dp3
sS'com.typemytype.robofont.layerData'
p4
(dp5
S'b'
(dp6
S'name'
p7
S'hyphen'
p8
sS'lib'
p9
(dp10
sS'unicodes'
p11
(tsS'width'
p12
I782
sS'contours'
p13
(tsS'components'
p14
(tsS'anchors'
p15
(tsss."
LayerCount: 2
Fore
SplineSet
70 365 m 257
 563 365 l 257
 563 522 l 257
 70 522 l 257
 70 365 l 257
EndSplineSet
EndChar

StartChar: i
Encoding: 105 105 267
Width: 620
VWidth: 0
Flags: HW
PickledData: "(dp1
S'org.robofab.postScriptHintData'
p2
(dp3
sS'com.typemytype.robofont.layerData'
p4
(dp5
S'b'
(dp6
S'name'
p7
S'i'
sS'lib'
p8
(dp9
sS'unicodes'
p10
(tsS'width'
p11
I651
sS'contours'
p12
(tsS'components'
p13
(tsS'anchors'
p14
(tsss."
AnchorPoint: "top" 308 804 basechar 0
LayerCount: 2
Fore
SplineSet
93 0 m 1
 577 0 l 1
 577 151 l 1
 451 151 l 1
 451 368.666666667 451 586.333333333 451 804 c 1
 95 804 l 1
 95 653 l 1
 234 653 l 1
 234 151 l 1
 93 151 l 1
 93 0 l 1
327 966 m 0
 412 966 475 1026 475 1106 c 0
 475 1184 412 1244 327 1244 c 0
 245 1244 182 1184 182 1106 c 0
 182 1026 245 966 327 966 c 0
EndSplineSet
EndChar

StartChar: infinity
Encoding: 405 8734 275
Width: 1615
VWidth: 0
Flags: HW
PickledData: "(dp1
S'org.robofab.postScriptHintData'
p2
(dp3
sS'com.typemytype.robofont.layerData'
p4
(dp5
S'b'
(dp6
S'name'
p7
S'infinity'
p8
sS'lib'
p9
(dp10
sS'unicodes'
p11
(tsS'width'
p12
I1599
sS'contours'
p13
(tsS'components'
p14
(tsS'anchors'
p15
(tsss."
LayerCount: 2
Fore
SplineSet
1148 176 m 256
 1347 176 1471 359 1471 566 c 256
 1471 799 1346 957 1150 957 c 256
 1012 957 909 880 823 722 c 257
 731 895 600 963 470 963 c 256
 273 963 143 793 143 572 c 256
 143 329 284 181 470 181 c 256
 593 181 707 265 791 422 c 257
 893 249 1018 176 1148 176 c 256
476 328 m 256
 346 328 287 441 287 570 c 256
 287 710 363 817 472 817 c 256
 575 817 648 736 718 572 c 257
 645 406 566 328 476 328 c 256
1140 322 m 256
 1038 322 964 406 896 566 c 257
 974 733 1044 811 1138 811 c 256
 1252 811 1330 704 1330 568 c 256
 1330 435 1257 322 1140 322 c 256
EndSplineSet
EndChar

StartChar: integral
Encoding: 406 8747 276
Width: 968
VWidth: 0
Flags: HW
PickledData: "(dp1
S'org.robofab.postScriptHintData'
p2
(dp3
sS'com.typemytype.robofont.layerData'
p4
(dp5
S'b'
(dp6
S'name'
p7
S'integral'
p8
sS'lib'
p9
(dp10
sS'unicodes'
p11
(tsS'width'
p12
I953
sS'contours'
p13
(tsS'components'
p14
(tsS'anchors'
p15
(tsss."
LayerCount: 2
Fore
SplineSet
272 -336 m 256
 602 -336 612 70 612 424 c 256
 612 593 582 805 582 916 c 256
 582 1084 609 1134 658 1134 c 256
 704 1134 731 1080 731 978 c 257
 874 978 915 1037 915 1098 c 256
 915 1170 841 1224 696 1224 c 256
 364 1224 346 846 346 547 c 256
 346 390 387 132 387 -27 c 256
 387 -199 353 -246 311 -246 c 256
 265 -246 232 -207 232 -83 c 257
 88 -83 48 -141 48 -199 c 256
 48 -273 115 -336 272 -336 c 256
EndSplineSet
EndChar

StartChar: j
Encoding: 106 106 279
Width: 569
VWidth: 0
Flags: HW
PickledData: "(dp1
S'org.robofab.postScriptHintData'
p2
(dp3
sS'com.typemytype.robofont.layerData'
p4
(dp5
S'b'
(dp6
S'name'
p7
S'j'
sS'lib'
p8
(dp9
sS'unicodes'
p10
(tsS'width'
p11
I594
sS'contours'
p12
(tsS'components'
p13
(tsS'anchors'
p14
(tsss."
LayerCount: 2
Fore
SplineSet
1 -343 m 1
 99 -343 l 2
 440 -343 451 -151 451 76 c 2
 451 804 l 1
 67 804 l 1
 67 653 l 1
 231 653 l 1
 231 2 l 2
 231 -127 197 -172 92 -172 c 2
 1 -172 l 1
 1 -343 l 1
305 966 m 0
 390 966 453 1026 453 1106 c 0
 453 1184 390 1244 305 1244 c 0
 223 1244 160 1184 160 1106 c 0
 160 1026 223 966 305 966 c 0
EndSplineSet
EndChar

StartChar: k
Encoding: 107 107 281
Width: 1073
VWidth: 0
Flags: HW
PickledData: "(dp1
S'org.robofab.postScriptHintData'
p2
(dp3
sS'com.typemytype.robofont.guides'
p4
((dp5
S'y'
I421
sS'x'
I474
sS'magnetic'
p6
I5
sS'angle'
p7
I0
sS'isGlobal'
p8
I0
stp9
sS'com.typemytype.robofont.layerData'
p10
(dp11
S'b'
(dp12
S'name'
p13
S'k'
sS'lib'
p14
(dp15
sS'unicodes'
p16
(tsS'width'
p17
I1106
sS'contours'
p18
(tsS'components'
p19
(tsS'anchors'
p20
(tsss."
AnchorPoint: "top" 777 953 basechar 0
LayerCount: 2
Fore
SplineSet
779 0 m 1
 1044 0 l 1
 1044 152 l 1
 894 152 l 1
 637 424 l 1
 921 653 l 1
 1033 653 l 1
 1033 804 l 1
 568 804 l 1
 568 653 l 1
 711 653 l 1
 415 427.476190476 l 1
 415 1174 l 1
 50 1174 l 1
 50 1023 l 1
 196 1023 l 1
 196 151 l 1
 49 151 l 1
 49 0 l 1
 537 0 l 1
 537 151 l 1
 415 151 l 1
 415 392.511749347 l 1
 779 0 l 1
EndSplineSet
EndChar

StartChar: kcommaaccent
Encoding: 410 311 282
Width: 1073
VWidth: 0
Flags: HW
PickledData: "(dp1
S'org.robofab.postScriptHintData'
p2
(dp3
sS'com.typemytype.robofont.layerData'
p4
(dp5
S'b'
(dp6
S'name'
p7
S'kcommaaccent'
p8
sS'lib'
p9
(dp10
sS'unicodes'
p11
(tsS'width'
p12
I1172
sS'contours'
p13
(tsS'components'
p14
(tsS'anchors'
p15
(tsss."
LayerCount: 2
Fore
SplineSet
445 -550 m 257
 618 -550 708 -473 707 -331 c 257
 707 -99 l 257
 445 -99 l 257
 445 -321 l 257
 580 -321 l 257
 580 -401 535 -435 445 -450 c 257
 445 -550 l 257
EndSplineSet
Refer: 281 107 N 1 0 0 1 0 0 2
EndChar

StartChar: kgreenlandic
Encoding: 411 312 283
Width: 1160
VWidth: 0
Flags: HW
PickledData: "(dp1
S'org.robofab.postScriptHintData'
p2
(dp3
sS'com.typemytype.robofont.layerData'
p4
(dp5
S'b'
(dp6
S'name'
p7
S'kgreenlandic'
p8
sS'lib'
p9
(dp10
sS'unicodes'
p11
(tsS'width'
p12
I1129
sS'contours'
p13
(tsS'components'
p14
(tsS'anchors'
p15
(tsss."
LayerCount: 2
Fore
SplineSet
90 0 m 257
 568 0 l 257
 568 152 l 257
 456 152 l 257
 456 385 l 257
 763 152 l 257
 684 152 l 257
 684 0 l 257
 1140 0 l 257
 1140 152 l 257
 1002 152 l 257
 680 398 l 257
 987 653 l 257
 1126 653 l 257
 1126 804 l 257
 623 804 l 257
 623 653 l 257
 753 653 l 257
 456 404 l 257
 456 804 l 257
 88 804 l 257
 88 653 l 257
 240 653 l 257
 240 152 l 257
 90 152 l 257
 90 0 l 257
EndSplineSet
EndChar

StartChar: l
Encoding: 108 108 284
Width: 586
VWidth: 0
Flags: HW
PickledData: "(dp1
S'org.robofab.postScriptHintData'
p2
(dp3
sS'com.typemytype.robofont.layerData'
p4
(dp5
S'b'
(dp6
S'name'
p7
S'l'
sS'lib'
p8
(dp9
sS'unicodes'
p10
(tsS'width'
p11
I603
sS'contours'
p12
(tsS'components'
p13
(tsS'anchors'
p14
(tsss."
AnchorPoint: "caron.alt" 525 822 basechar 0
AnchorPoint: "top" 307 1152 basechar 0
LayerCount: 2
Fore
SplineSet
54 0 m 1
 542 0 l 1
 542 151 l 1
 420 151 l 1
 420 1174 l 1
 55 1174 l 1
 55 1023 l 1
 201 1023 l 1
 201 151 l 1
 54 151 l 1
 54 0 l 1
EndSplineSet
EndChar

StartChar: lcommaaccent
Encoding: 414 316 287
Width: 586
VWidth: 0
Flags: HW
PickledData: "(dp1
S'org.robofab.postScriptHintData'
p2
(dp3
sS'com.typemytype.robofont.layerData'
p4
(dp5
S'b'
(dp6
S'name'
p7
S'lcommaaccent'
p8
sS'lib'
p9
(dp10
sS'unicodes'
p11
(tsS'width'
p12
I689
sS'contours'
p13
(tsS'components'
p14
(tsS'anchors'
p15
(tsss."
LayerCount: 2
Fore
SplineSet
179 -550 m 257
 352 -550 442 -473 441 -331 c 257
 441 -99 l 257
 179 -99 l 257
 179 -321 l 257
 314 -321 l 257
 314 -401 269 -435 179 -450 c 257
 179 -550 l 257
EndSplineSet
Refer: 284 108 N 1 0 0 1 0 0 2
EndChar

StartChar: less
Encoding: 60 60 289
Width: 1107
VWidth: 0
Flags: HW
PickledData: "(dp1
S'org.robofab.postScriptHintData'
p2
(dp3
sS'com.typemytype.robofont.layerData'
p4
(dp5
S'b'
(dp6
S'name'
p7
S'less'
p8
sS'lib'
p9
(dp10
sS'unicodes'
p11
(tsS'width'
p12
I1077
sS'contours'
p13
(tsS'components'
p14
(tsS'anchors'
p15
(tsss."
LayerCount: 2
Fore
SplineSet
943 93 m 257
 943 274 l 257
 220 597 l 257
 943 921 l 257
 943 1101 l 257
 22 678 l 257
 22 513 l 257
 943 93 l 257
EndSplineSet
EndChar

StartChar: lessequal
Encoding: 416 8804 290
Width: 1044
VWidth: 0
Flags: HW
PickledData: "(dp1
S'org.robofab.postScriptHintData'
p2
(dp3
sS'com.typemytype.robofont.layerData'
p4
(dp5
S'b'
(dp6
S'name'
p7
S'lessequal'
p8
sS'lib'
p9
(dp10
sS'unicodes'
p11
(tsS'width'
p12
I1034
sS'contours'
p13
(tsS'components'
p14
(tsS'anchors'
p15
(tsss."
LayerCount: 2
Fore
SplineSet
919 224 m 257
 919 397 l 257
 271 731 l 257
 919 1071 l 257
 919 1242 l 257
 40 777 l 257
 40 687 l 257
 919 224 l 257
40 0 m 257
 919 0 l 257
 919 156 l 257
 40 156 l 257
 40 0 l 257
EndSplineSet
EndChar

StartChar: logicalnot
Encoding: 418 172 292
Width: 1126
VWidth: 0
Flags: HW
PickledData: "(dp1
S'org.robofab.postScriptHintData'
p2
(dp3
sS'com.typemytype.robofont.layerData'
p4
(dp5
S'b'
(dp6
S'name'
p7
S'logicalnot'
p8
sS'lib'
p9
(dp10
sS'unicodes'
p11
(tsS'width'
p12
I1122
sS'contours'
p13
(tsS'components'
p14
(tsS'anchors'
p15
(tsss."
LayerCount: 2
Fore
SplineSet
825 321 m 257
 953 321 l 257
 953 854 l 257
 37 854 l 257
 37 702 l 257
 825 702 l 257
 825 321 l 257
EndSplineSet
EndChar

StartChar: lozenge
Encoding: 419 9674 293
Width: 1136
VWidth: 0
Flags: HW
PickledData: "(dp1
S'org.robofab.postScriptHintData'
p2
(dp3
sS'com.typemytype.robofont.layerData'
p4
(dp5
S'b'
(dp6
S'name'
p7
S'lozenge'
p8
sS'lib'
p9
(dp10
sS'unicodes'
p11
(tsS'width'
p12
I1136
sS'contours'
p13
(tsS'components'
p14
(tsS'anchors'
p15
(tsss."
LayerCount: 2
Fore
SplineSet
521 0 m 257
 615 0 l 257
 1094 595 l 257
 615 1178 l 257
 521 1178 l 257
 42 595 l 257
 521 0 l 257
570 166 m 257
 239 595 l 257
 570 1006 l 257
 897 595 l 257
 570 166 l 257
EndSplineSet
EndChar

StartChar: lslash
Encoding: 420 322 294
Width: 557
VWidth: 0
Flags: HW
PickledData: "(dp1
S'org.robofab.postScriptHintData'
p2
(dp3
sS'com.typemytype.robofont.layerData'
p4
(dp5
S'b'
(dp6
S'name'
p7
S'lslash'
p8
sS'lib'
p9
(dp10
sS'unicodes'
p11
(tsS'width'
p12
I709
sS'contours'
p13
(tsS'components'
p14
(tsS'anchors'
p15
(tsss."
LayerCount: 2
Fore
SplineSet
42 365 m 257
 564 622 l 257
 564 801 l 257
 42 538 l 257
 42 365 l 257
EndSplineSet
Refer: 284 108 N 1 0 0 1 0 0 2
EndChar

StartChar: m
Encoding: 109 109 295
Width: 1682
VWidth: 0
Flags: HW
PickledData: "(dp1
S'org.robofab.postScriptHintData'
p2
(dp3
sS'com.typemytype.robofont.layerData'
p4
(dp5
S'b'
(dp6
S'name'
p7
S'm'
sS'lib'
p8
(dp9
sS'unicodes'
p10
(tsS'width'
p11
I1630
sS'contours'
p12
(tsS'components'
p13
(tsS'anchors'
p14
(tsss."
AnchorPoint: "top" 897 804 basechar 0
LayerCount: 2
Fore
SplineSet
48.3056640625 0 m 1
 536.952148438 0 l 1
 536.952148438 151 l 1
 409.7421875 151 l 1
 409.7421875 590.748977938 l 1
 471.72675691 631.184128476 542.884594383 658 613.02734375 658 c 0
 693.794921875 658 744.275390625 599 744.275390625 487 c 2
 744.275390625 151 l 1
 631.200195312 151 l 1
 631.200195312 0 l 1
 1107.73144531 0 l 1
 1107.73144531 151 l 1
 963.358398438 151 l 1
 963.358398438 536 l 2
 963.358398438 550.793949269 962.591170959 565.029822153 961.107057085 578.705788829 c 1
 1027.01858778 625.773285596 1105.13292085 658 1182.02734375 658 c 0
 1262.79492188 658 1313.27539062 599 1313.27539062 487 c 2
 1313.27539062 151 l 1
 1200.20019531 151 l 1
 1200.20019531 0 l 1
 1676.73144531 0 l 1
 1676.73144531 151 l 1
 1532.35839844 151 l 1
 1532.35839844 536 l 2
 1532.35839844 728 1403.12988281 826 1254.71875 826 c 0
 1135.22202618 826 1028.99655124 768.822854251 930.12441871 685.903083284 c 1
 882.362131839 778.856153641 788.654432539 826 685.71875 826 c 0
 585.565494408 826 494.734686148 785.835661671 409.7421875 724.013901187 c 1
 409.7421875 804 l 1
 50.3251953125 804 l 1
 50.3251953125 653 l 1
 190.659179688 653 l 1
 190.659179688 151 l 1
 48.3056640625 151 l 1
 48.3056640625 0 l 1
EndSplineSet
EndChar

StartChar: macron
Encoding: 421 175 296
Width: 446
VWidth: 0
Flags: HW
PickledData: "(dp1
S'org.robofab.postScriptHintData'
p2
(dp3
sS'com.typemytype.robofont.layerData'
p4
(dp5
S'b'
(dp6
S'name'
p7
S'macron'
p8
sS'lib'
p9
(dp10
sS'unicodes'
p11
(tsS'width'
p12
I390
sS'contours'
p13
(tsS'components'
p14
(tsS'anchors'
p15
(tsss."
AnchorPoint: "top" 234 804 mark 0
LayerCount: 2
Fore
SplineSet
-12 956 m 257
 456 956 l 257
 456 1079 l 257
 -12 1079 l 257
 -12 956 l 257
EndSplineSet
EndChar

StartChar: minus
Encoding: 422 8722 298
Width: 928
VWidth: 0
Flags: HW
PickledData: "(dp1
S'org.robofab.postScriptHintData'
p2
(dp3
sS'com.typemytype.robofont.layerData'
p4
(dp5
S'b'
(dp6
S'name'
p7
S'minus'
p8
sS'lib'
p9
(dp10
sS'unicodes'
p11
(tsS'width'
p12
I930
sS'contours'
p13
(tsS'components'
p14
(tsS'anchors'
p15
(tsss."
LayerCount: 2
Fore
SplineSet
88 422 m 257
 841 422 l 257
 841 574 l 257
 88 574 l 257
 88 422 l 257
EndSplineSet
EndChar

StartChar: mu
Encoding: 423 956 299
Width: 1081
VWidth: 0
Flags: HW
PickledData: "(dp1
S'org.robofab.postScriptHintData'
p2
(dp3
s."
LayerCount: 2
Fore
SplineSet
139 -262 m 257
 357 -262 l 257
 357 418 l 257
 139 418 l 257
 139 -262 l 257
EndSplineSet
Refer: 392 117 N 1 0 0 1 0 0 2
EndChar

StartChar: multiply
Encoding: 424 215 300
Width: 1009
VWidth: 0
Flags: HW
PickledData: "(dp1
S'org.robofab.postScriptHintData'
p2
(dp3
sS'com.typemytype.robofont.layerData'
p4
(dp5
S'b'
(dp6
S'name'
p7
S'multiply'
p8
sS'lib'
p9
(dp10
sS'unicodes'
p11
(tsS'width'
p12
I929
sS'contours'
p13
(tsS'components'
p14
(tsS'anchors'
p15
(tsss."
LayerCount: 2
Fore
SplineSet
226 128 m 257
 502 399 l 257
 775 133 l 257
 878 235 l 257
 606 501 l 257
 883 773 l 257
 784 874 l 257
 505 602 l 257
 234 869 l 257
 131 766 l 257
 403 498 l 257
 126 228 l 257
 226 128 l 257
EndSplineSet
EndChar

StartChar: n
Encoding: 110 110 301
Width: 1105
VWidth: 0
Flags: HW
PickledData: "(dp1
S'org.robofab.postScriptHintData'
p2
(dp3
sS'com.typemytype.robofont.layerData'
p4
(dp5
S'b'
(dp6
S'name'
p7
S'n'
sS'lib'
p8
(dp9
sS'unicodes'
p10
(tsS'width'
p11
I1085
sS'contours'
p12
(tsS'components'
p13
(tsS'anchors'
p14
(tsss."
AnchorPoint: "top" 596 804 basechar 0
LayerCount: 2
Fore
SplineSet
49 0 m 1
 533 0 l 1
 533 151 l 1
 407 151 l 1
 407 588.32325423 l 1
 469.242654381 630.108164723 541.144299102 658 612 658 c 0
 692 658 742 599 742 487 c 2
 742 151 l 1
 630 151 l 1
 630 0 l 1
 1102 0 l 1
 1102 151 l 1
 959 151 l 1
 959 536 l 2
 959 728 831 826 684 826 c 0
 583.365326056 826 492.232751569 784.665867368 407 721.318903526 c 1
 407 804 l 1
 51 804 l 1
 51 653 l 1
 190 653 l 1
 190 151 l 1
 49 151 l 1
 49 0 l 1
EndSplineSet
EndChar

StartChar: ncommaaccent
Encoding: 428 326 305
Width: 1105
VWidth: 0
Flags: HW
PickledData: "(dp1
S'org.robofab.postScriptHintData'
p2
(dp3
sS'com.typemytype.robofont.layerData'
p4
(dp5
S'b'
(dp6
S'name'
p7
S'ncommaaccent'
p8
sS'lib'
p9
(dp10
sS'unicodes'
p11
(tsS'width'
p12
I1127
sS'contours'
p13
(tsS'components'
p14
(tsS'anchors'
p15
(tsss."
LayerCount: 2
Fore
SplineSet
469 -550 m 257
 642 -550 732 -473 731 -331 c 257
 731 -99 l 257
 469 -99 l 257
 469 -321 l 257
 604 -321 l 257
 604 -401 559 -435 469 -450 c 257
 469 -550 l 257
EndSplineSet
Refer: 301 110 N 1 0 0 1 0 0 2
EndChar

StartChar: nine
Encoding: 57 57 306
Width: 1021
VWidth: 0
Flags: HW
PickledData: "(dp1
S'org.robofab.postScriptHintData'
p2
(dp3
sS'com.typemytype.robofont.layerData'
p4
(dp5
S'b'
(dp6
S'name'
p7
S'nine'
p8
sS'lib'
p9
(dp10
sS'unicodes'
p11
(tsS'width'
p12
I988
sS'contours'
p13
(tsS'components'
p14
(tsS'anchors'
p15
(tsss."
LayerCount: 2
Fore
SplineSet
457 -115 m 257
 810 370 l 257
 933 534 945 652 945 776 c 256
 945 1011 766 1174 505 1174 c 256
 244 1174 83 1012 83 754 c 256
 83 540 257 390 450 390 c 256
 586 390 655 466 656 477 c 257
 290 7 l 257
 457 -115 l 257
490 544 m 256
 362 544 291 636 291 768 c 256
 291 912 370 1011 499 1011 c 256
 652 1011 717 905 717 771 c 256
 717 628 617 544 490 544 c 256
EndSplineSet
EndChar

StartChar: notequal
Encoding: 430 8800 308
Width: 1145
VWidth: 0
Flags: HW
PickledData: "(dp1
S'org.robofab.postScriptHintData'
p2
(dp3
sS'com.typemytype.robofont.layerData'
p4
(dp5
S'b'
(dp6
S'name'
p7
S'notequal'
p8
sS'lib'
p9
(dp10
sS'unicodes'
p11
(tsS'width'
p12
I1145
sS'contours'
p13
(tsS'components'
p14
(tsS'anchors'
p15
(tsss."
LayerCount: 2
Fore
SplineSet
370 0 m 257
 525 0 l 257
 577 207 l 257
 1018 207 l 257
 1018 360 l 257
 617 360 l 257
 680 602 l 257
 1018 602 l 257
 1018 755 l 257
 720 755 l 257
 773 962 l 257
 620 962 l 257
 564 755 l 257
 127 755 l 257
 127 602 l 257
 524 602 l 257
 461 360 l 257
 127 360 l 257
 127 207 l 257
 421 207 l 257
 370 0 l 257
EndSplineSet
EndChar

StartChar: numbersign
Encoding: 35 35 310
Width: 1244
VWidth: 0
Flags: HW
PickledData: "(dp1
S'org.robofab.postScriptHintData'
p2
(dp3
sS'com.typemytype.robofont.layerData'
p4
(dp5
S'b'
(dp6
S'name'
p7
S'numbersign'
p8
sS'lib'
p9
(dp10
sS'unicodes'
p11
(tsS'width'
p12
I1226
sS'contours'
p13
(tsS'components'
p14
(tsS'anchors'
p15
(tsss."
LayerCount: 2
Fore
SplineSet
196 -9 m 257
 356 -9 l 257
 415 328 l 257
 719 328 l 257
 661 -9 l 257
 822 -9 l 257
 881 328 l 257
 1142 328 l 257
 1147 469 l 257
 910 469 l 257
 958 751 l 257
 1168 751 l 257
 1173 893 l 257
 986 893 l 257
 1046 1225 l 257
 883 1225 l 257
 824 893 l 257
 523 893 l 257
 581 1225 l 257
 419 1225 l 257
 361 893 l 257
 109 893 l 257
 103 751 l 257
 331 751 l 257
 283 469 l 257
 82 469 l 257
 76 328 l 257
 254 328 l 257
 196 -9 l 257
444 469 m 257
 492 751 l 257
 795 751 l 257
 747 469 l 257
 444 469 l 257
EndSplineSet
EndChar

StartChar: o
Encoding: 111 111 311
Width: 985
VWidth: 0
Flags: HW
PickledData: "(dp1
S'org.robofab.postScriptHintData'
p2
(dp3
sS'com.typemytype.robofont.layerData'
p4
(dp5
S'b'
(dp6
S'name'
p7
S'o'
sS'lib'
p8
(dp9
sS'unicodes'
p10
(tsS'width'
p11
I1004
sS'contours'
p12
(tsS'components'
p13
(tsS'anchors'
p14
(tsss."
AnchorPoint: "top" 488 808 basechar 0
LayerCount: 2
Fore
SplineSet
492 143 m 0
 491.402889713 142.995406844 490.806602213 142.99311327 490.211142538 142.99311327 c 0
 361.165965433 142.99311327 271 250.711939188 271 405 c 0
 271 555 362 661 491 661 c 0
 622 661 713 556 713 406 c 0
 713 251.705479557 622.82648439 142.993175796 493.772648922 142.993175796 c 0
 493.18257714 142.993175796 492.591692532 142.995448519 492 143 c 0
491 -22 m 0
 755 -22 940 154 940 406 c 0
 940 653 756 826 493 826 c 0
 230 826 46 653 46 406 c 0
 46 154 229 -22 491 -22 c 0
EndSplineSet
EndChar

StartChar: oe
Encoding: 432 339 316
Width: 1677
VWidth: 0
Flags: HW
PickledData: "(dp1
S'org.robofab.postScriptHintData'
p2
(dp3
sS'com.typemytype.robofont.layerData'
p4
(dp5
S'b'
(dp6
S'name'
p7
S'oe'
p8
sS'lib'
p9
(dp10
sS'unicodes'
p11
(tsS'width'
p12
I1695
sS'contours'
p13
(tsS'components'
p14
(tsS'anchors'
p15
(tsss."
LayerCount: 2
Fore
SplineSet
518 -22 m 256
 667 -22 780 43 850 136 c 257
 921 42 1040 -22 1200 -22 c 256
 1360 -22 1488 31 1563 121 c 257
 1463 231 l 257
 1396 169 1301 133 1213 133 c 256
 1055 133 969 225 960 360 c 257
 1575 360 l 257
 1575 624 1451 826 1185 826 c 256
 1043 826 927 765 852 663 c 257
 779 766 660 826 521 826 c 256
 263 826 84 649 84 402 c 256
 84 156 256 -22 518 -22 c 256
520 136 m 256
 384 136 299 244 299 402 c 256
 299 556 382 664 520 664 c 256
 657 664 741 556 741 402 c 256
 741 244 656 136 520 136 c 256
963 478 m 257
 983 599 1056 677 1187 677 c 256
 1310 677 1365 594 1379 478 c 257
 963 478 l 257
EndSplineSet
EndChar

StartChar: ogonek
Encoding: 433 731 317
Width: 442
VWidth: 0
Flags: HW
PickledData: "(dp1
S'org.robofab.postScriptHintData'
p2
(dp3
sS'com.typemytype.robofont.layerData'
p4
(dp5
S'b'
(dp6
S'name'
p7
S'ogonek'
p8
sS'lib'
p9
(dp10
sS'unicodes'
p11
(tsS'width'
p12
I487
sS'contours'
p13
(tsS'components'
p14
(tsS'anchors'
p15
(tsss."
LayerCount: 2
Fore
SplineSet
285 -362 m 256
 332 -362 367 -352 424 -325 c 257
 424 -215 l 257
 393 -229 369 -234 340 -234 c 256
 272 -234 237 -196 237 -126 c 256
 237 -85 248 -40 284 9 c 257
 170 9 l 257
 118 -68 103 -129 103 -185 c 256
 103 -289 178 -362 285 -362 c 256
EndSplineSet
EndChar

StartChar: one
Encoding: 49 49 321
Width: 797
VWidth: 0
Flags: HW
PickledData: "(dp1
S'org.robofab.postScriptHintData'
p2
(dp3
sS'com.typemytype.robofont.layerData'
p4
(dp5
S'b'
(dp6
S'name'
p7
S'one'
p8
sS'lib'
p9
(dp10
sS'unicodes'
p11
(tsS'width'
p12
I722
sS'contours'
p13
(tsS'components'
p14
(tsS'anchors'
p15
(tsss."
LayerCount: 2
Fore
SplineSet
140 0 m 257
 713 0 l 257
 713 152 l 257
 543 152 l 257
 543 1152 l 257
 130 1100 l 257
 130 949 l 257
 320 972 l 257
 320 152 l 257
 140 152 l 257
 140 0 l 257
EndSplineSet
EndChar

StartChar: onehalf
Encoding: 436 189 322
Width: 2158
VWidth: 0
Flags: HW
PickledData: "(dp1
S'org.robofab.postScriptHintData'
p2
(dp3
sS'com.typemytype.robofont.layerData'
p4
(dp5
S'b'
(dp6
S'name'
p7
S'onehalf'
p8
sS'lib'
p9
(dp10
sS'unicodes'
p11
(tsS'width'
p12
I1910
sS'contours'
p13
(tsS'components'
p14
(tsS'anchors'
p15
(tsss."
LayerCount: 2
Fore
SplineSet
1392 0 m 257
 1988 0 l 257
 1985 260 l 257
 1867 260 l 257
 1867 105 l 257
 1575 105 l 257
 1769 288 l 258
 1864 378 1968 476 1968 589 c 256
 1968 746 1853 834 1681 834 c 256
 1484 834 1376 722 1376 579 c 256
 1376 545 1382 509 1395 474 c 257
 1531 474 l 257
 1524 504 1520 533 1520 558 c 256
 1520 660 1577 719 1682 719 c 256
 1780.08390608 719 1815.14412385 657.423209843 1815.14412385 583.274283256 c 0
 1815.14412385 519.288311681 1737.2627599 444.311016566 1667 376 c 258
 1392 112 l 257
 1392 0 l 257
222 334 m 257
 628 334 l 257
 628 442 l 257
 508 442 l 257
 508 1152 l 257
 214 1115 l 257
 214 1008 l 257
 349 1025 l 257
 349 442 l 257
 222 442 l 257
 222 334 l 257
587 -56 m 257
 723 -56 l 257
 1540 1246 l 257
 1407 1246 l 257
 587 -56 l 257
EndSplineSet
EndChar

StartChar: onequarter
Encoding: 437 188 323
Width: 2119
VWidth: 0
Flags: HW
PickledData: "(dp1
S'org.robofab.postScriptHintData'
p2
(dp3
sS'com.typemytype.robofont.layerData'
p4
(dp5
S'b'
(dp6
S'name'
p7
S'onequarter'
p8
sS'lib'
p9
(dp10
sS'unicodes'
p11
(tsS'width'
p12
I1825
sS'contours'
p13
(tsS'components'
p14
(tsS'anchors'
p15
(tsss."
LayerCount: 2
Fore
SplineSet
1517 0 m 257
 1879 0 l 257
 1879 108 l 257
 1779 108 l 257
 1779 243 l 257
 1903 243 l 257
 1903 345 l 257
 1779 345 l 257
 1779 818 l 257
 1634 818 l 257
 1283 359 l 257
 1298 243 l 257
 1633 243 l 257
 1633 108 l 257
 1517 108 l 257
 1517 0 l 257
222 334 m 257
 628 334 l 257
 628 442 l 257
 508 442 l 257
 508 1152 l 257
 214 1115 l 257
 214 1008 l 257
 349 1025 l 257
 349 442 l 257
 222 442 l 257
 222 334 l 257
586 -56 m 257
 722 -56 l 257
 1539 1246 l 257
 1406 1246 l 257
 586 -56 l 257
1405 345 m 257
 1633 649 l 257
 1633 345 l 257
 1405 345 l 257
EndSplineSet
EndChar

StartChar: ordfeminine
Encoding: 439 170 325
Width: 816
VWidth: 0
Flags: HW
PickledData: "(dp1
S'org.robofab.postScriptHintData'
p2
(dp3
sS'com.typemytype.robofont.layerData'
p4
(dp5
S'b'
(dp6
S'name'
p7
S'ordfeminine'
p8
sS'lib'
p9
(dp10
sS'unicodes'
p11
(tsS'width'
p12
I743
sS'contours'
p13
(tsS'components'
p14
(tsS'anchors'
p15
(tsss."
LayerCount: 2
Fore
SplineSet
315 468 m 256
 408 468 471 493 530 541 c 257
 540 486 l 257
 801 486 l 257
 801 609 l 257
 697 609 l 257
 697 927 l 258
 697 1095 562 1174 393 1174 c 256
 298 1174 178 1147 99 1091 c 257
 152 978 l 257
 231 1023 326 1043 381 1043 c 256
 467 1043 517 1000 517 916 c 258
 517 867 l 257
 466 877 418 883 368 883 c 256
 214 883 79 825 79 670 c 256
 79 555 174 468 315 468 c 256
349 583 m 256
 288 583 250 621 250 677 c 256
 250 762 318 783 385 783 c 256
 447 783 489 775 517 766 c 257
 517 646 l 257
 468 606 406 583 349 583 c 256
EndSplineSet
EndChar

StartChar: ordmasculine
Encoding: 440 186 326
Width: 961
VWidth: 0
Flags: HW
PickledData: "(dp1
S'org.robofab.postScriptHintData'
p2
(dp3
sS'com.typemytype.robofont.layerData'
p4
(dp5
S'b'
(dp6
S'name'
p7
S'ordmasculine'
p8
sS'lib'
p9
(dp10
sS'unicodes'
p11
(tsS'width'
p12
I813
sS'contours'
p13
(tsS'components'
p14
(tsS'anchors'
p15
(tsss."
LayerCount: 2
Fore
SplineSet
483 605 m 256
 375 605 299 694 299 824 c 256
 299 949 375 1037 482 1037 c 256
 591 1037 667 950 667 824 c 256
 667 695 591 605 483 605 c 256
482 468 m 256
 702 468 856 614 856 825 c 256
 856 1030 703 1174 484 1174 c 256
 264 1174 111 1030 111 825 c 256
 111 614 263 468 482 468 c 256
EndSplineSet
EndChar

StartChar: oslash
Encoding: 248 248 327
Width: 986
VWidth: 0
Flags: HW
PickledData: "(dp1
S'org.robofab.postScriptHintData'
p2
(dp3
sS'com.typemytype.robofont.layerData'
p4
(dp5
S'b'
(dp6
S'name'
p7
S'oslash'
p8
sS'lib'
p9
(dp10
sS'unicodes'
p11
(tsS'width'
p12
I1064
sS'contours'
p13
(tsS'components'
p14
(tsS'anchors'
p15
(tsss."
LayerCount: 2
Fore
SplineSet
284 -120 m 257
 801 889 l 257
 707 932 l 257
 190 -77 l 257
 284 -120 l 257
EndSplineSet
Refer: 311 111 N 1 0 0 1 0 0 2
EndChar

StartChar: p
Encoding: 112 112 330
Width: 1069
VWidth: 0
Flags: HW
PickledData: "(dp1
S'org.robofab.postScriptHintData'
p2
(dp3
sS'com.typemytype.robofont.layerData'
p4
(dp5
S'b'
(dp6
S'name'
p7
S'p'
sS'lib'
p8
(dp9
sS'unicodes'
p10
(tsS'width'
p11
I1097
sS'contours'
p12
(tsS'components'
p13
(tsS'anchors'
p14
(tsss."
AnchorPoint: "top" 571 804 basechar 0
LayerCount: 2
Fore
SplineSet
389 179.129487926 m 1
 389 601 l 1
 388.570878723 609.711161915 l 1
 441.834041509 643.568168778 554.375519568 665.710873358 562.854101941 665.710873358 c 1
 562.639491741 665.624901151 562.355577563 665.113357377 562 665 c 1
 696 665 791 565 791 402 c 0
 791 221 681 133 551 133 c 0
 499.186922909 133 443.213832971 147.560044966 389 179.129487926 c 1
25 -332 m 1
 559 -332 l 1
 559 -180 l 1
 389 -180 l 1
 389 45.736609365 l 1
 455.659302034 0.74879010384 587.602986988 -14.5092540955 609 -21 c 1
 815 -21 1020 134 1020 416 c 0
 1020 680 844 825 636 825 c 0
 550.358933326 825 462.113940392 798.092761973 381.8433697 746.279595094 c 1
 379 804 l 1
 25 804 l 1
 25 653 l 1
 172 653 l 1
 172 -180 l 1
 25 -180 l 1
 25 -332 l 1
EndSplineSet
EndChar

StartChar: paragraph
Encoding: 182 182 331
Width: 1161
VWidth: 0
Flags: HW
PickledData: "(dp1
S'org.robofab.postScriptHintData'
p2
(dp3
sS'com.typemytype.robofont.layerData'
p4
(dp5
S'b'
(dp6
S'name'
p7
S'paragraph'
p8
sS'lib'
p9
(dp10
sS'unicodes'
p11
(tsS'width'
p12
I1096
sS'contours'
p13
(tsS'components'
p14
(tsS'anchors'
p15
(tsss."
LayerCount: 2
Fore
SplineSet
492 0 m 257
 1105 0 l 257
 1105 153 l 257
 950 153 l 257
 950 1003 l 257
 1095 1003 l 257
 1095 1152 l 257
 524 1152 l 258
 213 1152 114 977 114 792 c 256
 114 606.591016933 241.797301331 433.961763999 474.973983114 433.961763999 c 0
 476.974900453 433.961763999 478.98357747 433.974475664 481 434 c 258
 739 434 l 257
 739 153 l 257
 492 153 l 257
 492 0 l 257
538 585 m 257
 538 1003 l 257
 739 1003 l 257
 739 585 l 257
 538 585 l 257
EndSplineSet
EndChar

StartChar: parenleft
Encoding: 40 40 332
Width: 628
VWidth: 0
Flags: HW
PickledData: "(dp1
S'org.robofab.postScriptHintData'
p2
(dp3
sS'com.typemytype.robofont.layerData'
p4
(dp5
S'b'
(dp6
S'name'
p7
S'parenleft'
p8
sS'lib'
p9
(dp10
sS'unicodes'
p11
(tsS'width'
p12
I595
sS'contours'
p13
(tsS'components'
p14
(tsS'anchors'
p15
(tsss."
LayerCount: 2
Fore
SplineSet
537 -128 m 257
 536 12 l 257
 418 91 357 307 357 524 c 256
 357 740 418 957 536 1036 c 257
 537 1173 l 257
 245 1046 97 782 97 520 c 256
 97 260 243 -1 537 -128 c 257
EndSplineSet
EndChar

StartChar: parenright
Encoding: 41 41 333
Width: 628
VWidth: 0
Flags: HW
PickledData: "(dp1
S'org.robofab.postScriptHintData'
p2
(dp3
sS'com.typemytype.robofont.layerData'
p4
(dp5
S'b'
(dp6
S'name'
p7
S'parenright'
p8
sS'lib'
p9
(dp10
sS'unicodes'
p11
(tsS'width'
p12
I595
sS'contours'
p13
(tsS'components'
p14
(tsS'anchors'
p15
(tsss."
LayerCount: 2
Fore
SplineSet
134 -128 m 257
 427 -1 574 260 574 520 c 256
 574 782 426 1046 134 1173 c 257
 135 1036 l 257
 253 957 313 740 313 524 c 256
 313 307 253 91 135 12 c 257
 134 -128 l 257
EndSplineSet
EndChar

StartChar: partialdiff
Encoding: 442 8706 334
Width: 1003
VWidth: 0
Flags: HW
PickledData: "(dp1
S'org.robofab.postScriptHintData'
p2
(dp3
sS'com.typemytype.robofont.layerData'
p4
(dp5
S'b'
(dp6
S'name'
p7
S'partialdiff'
p8
sS'lib'
p9
(dp10
sS'unicodes'
p11
(tsS'width'
p12
I1006
sS'contours'
p13
(tsS'components'
p14
(tsS'anchors'
p15
(tsss."
LayerCount: 2
Fore
SplineSet
401 -19 m 256
 767 -19 898 425 898 723 c 256
 898 1041 764 1235 496 1235 c 256
 325 1235 227 1159 227 1053 c 256
 227 989.616146816 279.298983774 932.88852793 418.205122244 932.88852793 c 0
 421.746918807 932.88852793 425.345021817 932.925408609 429 933 c 257
 427 1020 483 1119 588 1119 c 256
 712.229813532 1119 775.328189234 870.700703134 775.328189234 691.434752701 c 0
 775.328189234 664.349021658 773.887720995 638.83924787 771 616 c 257
 803 621 l 257
 772 702 697 768 561 768 c 256
 228 768 101 459 101 279 c 256
 101 126 176 -19 401 -19 c 256
491 102 m 256
 417 102 375 165 375 267 c 256
 375 411 451 658 616 658 c 256
 679 658 736 623 760 534 c 257
 727 305 611 102 491 102 c 256
EndSplineSet
EndChar

StartChar: percent
Encoding: 37 37 336
Width: 1793
VWidth: 0
Flags: HW
PickledData: "(dp1
S'org.robofab.postScriptHintData'
p2
(dp3
sS'com.typemytype.robofont.layerData'
p4
(dp5
S'b'
(dp6
S'name'
p7
S'percent'
p8
sS'lib'
p9
(dp10
sS'unicodes'
p11
(tsS'width'
p12
I1741
sS'contours'
p13
(tsS'components'
p14
(tsS'anchors'
p15
(tsss."
LayerCount: 2
Fore
SplineSet
431 697 m 256
 336 699 266 774 266 878 c 256
 266 981 336 1056 431 1057 c 256
 529 1056 599 981 599 878 c 256
 599 774 529 699 431 697 c 256
431 576 m 256
 613 576 747 704 747 878 c 256
 747 1050 613 1177 431 1177 c 256
 251 1177 118 1050 118 878 c 256
 118 704 251 576 431 576 c 256
445 -74 m 257
 1465 1165 l 257
 1361 1251 l 257
 337 17 l 257
 445 -74 l 257
1371 99 m 256
 1276 101 1205 176 1205 280 c 256
 1205 384 1276 458 1371 459 c 256
 1468 458 1539 384 1539 280 c 256
 1539 176 1468 101 1371 99 c 256
1371 -22 m 256
 1553 -22 1686 106 1686 280 c 256
 1686 452 1553 579 1371 579 c 256
 1190 579 1058 452 1058 280 c 256
 1058 106 1190 -22 1371 -22 c 256
EndSplineSet
EndChar

StartChar: period
Encoding: 46 46 337
Width: 615
VWidth: 0
Flags: HW
PickledData: "(dp1
S'org.robofab.postScriptHintData'
p2
(dp3
sS'com.typemytype.robofont.layerData'
p4
(dp5
S'b'
(dp6
S'name'
p7
S'period'
p8
sS'lib'
p9
(dp10
sS'unicodes'
p11
(tsS'width'
p12
I553
sS'contours'
p13
(tsS'components'
p14
(tsS'anchors'
p15
(tsss."
LayerCount: 2
Fore
SplineSet
184 0 m 257
 440 0 l 257
 440 250 l 257
 184 250 l 257
 184 0 l 257
EndSplineSet
EndChar

StartChar: periodcentered
Encoding: 443 183 338
Width: 646
VWidth: 0
Flags: HW
PickledData: "(dp1
S'org.robofab.postScriptHintData'
p2
(dp3
sS'com.typemytype.robofont.layerData'
p4
(dp5
S'b'
(dp6
S'name'
p7
S'periodcentered'
p8
sS'lib'
p9
(dp10
sS'unicodes'
p11
(tsS'width'
p12
I574
sS'contours'
p13
(tsS'components'
p14
(tsS'anchors'
p15
(tsss."
LayerCount: 2
Fore
SplineSet
213 443 m 257
 445 443 l 257
 445 659 l 257
 213 659 l 257
 213 443 l 257
EndSplineSet
EndChar

StartChar: perthousand
Encoding: 444 8240 339
Width: 2534
VWidth: 0
Flags: HW
PickledData: "(dp1
S'org.robofab.postScriptHintData'
p2
(dp3
s."
LayerCount: 2
Fore
SplineSet
2112 99 m 256
 2017 101 1946 176 1946 280 c 256
 1946 384 2017 458 2112 459 c 256
 2209 458 2280 384 2280 280 c 256
 2280 176 2209 101 2112 99 c 256
2112 -22 m 256
 2294 -22 2427 106 2427 280 c 256
 2427 452 2294 579 2112 579 c 256
 1931 579 1799 452 1799 280 c 256
 1799 106 1931 -22 2112 -22 c 256
EndSplineSet
Refer: 336 37 N 1 0 0 1 0 0 2
EndChar

StartChar: pi
Encoding: 445 960 340
Width: 1210
VWidth: 0
Flags: HW
PickledData: "(dp1
S'org.robofab.postScriptHintData'
p2
(dp3
sS'com.typemytype.robofont.layerData'
p4
(dp5
S'b'
(dp6
S'name'
p7
S'pi'
p8
sS'lib'
p9
(dp10
sS'unicodes'
p11
(tsS'width'
p12
I1187
sS'contours'
p13
(tsS'components'
p14
(tsS'anchors'
p15
(tsss."
LayerCount: 2
Fore
SplineSet
911 -19 m 256
 974 -19 1038 1 1084 33 c 257
 1084 138 l 257
 1044 126 1007 118 976 118 c 256
 914 118 870 146 870 231 c 256
 870 313 875 447 888 597 c 257
 1092 597 l 257
 1092 804 l 257
 390 804 l 258
 202 804 125 662 126 497 c 257
 227 497 l 257
 236 557 269 597 325 597 c 258
 397 597 l 257
 345 299 l 258
 316 135 227 91 155 87 c 257
 155 -1 l 257
 268 -1 l 258
 431 -1 514 79 525 245 c 258
 548 597 l 257
 763 597 l 257
 719 446 679 307 679 196 c 256
 679 69 735 -19 911 -19 c 256
EndSplineSet
EndChar

StartChar: plus
Encoding: 43 43 341
Width: 1030
VWidth: 0
Flags: HW
PickledData: "(dp1
S'org.robofab.postScriptHintData'
p2
(dp3
sS'com.typemytype.robofont.layerData'
p4
(dp5
S'b'
(dp6
S'name'
p7
S'plus'
p8
sS'lib'
p9
(dp10
sS'unicodes'
p11
(tsS'width'
p12
I1035
sS'contours'
p13
(tsS'components'
p14
(tsS'anchors'
p15
(tsss."
LayerCount: 2
Fore
SplineSet
438 113 m 257
 606 113 l 257
 606 500 l 257
 960 500 l 257
 960 655 l 257
 606 655 l 257
 606 1041 l 257
 438 1041 l 257
 438 655 l 257
 85 655 l 257
 85 500 l 257
 438 500 l 257
 438 113 l 257
EndSplineSet
EndChar

StartChar: plusminus
Encoding: 446 177 342
Width: 987
VWidth: 0
Flags: HW
PickledData: "(dp1
S'org.robofab.postScriptHintData'
p2
(dp3
sS'com.typemytype.robofont.layerData'
p4
(dp5
S'b'
(dp6
S'name'
p7
S'plusminus'
p8
sS'lib'
p9
(dp10
sS'unicodes'
p11
(tsS'width'
p12
I980
sS'contours'
p13
(tsS'components'
p14
(tsS'anchors'
p15
(tsss."
LayerCount: 2
Fore
SplineSet
414 287 m 257
 572 287 l 257
 572 633 l 257
 922 633 l 257
 922 786 l 257
 572 786 l 257
 572 1134 l 257
 414 1134 l 257
 414 786 l 257
 66 786 l 257
 66 633 l 257
 414 633 l 257
 414 287 l 257
66 0 m 257
 922 0 l 257
 922 152 l 257
 66 152 l 257
 66 0 l 257
EndSplineSet
EndChar

StartChar: product
Encoding: 447 8719 343
Width: 1493
VWidth: 0
Flags: HW
PickledData: "(dp1
S'org.robofab.postScriptHintData'
p2
(dp3
sS'com.typemytype.robofont.layerData'
p4
(dp5
S'b'
(dp6
S'name'
p7
S'product'
p8
sS'lib'
p9
(dp10
sS'unicodes'
p11
(tsS'width'
p12
I1477
sS'contours'
p13
(tsS'components'
p14
(tsS'anchors'
p15
(tsss."
LayerCount: 2
Fore
SplineSet
108 0 m 257
 659 0 l 257
 659 152 l 257
 505 152 l 257
 505 1001 l 257
 988 1001 l 257
 988 152 l 257
 834 152 l 257
 834 0 l 257
 1385 0 l 257
 1385 152 l 257
 1233 152 l 257
 1233 1001 l 257
 1385 1001 l 257
 1385 1152 l 257
 108 1152 l 257
 108 1001 l 257
 260 1001 l 257
 260 152 l 257
 108 152 l 257
 108 0 l 257
EndSplineSet
EndChar

StartChar: q
Encoding: 113 113 344
Width: 1110
VWidth: 0
Flags: HW
PickledData: "(dp1
S'org.robofab.postScriptHintData'
p2
(dp3
sS'com.typemytype.robofont.layerData'
p4
(dp5
S'b'
(dp6
S'name'
p7
S'q'
sS'lib'
p8
(dp9
sS'unicodes'
p10
(tsS'width'
p11
I1134
sS'contours'
p12
(tsS'components'
p13
(tsS'anchors'
p14
(tsss."
LayerCount: 2
Fore
SplineSet
722 598.115235448 m 1
 722 198.084198831 l 1
 653.359904018 158.734172603 580.123266065 138 515 138 c 0
 386 138 281 221 281 392 c 0
 281 579 377 666 507 666 c 0
 574.011313819 666 649.305914863 642.124642707 722 598.115235448 c 1
555 -341 m 1
 1085 -341 l 1
 1085 -182 l 1
 940 -182 l 1
 940 653 l 1
 1075 653 l 1
 1075 804 l 1
 723 804 l 1
 722.277809694 730.336588777 l 1
 640.712514885 789.893908171 543.603984046 825 448 825 c 0
 236 825 52 680 52 400 c 0
 52 130 246 -22 465 -22 c 0
 557.082717955 -22 644.851283471 9.15776762354 722 65.4994850907 c 1
 722 -182 l 1
 555 -182 l 1
 555 -341 l 1
EndSplineSet
EndChar

StartChar: question
Encoding: 63 63 345
Width: 903
VWidth: 0
Flags: HW
PickledData: "(dp1
S'org.robofab.postScriptHintData'
p2
(dp3
sS'com.typemytype.robofont.layerData'
p4
(dp5
S'b'
(dp6
S'name'
p7
S'question'
p8
sS'lib'
p9
(dp10
sS'unicodes'
p11
(tsS'width'
p12
I851
sS'contours'
p13
(tsS'components'
p14
(tsS'anchors'
p15
(tsss."
LayerCount: 2
Fore
SplineSet
343 351 m 257
 494 351 l 257
 524 705 834 604 834 910 c 256
 834 1098 689 1236 462 1236 c 256
 260 1236 72 1142 72 878 c 257
 262 878 l 257
 262 1009 327 1083 459 1083 c 256
 561 1083 633 1013 633 909 c 256
 633 699 356 797 343 351 c 257
316 0 m 257
 533 0 l 257
 533 219 l 257
 316 219 l 257
 316 0 l 257
EndSplineSet
EndChar

StartChar: quotedbl
Encoding: 34 34 347
Width: 840
VWidth: 0
Flags: HW
PickledData: "(dp1
S'org.robofab.postScriptHintData'
p2
(dp3
sS'com.typemytype.robofont.layerData'
p4
(dp5
S'b'
(dp6
S'name'
p7
S'quotedbl'
p8
sS'lib'
p9
(dp10
sS'unicodes'
p11
(tsS'width'
p12
I808
sS'contours'
p13
(tsS'components'
p14
(tsS'anchors'
p15
(tsss."
LayerCount: 2
Fore
SplineSet
189 732 m 257
 317 732 l 257
 362 1214 l 257
 138 1214 l 257
 189 732 l 257
527 732 m 257
 654 732 l 257
 700 1214 l 257
 476 1214 l 257
 527 732 l 257
EndSplineSet
EndChar

StartChar: quotedblbase
Encoding: 449 8222 348
Width: 930
VWidth: 0
Flags: HW
PickledData: "(dp1
S'org.robofab.postScriptHintData'
p2
(dp3
sS'com.typemytype.robofont.layerData'
p4
(dp5
S'b'
(dp6
S'name'
p7
S'quotedblbase'
p8
sS'lib'
p9
(dp10
sS'unicodes'
p11
(tsS'width'
p12
I898
sS'contours'
p13
(tsS'components'
p14
(tsS'anchors'
p15
(tsss."
LayerCount: 2
Fore
SplineSet
180 -249 m 257
 346 -248 397 -149 397 -6 c 258
 397 216 l 257
 177 216 l 257
 177 -10 l 257
 280 -10 l 257
 278 -103 254 -135 180 -147 c 257
 180 -249 l 257
549 -249 m 257
 715 -248 766 -149 766 -6 c 258
 766 216 l 257
 545 216 l 257
 545 -10 l 257
 648 -10 l 257
 647 -103 623 -135 549 -147 c 257
 549 -249 l 257
EndSplineSet
EndChar

StartChar: quotedblleft
Encoding: 450 8220 349
Width: 885
VWidth: 0
Flags: HW
PickledData: "(dp1
S'org.robofab.postScriptHintData'
p2
(dp3
sS'com.typemytype.robofont.layerData'
p4
(dp5
S'b'
(dp6
S'name'
p7
S'quotedblleft'
p8
sS'lib'
p9
(dp10
sS'unicodes'
p11
(tsS'width'
p12
I844
sS'contours'
p13
(tsS'components'
p14
(tsS'anchors'
p15
(tsss."
LayerCount: 2
Fore
SplineSet
161 759 m 257
 382 759 l 257
 382 986 l 257
 280 986 l 257
 280 1079 306 1110 379 1122 c 257
 379 1224 l 257
 213 1223 161 1124 161 982 c 258
 161 759 l 257
485 759 m 257
 704 759 l 257
 704 986 l 257
 603 986 l 257
 604 1079 630 1110 703 1122 c 257
 703 1224 l 257
 537 1223 485 1124 485 982 c 258
 485 759 l 257
EndSplineSet
EndChar

StartChar: quotedblright
Encoding: 451 8221 350
Width: 895
VWidth: 0
Flags: HW
PickledData: "(dp1
S'org.robofab.postScriptHintData'
p2
(dp3
sS'com.typemytype.robofont.layerData'
p4
(dp5
S'b'
(dp6
S'name'
p7
S'quotedblright'
p8
sS'lib'
p9
(dp10
sS'unicodes'
p11
(tsS'width'
p12
I836
sS'contours'
p13
(tsS'components'
p14
(tsS'anchors'
p15
(tsss."
LayerCount: 2
Fore
SplineSet
181 739 m 257
 347 741 398 840 398 983 c 258
 398 1205 l 257
 177 1205 l 257
 177 978 l 257
 281 978 l 257
 279 885 255 853 181 841 c 257
 181 739 l 257
498 739 m 257
 664 741 715 840 715 983 c 258
 715 1205 l 257
 495 1205 l 257
 495 978 l 257
 599 978 l 257
 596 885 572 853 498 841 c 257
 498 739 l 257
EndSplineSet
EndChar

StartChar: quoteleft
Encoding: 452 8216 351
Width: 539
VWidth: 0
Flags: HW
PickledData: "(dp1
S'org.robofab.postScriptHintData'
p2
(dp3
sS'com.typemytype.robofont.layerData'
p4
(dp5
S'b'
(dp6
S'name'
p7
S'quoteleft'
p8
sS'lib'
p9
(dp10
sS'unicodes'
p11
(tsS'width'
p12
I511
sS'contours'
p13
(tsS'components'
p14
(tsS'anchors'
p15
(tsss."
LayerCount: 2
Fore
SplineSet
141 759 m 257
 362 759 l 257
 362 986 l 257
 259 986 l 257
 260 1079 286 1110 359 1122 c 257
 359 1224 l 257
 193 1223 141 1124 141 982 c 258
 141 759 l 257
EndSplineSet
EndChar

StartChar: quoteright
Encoding: 453 8217 352
Width: 540
VWidth: 0
Flags: HW
PickledData: "(dp1
S'org.robofab.postScriptHintData'
p2
(dp3
sS'com.typemytype.robofont.layerData'
p4
(dp5
S'b'
(dp6
S'name'
p7
S'quoteright'
p8
sS'lib'
p9
(dp10
sS'unicodes'
p11
(tsS'width'
p12
I511
sS'contours'
p13
(tsS'components'
p14
(tsS'anchors'
p15
(tsss."
LayerCount: 2
Fore
SplineSet
181 739 m 257
 347 741 398 840 398 983 c 258
 398 1205 l 257
 177 1205 l 257
 177 978 l 257
 281 978 l 257
 279 885 255 853 181 841 c 257
 181 739 l 257
EndSplineSet
EndChar

StartChar: quotesinglbase
Encoding: 454 8218 353
Width: 536
VWidth: 0
Flags: HW
PickledData: "(dp1
S'org.robofab.postScriptHintData'
p2
(dp3
sS'com.typemytype.robofont.layerData'
p4
(dp5
S'b'
(dp6
S'name'
p7
S'quotesinglbase'
p8
sS'lib'
p9
(dp10
sS'unicodes'
p11
(tsS'width'
p12
I508
sS'contours'
p13
(tsS'components'
p14
(tsS'anchors'
p15
(tsss."
LayerCount: 2
Fore
SplineSet
178 -249 m 257
 344 -248 395 -149 395 -6 c 258
 395 216 l 257
 175 216 l 257
 175 -10 l 257
 279 -10 l 257
 276 -103 252 -135 178 -147 c 257
 178 -249 l 257
EndSplineSet
EndChar

StartChar: quotesingle
Encoding: 39 39 354
Width: 507
VWidth: 0
Flags: HW
PickledData: "(dp1
S'org.robofab.postScriptHintData'
p2
(dp3
sS'com.typemytype.robofont.layerData'
p4
(dp5
S'b'
(dp6
S'name'
p7
S'quotesingle'
p8
sS'lib'
p9
(dp10
sS'unicodes'
p11
(tsS'width'
p12
I479
sS'contours'
p13
(tsS'components'
p14
(tsS'anchors'
p15
(tsss."
LayerCount: 2
Fore
SplineSet
188 732 m 257
 316 732 l 257
 362 1214 l 257
 138 1214 l 257
 188 732 l 257
EndSplineSet
EndChar

StartChar: r
Encoding: 114 114 355
Width: 810
VWidth: 0
Flags: HW
PickledData: "(dp1
S'org.robofab.postScriptHintData'
p2
(dp3
sS'com.typemytype.robofont.layerData'
p4
(dp5
S'b'
(dp6
S'name'
p7
S'r'
sS'lib'
p8
(dp9
sS'unicodes'
p10
(tsS'width'
p11
I809
sS'contours'
p12
((dp13
S'points'
p14
((dp15
S'segmentType'
p16
S'line'
p17
sS'x'
I252
sS'smooth'
p18
I0
sS'y'
I449
s(dp19
S'y'
I643
sS'x'
I252
sg18
I0
s(dp20
S'y'
I756
sS'x'
I355
sg18
I0
s(dp21
g16
S'curve'
p22
sS'x'
I484
sg18
I1
sS'y'
I756
s(dp23
S'y'
I756
sS'x'
I528
sg18
I0
s(dp24
S'y'
I742
sS'x'
I565
sg18
I0
s(dp25
g16
S'curve'
p26
sS'x'
I618
sg18
I0
sS'y'
I716
s(dp27
g16
S'line'
p28
sS'x'
I636
sg18
I0
sS'y'
I784
s(dp29
S'y'
I810
sS'x'
I578
sg18
I0
s(dp30
S'y'
I820
sS'x'
I536
sg18
I0
s(dp31
g16
S'curve'
p32
sS'x'
I489
sg18
I1
sS'y'
I820
s(dp33
S'y'
I820
sS'x'
I381
sg18
I0
s(dp34
S'y'
I769
sS'x'
I295
sg18
I0
s(dp35
g16
S'curve'
p36
sS'x'
I230
sg18
I0
sS'y'
I582
stp37
stp38
sS'components'
p39
(tsS'anchors'
p40
(tsss."
AnchorPoint: "top" 448 804 basechar 0
LayerCount: 2
Fore
SplineSet
49 0 m 1
 533 0 l 1
 533 151 l 1
 407 151 l 1
 407 422 l 2
 407 553 489 623 585 623 c 0
 634 623 687 606 734 575 c 1
 785 769 l 1
 728 794 670 812 615 812 c 0
 535.352016312 812 460.220801086 773.042872011 407 657.795913118 c 1
 407 804 l 1
 51 804 l 1
 51 653 l 1
 190 653 l 1
 190 151 l 1
 49 151 l 1
 49 0 l 1
EndSplineSet
EndChar

StartChar: radical
Encoding: 456 8730 357
Width: 1208
VWidth: 0
Flags: HW
PickledData: "(dp1
S'org.robofab.postScriptHintData'
p2
(dp3
sS'com.typemytype.robofont.layerData'
p4
(dp5
S'b'
(dp6
S'name'
p7
S'radical'
p8
sS'lib'
p9
(dp10
sS'unicodes'
p11
(tsS'width'
p12
I1172
sS'contours'
p13
(tsS'components'
p14
(tsS'anchors'
p15
(tsss."
LayerCount: 2
Fore
SplineSet
449 -12 m 257
 624 -12 l 257
 1105 1349 l 257
 973 1349 l 257
 561 196 l 257
 364 661 l 257
 31 661 l 257
 31 538 l 257
 197 538 l 257
 449 -12 l 257
EndSplineSet
EndChar

StartChar: rcommaaccent
Encoding: 458 343 359
Width: 810
VWidth: 0
Flags: HW
PickledData: "(dp1
S'org.robofab.postScriptHintData'
p2
(dp3
sS'com.typemytype.robofont.layerData'
p4
(dp5
S'b'
(dp6
S'name'
p7
S'rcommaaccent'
p8
sS'lib'
p9
(dp10
sS'unicodes'
p11
(tsS'width'
p12
I895
sS'contours'
p13
(tsS'components'
p14
(tsS'anchors'
p15
(tsss."
LayerCount: 2
Fore
SplineSet
171 -550 m 257
 344 -550 434 -473 433 -331 c 257
 433 -99 l 257
 171 -99 l 257
 171 -321 l 257
 306 -321 l 257
 306 -401 261 -435 171 -450 c 257
 171 -550 l 257
EndSplineSet
Refer: 355 114 N 1 0 0 1 0 0 2
EndChar

StartChar: registered
Encoding: 174 174 360
Width: 1538
VWidth: 0
Flags: HW
PickledData: "(dp1
S'org.robofab.postScriptHintData'
p2
(dp3
sS'com.typemytype.robofont.layerData'
p4
(dp5
S'b'
(dp6
S'name'
p7
S'registered'
p8
sS'lib'
p9
(dp10
sS'unicodes'
p11
(tsS'width'
p12
I1538
sS'contours'
p13
(tsS'components'
p14
(tsS'anchors'
p15
(tsss."
LayerCount: 2
Fore
SplineSet
490 307 m 257
 772 307 l 257
 772 381 l 257
 690 381 l 257
 690 594 l 257
 772 594 l 257
 924 307 l 257
 1090 307 l 257
 1090 381 l 257
 1002 381 l 257
 877 607 l 257
 960 628 1015 693 1015 770 c 256
 1015 869 928 935 798 935 c 258
 490 935 l 257
 490 861 l 257
 577 861 l 257
 577 381 l 257
 490 381 l 257
 490 307 l 257
690 672 m 257
 690 861 l 257
 799 861 l 258
 861 861 903 824 903 768 c 256
 903 710 859 672 792 672 c 258
 690 672 l 257
767 103 m 256
 483 103 282 309 282 600 c 256
 282 896 483 1106 767 1106 c 256
 1053 1106 1255 896 1255 600 c 256
 1255 309 1053 103 767 103 c 256
767 -22 m 256
 1147 -22 1415 237 1415 603 c 256
 1415 970 1147 1230 767 1230 c 256
 390 1230 123 970 123 603 c 256
 123 237 390 -22 767 -22 c 256
EndSplineSet
EndChar

StartChar: ring
Encoding: 459 730 361
Width: 515
VWidth: 0
Flags: HW
PickledData: "(dp1
S'org.robofab.postScriptHintData'
p2
(dp3
sS'com.typemytype.robofont.layerData'
p4
(dp5
S'b'
(dp6
S'name'
p7
S'ring'
p8
sS'lib'
p9
(dp10
sS'unicodes'
p11
(tsS'width'
p12
I499
sS'contours'
p13
(tsS'components'
p14
(tsS'anchors'
p15
(tsss."
AnchorPoint: "top" 256 804 mark 0
LayerCount: 2
Fore
SplineSet
257 963 m 256
 196 963 163 1005 163 1054 c 256
 163 1104 196 1146 257 1146 c 256
 317 1146 352 1104 352 1054 c 256
 352 1005 317 963 257 963 c 256
257 881 m 256
 372 881 442 961 442 1056 c 256
 442 1149 375 1226 257 1226 c 256
 140 1226 72 1149 72 1056 c 256
 72 961 141 881 257 881 c 256
EndSplineSet
EndChar

StartChar: s
Encoding: 115 115 362
Width: 883
VWidth: 0
Flags: HW
PickledData: "(dp1
S'org.robofab.postScriptHintData'
p2
(dp3
sS'com.typemytype.robofont.layerData'
p4
(dp5
S'b'
(dp6
S'name'
p7
S's'
sS'lib'
p8
(dp9
sS'unicodes'
p10
(tsS'width'
p11
F912.99599999999998
sS'contours'
p12
(tsS'components'
p13
(tsS'anchors'
p14
(tsss."
AnchorPoint: "top" 425 804 basechar 0
LayerCount: 2
Fore
SplineSet
515 -20 m 0
 666.719726084 -20 818.284815933 50.2633490883 818.284815933 225.727834982 c 0
 818.284815933 397.552776628 698.024685608 443.034670869 556 480 c 1
 460 506 l 1
 352 534 321 553 321 601 c 0
 321 652 379 676 448 676 c 0
 514 676 594 652 634 610 c 1
 651 522 l 1
 796 522 l 1
 796 811 l 1
 632 811 l 1
 632 755 l 1
 581 800 490 826 406 826 c 0
 238 826 103 742 103 597 c 0
 103 435 192 381 348 341 c 2
 464 311 l 1
 565 286 609 271 609 207 c 0
 609 151 553 122 480 122 c 0
 398 122 297 159 258 224 c 1
 248 298 l 1
 108 298 l 1
 108 0 l 1
 265 0 l 1
 265 65 l 1
 319 10 420 -20 515 -20 c 0
EndSplineSet
EndChar

StartChar: scommaaccent
Encoding: 465 537 368
Width: 883
VWidth: 0
Flags: HW
PickledData: "(dp1
S'org.robofab.postScriptHintData'
p2
(dp3
sS'com.typemytype.robofont.layerData'
p4
(dp5
S'b'
(dp6
S'name'
p7
S'scommaaccent'
p8
sS'lib'
p9
(dp10
sS'unicodes'
p11
(tsS'width'
p12
I913
sS'contours'
p13
(tsS'components'
p14
(tsS'anchors'
p15
(tsss."
LayerCount: 2
Fore
SplineSet
361 -550 m 257
 534 -550 624 -473 623 -331 c 257
 623 -99 l 257
 361 -99 l 257
 361 -321 l 257
 496 -321 l 257
 496 -401 451 -435 361 -450 c 257
 361 -550 l 257
EndSplineSet
Refer: 362 115 N 1 0 0 1 0 0 2
EndChar

StartChar: section
Encoding: 167 167 370
Width: 898
VWidth: 0
Flags: HW
PickledData: "(dp1
S'org.robofab.postScriptHintData'
p2
(dp3
sS'com.typemytype.robofont.layerData'
p4
(dp5
S'b'
(dp6
S'name'
p7
S'section'
p8
sS'lib'
p9
(dp10
sS'unicodes'
p11
(tsS'width'
p12
I891
sS'contours'
p13
(tsS'components'
p14
(tsS'anchors'
p15
(tsss."
LayerCount: 2
Fore
SplineSet
452 -185 m 256
 670 -185 782 -64 782 110 c 256
 782 174 760 239 724 285 c 257
 782 321 829 399 829 478 c 256
 829 619 732 697 502 808 c 256
 378 866 306 898 306 1001 c 256
 306 1100 366 1155 458 1155 c 256
 574 1155 603 1037 603 941 c 257
 703 941 758 991 758 1058 c 256
 758 1166 658 1245 466 1245 c 256
 278 1245 142 1149 142 982 c 256
 142 892 175 826 213 786 c 257
 150 754 106 691 106 618 c 256
 106 489 177 399 359 310 c 256
 602 190 641 152 641 62 c 256
 641 -34 579 -97 474 -97 c 256
 346 -97 280 10 280 154 c 257
 194 154 134 110 134 25 c 256
 134 -74 206 -185 452 -185 c 256
647 350 m 257
 604 379 554 407 483 442 c 256
 308 529 252 569 252 660 c 256
 252 688 262 714 278 732 c 257
 331 695 396 666 469 630 c 256
 629 552 669 494 669 421 c 256
 669 391 659 367 647 350 c 257
EndSplineSet
EndChar

StartChar: semicolon
Encoding: 59 59 371
Width: 566
VWidth: 0
Flags: HW
PickledData: "(dp1
S'org.robofab.postScriptHintData'
p2
(dp3
sS'com.typemytype.robofont.layerData'
p4
(dp5
S'b'
(dp6
S'name'
p7
S'semicolon'
p8
sS'lib'
p9
(dp10
sS'unicodes'
p11
(tsS'width'
p12
I519
sS'contours'
p13
(tsS'components'
p14
(tsS'anchors'
p15
(tsss."
LayerCount: 2
Fore
SplineSet
157 -207 m 257
 372 -205 430 -117 430 77 c 256
 430 92 429 316 428 327 c 257
 159 326 l 257
 159 67 l 257
 298 67 l 257
 298 -44 265 -94 157 -103 c 257
 157 -207 l 257
156 626 m 257
 422 626 l 257
 422 887 l 257
 156 887 l 257
 156 626 l 257
EndSplineSet
EndChar

StartChar: seven
Encoding: 55 55 372
Width: 1028
VWidth: 0
Flags: HW
PickledData: "(dp1
S'org.robofab.postScriptHintData'
p2
(dp3
sS'com.typemytype.robofont.layerData'
p4
(dp5
S'b'
(dp6
S'name'
p7
S'seven'
p8
sS'lib'
p9
(dp10
sS'unicodes'
p11
(tsS'width'
p12
I997
sS'contours'
p13
(tsS'components'
p14
(tsS'anchors'
p15
(tsss."
LayerCount: 2
Fore
SplineSet
303 0 m 257
 553 0 l 257
 553 0 679 506 954 995 c 257
 954 1152 l 257
 122 1152 l 257
 122 799 l 257
 316 799 l 257
 316 994 l 257
 699 994 l 257
 453 535 303 0 303 0 c 257
EndSplineSet
EndChar

StartChar: six
Encoding: 54 54 373
Width: 1022
VWidth: 0
Flags: HW
PickledData: "(dp1
S'org.robofab.postScriptHintData'
p2
(dp3
sS'com.typemytype.robofont.layerData'
p4
(dp5
S'b'
(dp6
S'name'
p7
S'six'
p8
sS'lib'
p9
(dp10
sS'unicodes'
p11
(tsS'width'
p12
I990
sS'contours'
p13
(tsS'components'
p14
(tsS'anchors'
p15
(tsss."
LayerCount: 2
Fore
SplineSet
520 -19 m 256
 783 -19 943 143 943 401 c 256
 943 617 776 769 582 769 c 256
 447 769 369 691 366 678 c 257
 733 1147 l 257
 568 1269 l 257
 215 786 l 257
 92 624 82 505 82 381 c 256
 82 145 261 -19 520 -19 c 256
527 144 m 256
 375 144 309 251 309 385 c 256
 309 529 409 613 536 613 c 256
 664 613 735 521 735 388 c 256
 735 245 657 144 527 144 c 256
EndSplineSet
EndChar

StartChar: slash
Encoding: 47 47 374
Width: 702
VWidth: 0
Flags: HW
PickledData: "(dp1
S'org.robofab.postScriptHintData'
p2
(dp3
sS'com.typemytype.robofont.layerData'
p4
(dp5
S'b'
(dp6
S'name'
p7
S'slash'
p8
sS'lib'
p9
(dp10
sS'unicodes'
p11
(tsS'width'
p12
I730
sS'contours'
p13
(tsS'components'
p14
(tsS'anchors'
p15
(tsss."
LayerCount: 2
Fore
SplineSet
143 -71 m 257
 730 1209 l 257
 596 1253 l 257
 7 -28 l 257
 143 -71 l 257
EndSplineSet
EndChar

StartChar: softhyphen
Encoding: 173 173 375
Width: 633
VWidth: 0
Flags: HW
PickledData: "(dp1
S'org.robofab.postScriptHintData'
p2
(dp3
sS'com.typemytype.robofont.layerData'
p4
(dp5
S'b'
(dp6
S'name'
p7
S'uni00AD'
p8
sS'lib'
p9
(dp10
sS'unicodes'
p11
(tsS'width'
p12
I1707
sS'contours'
p13
(tsS'components'
p14
(tsS'anchors'
p15
(tsss."
LayerCount: 2
Fore
SplineSet
70 365 m 257
 563 365 l 257
 563 522 l 257
 70 522 l 257
 70 365 l 257
EndSplineSet
EndChar

StartChar: sterling
Encoding: 163 163 377
Width: 1069
VWidth: 0
Flags: HW
PickledData: "(dp1
S'org.robofab.postScriptHintData'
p2
(dp3
sS'com.typemytype.robofont.layerData'
p4
(dp5
S'b'
(dp6
S'name'
p7
S'sterling'
p8
sS'lib'
p9
(dp10
sS'unicodes'
p11
(tsS'width'
p12
I1049
sS'contours'
p13
(tsS'components'
p14
(tsS'anchors'
p15
(tsss."
LayerCount: 2
Fore
SplineSet
265 -19 m 256
 348 -19 414 25 465 91 c 257
 549 27 640 -19 736 -19 c 256
 938 -19 992 95 996 301 c 257
 996 330 l 257
 858 330 l 257
 851 220 832 165 736 165 c 256
 677 165 618 200 561 235 c 257
 584 293 595 346 595 396 c 256
 595 453 581 507 555 561 c 257
 877 561 l 257
 877 695 l 257
 495 695 l 257
 458 763 424 837 424 908 c 256
 424 1011 490 1071 609 1071 c 256
 725 1071 764 991 764 887 c 257
 949 887 l 257
 950 1092 828 1229 602 1229 c 256
 361 1229 220 1104 220 899 c 256
 220 823 238 757 267 695 c 257
 118 695 l 257
 118 561 l 257
 340 561 l 257
 413 480 426 366 426 306 c 257
 379 346 318 379 257 379 c 256
 114 379 36 273 36 170 c 256
 36 75 107 -19 265 -19 c 256
258 93 m 256
 212 93 173 122 173 173 c 256
 173 222 204 250 249 250 c 256
 287 250 335 229 381 182 c 257
 353 120 302 93 258 93 c 256
EndSplineSet
EndChar

StartChar: summation
Encoding: 466 8721 378
Width: 1311
VWidth: 0
Flags: HW
PickledData: "(dp1
S'org.robofab.postScriptHintData'
p2
(dp3
sS'com.typemytype.robofont.layerData'
p4
(dp5
S'b'
(dp6
S'name'
p7
S'summation'
p8
sS'lib'
p9
(dp10
sS'unicodes'
p11
(tsS'width'
p12
I1314
sS'contours'
p13
(tsS'components'
p14
(tsS'anchors'
p15
(tsss."
LayerCount: 2
Fore
SplineSet
115 0 m 257
 1158 0 l 257
 1158 367 l 257
 976 367 l 257
 976 152 l 257
 444 152 l 257
 796 549 l 257
 796 629 l 257
 505 1001 l 257
 974 1001 l 257
 974 798 l 257
 1155 798 l 257
 1155 1152 l 257
 115 1152 l 257
 115 1001 l 257
 271 1001 l 257
 616 554 l 257
 271 152 l 257
 115 152 l 257
 115 0 l 257
EndSplineSet
EndChar

StartChar: t
Encoding: 116 116 379
Width: 653
VWidth: 0
Flags: HW
PickledData: "(dp1
S'org.robofab.postScriptHintData'
p2
(dp3
sS'com.typemytype.robofont.layerData'
p4
(dp5
S'b'
(dp6
S'name'
p7
S't'
sS'lib'
p8
(dp9
sS'unicodes'
p10
(tsS'width'
p11
I671
sS'contours'
p12
(tsS'components'
p13
(tsS'anchors'
p14
(tsss."
AnchorPoint: "caron.alt" 492 1044 basechar 0
AnchorPoint: "top" 278 1096 basechar 0
LayerCount: 2
Fore
SplineSet
392 0 m 2
 591 0 l 1
 591 151 l 1
 444 151 l 2
 392 151 379 184 379 258 c 2
 379 653 l 1
 584 653 l 1
 584 804 l 1
 379 804 l 1
 379 1153 l 1
 163 1078 l 1
 163 804 l 1
 37 804 l 1
 37 653 l 1
 161 653 l 1
 161 248 l 2
 161 87 233 0 392 0 c 2
EndSplineSet
EndChar

StartChar: thorn
Encoding: 470 254 384
Width: 1145
VWidth: 0
Flags: HW
PickledData: "(dp1
S'org.robofab.postScriptHintData'
p2
(dp3
sS'com.typemytype.robofont.layerData'
p4
(dp5
S'b'
(dp6
S'name'
p7
S'thorn'
p8
sS'lib'
p9
(dp10
sS'unicodes'
p11
(tsS'width'
p12
I1129
sS'contours'
p13
(tsS'components'
p14
(tsS'anchors'
p15
(tsss."
LayerCount: 2
Fore
SplineSet
668 0 m 256
 874 0 1079 155 1079 437 c 256
 1079 701 903 846 695 846 c 256
 565 846 429 784 324 667 c 257
 340 539 l 257
 432 639 531 686 621 686 c 256
 755 686 850 586 850 423 c 256
 850 242 740 154 610 154 c 256
 522 154 422 196 339 292 c 257
 329 190 l 257
 412 61 539 0 668 0 c 256
34 -342 m 257
 396 -342 l 257
 396 1152 l 257
 28 1152 l 257
 28 1001 l 257
 177 1001 l 257
 177 -189 l 257
 34 -189 l 257
 34 -342 l 257
EndSplineSet
EndChar

StartChar: three
Encoding: 51 51 385
Width: 1088
VWidth: 0
Flags: HW
PickledData: "(dp1
S'org.robofab.postScriptHintData'
p2
(dp3
sS'com.typemytype.robofont.layerData'
p4
(dp5
S'b'
(dp6
S'name'
p7
S'three'
p8
sS'lib'
p9
(dp10
sS'unicodes'
p11
(tsS'width'
p12
I1068
sS'contours'
p13
(tsS'components'
p14
(tsS'anchors'
p15
(tsss."
LayerCount: 2
Fore
SplineSet
428 520 m 257
 660.42178081 520 754.277079238 468.780779909 754.277079238 333.748035033 c 0
 754.277079238 217.501059267 663.801016699 148 532 148 c 256
 404 148 309 209 264 330 c 257
 93 240 l 257
 142 80 313 -22 531 -22 c 256
 814 -22 980 125 980 344 c 256
 980 483 887 574 731 612 c 257
 856 648 931 740 931 865 c 256
 931 1037 782 1174 520 1174 c 256
 332 1174 153 1083 90 925 c 257
 265 846 l 257
 298 941 388 1005 513 1005 c 256
 632 1005 714 940 714 857 c 256
 714 746 648 679 428 679 c 257
 428 520 l 257
EndSplineSet
EndChar

StartChar: threequarters
Encoding: 471 190 386
Width: 2263
VWidth: 0
Flags: HW
PickledData: "(dp1
S'org.robofab.postScriptHintData'
p2
(dp3
sS'com.typemytype.robofont.layerData'
p4
(dp5
S'b'
(dp6
S'name'
p7
S'threequarters'
p8
sS'lib'
p9
(dp10
sS'unicodes'
p11
(tsS'width'
p12
I1834
sS'contours'
p13
(tsS'components'
p14
(tsS'anchors'
p15
(tsss."
LayerCount: 2
Fore
SplineSet
426 709 m 257
 589.577671229 709 658.17237313 672.850258882 658.17237313 576.650035052 c 0
 658.17237313 494.990279899 593.234378989 445 500 445 c 256
 409 445 342 488 310 574 c 257
 188 510 l 257
 223 397 345 324 499 324 c 256
 700 324 818 429 818 584 c 256
 818 683 752 747 641 774 c 257
 730 800 784 866 784 954 c 256
 784 1076 678 1174 492 1174 c 256
 358 1174 231 1109 186 997 c 257
 310 940 l 257
 335 1009 398 1053 487 1053 c 256
 571 1053 629 1008 629 948 c 256
 629 870 583 822 426 822 c 257
 426 709 l 257
1600 0 m 257
 1962 0 l 257
 1962 108 l 257
 1862 108 l 257
 1862 243 l 257
 1986 243 l 257
 1986 345 l 257
 1862 345 l 257
 1862 818 l 257
 1716 818 l 257
 1366 359 l 257
 1380 243 l 257
 1716 243 l 257
 1716 108 l 257
 1600 108 l 257
 1600 0 l 257
692 -56 m 257
 828 -56 l 257
 1645 1246 l 257
 1513 1246 l 257
 692 -56 l 257
1488 345 m 257
 1716 649 l 257
 1716 345 l 257
 1488 345 l 257
EndSplineSet
EndChar

StartChar: tilde
Encoding: 473 732 388
Width: 694
VWidth: 0
Flags: HW
PickledData: "(dp1
S'org.robofab.postScriptHintData'
p2
(dp3
sS'com.typemytype.robofont.layerData'
p4
(dp5
S'b'
(dp6
S'name'
p7
S'tilde'
p8
sS'lib'
p9
(dp10
sS'unicodes'
p11
(tsS'width'
p12
I635
sS'contours'
p13
(tsS'components'
p14
(tsS'anchors'
p15
(tsss."
AnchorPoint: "top" 353 804 mark 0
LayerCount: 2
Fore
SplineSet
496 907 m 256
 611 907 661 1009 671 1134 c 257
 581 1134 l 257
 571 1089 546 1068 508 1068 c 256
 440 1068 303 1143 217 1143 c 256
 120 1143 45 1082 31 919 c 257
 123 919 l 257
 131 963 155 982 191 982 c 256
 269 982 402 907 496 907 c 256
EndSplineSet
EndChar

StartChar: trademark
Encoding: 474 8482 389
Width: 1832
VWidth: 0
Flags: HW
PickledData: "(dp1
S'org.robofab.postScriptHintData'
p2
(dp3
sS'com.typemytype.robofont.layerData'
p4
(dp5
S'b'
(dp6
S'name'
p7
S'trademark'
p8
sS'lib'
p9
(dp10
sS'unicodes'
p11
(tsS'width'
p12
I2069
sS'contours'
p13
(tsS'components'
p14
(tsS'anchors'
p15
(tsss."
LayerCount: 2
Fore
SplineSet
804 481 m 257
 1076 481 l 257
 1076 580 l 257
 994 580 l 257
 994 1007 l 257
 1207 489 l 257
 1264 489 l 257
 1471 1007 l 257
 1471 580 l 257
 1390 580 l 257
 1390 481 l 257
 1686 481 l 257
 1686 580 l 257
 1601 580 l 257
 1601 1053 l 257
 1686 1053 l 257
 1686 1152 l 257
 1412 1152 l 257
 1237 708 l 257
 1066 1152 l 257
 804 1152 l 257
 804 1053 l 257
 889 1053 l 257
 889 580 l 257
 804 580 l 257
 804 481 l 257
276 481 m 257
 610 481 l 257
 610 580 l 257
 513 580 l 257
 513 1053 l 257
 629 1053 l 257
 629 887 l 257
 734 887 l 257
 734 1152 l 257
 151 1152 l 257
 151 887 l 257
 257 887 l 257
 257 1053 l 257
 375 1053 l 257
 375 580 l 257
 276 580 l 257
 276 481 l 257
EndSplineSet
EndChar

StartChar: two
Encoding: 50 50 390
Width: 1058
VWidth: 0
Flags: HW
PickledData: "(dp1
S'org.robofab.postScriptHintData'
p2
(dp3
sS'com.typemytype.robofont.layerData'
p4
(dp5
S'b'
(dp6
S'name'
p7
S'two'
p8
sS'lib'
p9
(dp10
sS'unicodes'
p11
(tsS'width'
p12
I1033
sS'contours'
p13
(tsS'components'
p14
(tsS'anchors'
p15
(tsss."
LayerCount: 2
Fore
SplineSet
140 0 m 257
 945 0 l 257
 942 372 l 257
 768 372 l 257
 767 162 l 257
 402 162 l 257
 645 402 l 258
 776 531 934 666 934 830 c 256
 934 1050 771 1174 527 1174 c 256
 272 1174 127 1029 127 828 c 256
 127 777 137 725 155 673 c 257
 346 673 l 257
 334 719 328 761 328 799 c 256
 328 932 405 999 529 999 c 256
 663.631585447 999 713.105009432 918.660254561 713.105009432 823.351937832 c 0
 713.105009432 736.417653505 604.209135018 636.174020018 504 534 c 258
 140 167 l 257
 140 0 l 257
EndSplineSet
EndChar

StartChar: u
Encoding: 117 117 392
Width: 1081
VWidth: 0
Flags: HW
PickledData: "(dp1
S'org.robofab.postScriptHintData'
p2
(dp3
sS'com.typemytype.robofont.layerData'
p4
(dp5
S'b'
(dp6
S'name'
p7
S'u'
sS'lib'
p8
(dp9
sS'unicodes'
p10
(tsS'width'
p11
I1088
sS'contours'
p12
(tsS'components'
p13
(tsS'anchors'
p14
(tsss."
AnchorPoint: "top" 502 804 basechar 0
LayerCount: 2
Fore
SplineSet
421 -19 m 0
 523 -19 617 21 703 94 c 1
 707 0 l 1
 1064 0 l 1
 1064 152 l 1
 920 152 l 1
 920 804 l 1
 565 804 l 1
 565 653 l 1
 703 653 l 1
 703 253 l 1
 643 186 563 149 486 149 c 0
 400 149 357 200 357 303 c 2
 357 804 l 1
 15 804 l 1
 15 653 l 1
 139 653 l 1
 139 273 l 2
 139 97 228 -19 421 -19 c 0
EndSplineSet
EndChar

StartChar: underscore
Encoding: 95 95 400
Width: 1253
VWidth: 0
Flags: HW
PickledData: "(dp1
S'org.robofab.postScriptHintData'
p2
(dp3
sS'com.typemytype.robofont.layerData'
p4
(dp5
S'b'
(dp6
S'name'
p7
S'underscore'
p8
sS'lib'
p9
(dp10
sS'unicodes'
p11
(tsS'width'
p12
I1290
sS'contours'
p13
(tsS'components'
p14
(tsS'anchors'
p15
(tsss."
LayerCount: 2
Fore
SplineSet
147 -186 m 257
 1107 -186 l 257
 1107 -75 l 257
 147 -75 l 257
 147 -186 l 257
EndSplineSet
EndChar

StartChar: uni00B5
Encoding: 479 181 406
Width: 1083
VWidth: 0
Flags: HW
PickledData: "(dp1
S'org.robofab.postScriptHintData'
p2
(dp3
sS'com.typemytype.robofont.layerData'
p4
(dp5
S'b'
(dp6
S'name'
p7
S'uni00B5'
p8
sS'lib'
p9
(dp10
sS'unicodes'
p11
(tsS'width'
p12
I1190
sS'contours'
p13
(tsS'components'
p14
(tsS'anchors'
p15
(tsss."
LayerCount: 2
Fore
SplineSet
139 -277 m 257
 357 -277 l 257
 357 479 l 257
 139 479 l 257
 139 -277 l 257
EndSplineSet
Refer: 392 117 N 1 0 0 1 0 0 2
EndChar

StartChar: uni021A
Encoding: 533 538 460
Width: 1178
VWidth: 0
Flags: HW
PickledData: "(dp1
S'org.robofab.postScriptHintData'
p2
(dp3
sS'com.typemytype.robofont.layerData'
p4
(dp5
S'b'
(dp6
S'name'
p7
S'uni021A'
p8
sS'lib'
p9
(dp10
sS'unicodes'
p11
(tsS'width'
p12
I1252
sS'contours'
p13
(tsS'components'
p14
(tsS'anchors'
p15
(tsss."
LayerCount: 2
Fore
SplineSet
475 -550 m 257
 648 -550 738 -473 737 -331 c 257
 737 -99 l 257
 475 -99 l 257
 475 -321 l 257
 610 -321 l 257
 610 -401 565 -435 475 -450 c 257
 475 -550 l 257
EndSplineSet
Refer: 113 84 N 1 0 0 1 0 0 2
EndChar

StartChar: uni021B
Encoding: 534 539 461
Width: 653
VWidth: 0
Flags: HW
PickledData: "(dp1
S'org.robofab.postScriptHintData'
p2
(dp3
sS'com.typemytype.robofont.layerData'
p4
(dp5
S'b'
(dp6
S'name'
p7
S'uni021B'
p8
sS'lib'
p9
(dp10
sS'unicodes'
p11
(tsS'width'
p12
I671
sS'contours'
p13
(tsS'components'
p14
(tsS'anchors'
p15
(tsss."
LayerCount: 2
Fore
SplineSet
271 -550 m 257
 444 -550 534 -473 533 -331 c 257
 533 -99 l 257
 271 -99 l 257
 271 -321 l 257
 406 -321 l 257
 406 -401 361 -435 271 -450 c 257
 271 -550 l 257
EndSplineSet
Refer: 379 116 N 1 0 0 1 0 0 2
EndChar

StartChar: uni02C9
Encoding: 545 713 472
Width: 600
VWidth: 0
Flags: HW
PickledData: "(dp1
S'org.robofab.postScriptHintData'
p2
(dp3
s."
LayerCount: 2
Fore
SplineSet
63 930 m 257
 522 930 l 257
 522 1062 l 257
 63 1062 l 257
 63 930 l 257
EndSplineSet
EndChar

StartChar: uni0307
Encoding: 546 775 473
Width: 535
VWidth: 0
Flags: HW
PickledData: "(dp1
S'org.robofab.postScriptHintData'
p2
(dp3
sS'com.typemytype.robofont.layerData'
p4
(dp5
S'b'
(dp6
S'name'
p7
S'uni0307'
p8
sS'lib'
p9
(dp10
sS'unicodes'
p11
(tsS'width'
p12
I535
sS'contours'
p13
(tsS'components'
p14
(tsS'anchors'
p15
(tsss."
AnchorPoint: "top" 270 805 mark 0
LayerCount: 2
Fore
SplineSet
268 917 m 256
 346 917 395 972 394 1038 c 257
 394 1113 338 1158 268 1158 c 256
 198.605479959 1158 141.98703999 1108.86123049 141.98703999 1039.81193141 c 0
 141.98703999 970.533602903 197.870105769 917 268 917 c 256
EndSplineSet
EndChar

StartChar: uni2113
Encoding: 551 8467 492
Width: 728
VWidth: 0
Flags: HW
PickledData: "(dp1
S'org.robofab.postScriptHintData'
p2
(dp3
s."
LayerCount: 2
Fore
SplineSet
614 -8 m 257
 637 148 l 257
 487.736853581 148 444.127368795 173.039307092 444.127368795 267.02610797 c 0
 444.127368795 293.306629592 447.53706105 324.977944906 453 363 c 258
 585 1208 l 257
 205 1208 l 257
 179 1047 l 257
 334 1047 l 257
 214 274 l 258
 211.033147578 254.757842863 209.589616967 236.737217368 209.589616967 219.870514176 c 0
 209.589616967 41.0808474633 371.789457254 -8.05031952148 601.152375763 -8.05031952148 c 0
 605.41195586 -8.05031952148 609.694700181 -8.0333744172 614 -8 c 257
EndSplineSet
EndChar

StartChar: uni2126
Encoding: 552 8486 493
Width: 1434
VWidth: 0
Flags: HW
PickledData: "(dp1
S'org.robofab.postScriptHintData'
p2
(dp3
s."
LayerCount: 2
Fore
SplineSet
98 0 m 257
 644 0 l 257
 644 143 l 257
 430 230 338 430 338 613 c 256
 338 821 468 999 717 999 c 256
 964 999 1095 820 1095 612 c 256
 1095 430 1004 230 790 143 c 257
 790 0 l 257
 1336 0 l 257
 1336 152 l 257
 1056 152 l 257
 1250 270 1336 447 1336 623 c 256
 1336 906 1105 1174 717 1174 c 256
 331 1174 98 905 98 621 c 256
 98 446 186 270 379 152 c 257
 98 152 l 257
 98 0 l 257
EndSplineSet
EndChar

StartChar: uni2206
Encoding: 553 8710 494
Width: 1216
VWidth: 0
Flags: HW
PickledData: "(dp1
S'org.robofab.postScriptHintData'
p2
(dp3
sS'com.typemytype.robofont.layerData'
p4
(dp5
S'b'
(dp6
S'name'
p7
S'uni2206'
p8
sS'lib'
p9
(dp10
sS'unicodes'
p11
(tsS'width'
p12
I1158
sS'contours'
p13
(tsS'components'
p14
(tsS'anchors'
p15
(tsss."
LayerCount: 2
Fore
SplineSet
87 0 m 257
 1126 0 l 257
 1126 130 l 257
 740 1167 l 257
 493 1167 l 257
 87 120 l 257
 87 0 l 257
257 149 m 257
 257 149 543 931 557 997 c 257
 573 930 845 149 845 149 c 257
 257 149 l 257
EndSplineSet
EndChar

StartChar: v
Encoding: 118 118 500
Width: 1076
VWidth: 0
Flags: HW
PickledData: "(dp1
S'org.robofab.postScriptHintData'
p2
(dp3
sS'com.typemytype.robofont.layerData'
p4
(dp5
S'b'
(dp6
S'name'
p7
S'v'
sS'lib'
p8
(dp9
sS'unicodes'
p10
(tsS'width'
p11
I1052
sS'contours'
p12
(tsS'components'
p13
(tsS'anchors'
p14
(tsss."
LayerCount: 2
Fore
SplineSet
443 0 m 1
 632 0 l 1
 938 653 l 1
 1061 653 l 1
 1061 804 l 1
 630 804 l 1
 630 653 l 1
 738 653 l 1
 559 224 l 1
 382 653 l 1
 489 653 l 1
 489 804 l 1
 15 804 l 1
 15 653 l 1
 146 653 l 1
 443 0 l 1
EndSplineSet
EndChar

StartChar: w
Encoding: 119 119 501
Width: 1431
VWidth: 0
Flags: HW
PickledData: "(dp1
S'org.robofab.postScriptHintData'
p2
(dp3
sS'com.typemytype.robofont.layerData'
p4
(dp5
S'b'
(dp6
S'name'
p7
S'w'
sS'lib'
p8
(dp9
sS'unicodes'
p10
(tsS'width'
p11
I1417
sS'contours'
p12
(tsS'components'
p13
(tsS'anchors'
p14
(tsss."
AnchorPoint: "top" 738 804 basechar 0
LayerCount: 2
Fore
SplineSet
351 0 m 1
 552 0 l 1
 723 481 l 1
 898 0 l 1
 1090 0 l 1
 1318 653 l 1
 1416 653 l 1
 1416 804 l 1
 1048 804 l 1
 1048 653 l 1
 1143 653 l 1
 1002 206 l 1
 843 653 l 1
 939 653 l 1
 939 804 l 1
 527 804 l 1
 527 653 l 1
 624 653 l 1
 472 209 l 1
 322 653 l 1
 408 653 l 1
 408 804 l 1
 15 804 l 1
 15 653 l 1
 111 653 l 1
 351 0 l 1
EndSplineSet
EndChar

StartChar: x
Encoding: 120 120 506
Width: 1023
VWidth: 0
Flags: HW
PickledData: "(dp1
S'org.robofab.postScriptHintData'
p2
(dp3
sS'com.typemytype.robofont.layerData'
p4
(dp5
S'b'
(dp6
S'name'
p7
S'x'
sS'lib'
p8
(dp9
sS'unicodes'
p10
(tsS'width'
p11
I1039
sS'contours'
p12
(tsS'components'
p13
(tsS'anchors'
p14
(tsss."
LayerCount: 2
Fore
SplineSet
45 0 m 1
 450 0 l 1
 450 152 l 1
 340 152 l 1
 497 316 l 1
 659 152 l 1
 548 152 l 1
 548 0 l 1
 988 0 l 1
 988 152 l 1
 882 152 l 1
 625 422 l 1
 851 653 l 1
 985 653 l 1
 985 804 l 1
 573 804 l 1
 573 653 l 1
 669 653 l 1
 527 502 l 1
 385 653 l 1
 476 653 l 1
 476 804 l 1
 41 804 l 1
 41 653 l 1
 163 653 l 1
 399 407 l 1
 153 152 l 1
 45 152 l 1
 45 0 l 1
EndSplineSet
EndChar

StartChar: y
Encoding: 121 121 507
Width: 1080
VWidth: 0
Flags: HW
PickledData: "(dp1
S'org.robofab.postScriptHintData'
p2
(dp3
sS'com.typemytype.robofont.layerData'
p4
(dp5
S'b'
(dp6
S'name'
p7
S'y'
sS'lib'
p8
(dp9
sS'unicodes'
p10
(tsS'width'
p11
I1092
sS'contours'
p12
(tsS'components'
p13
(tsS'anchors'
p14
(tsss."
AnchorPoint: "top" 549 804 basechar 0
LayerCount: 2
Fore
SplineSet
195 -362 m 1
 315 -362 l 2
 547 -362 580 -252 667 -39 c 2
 952 653 l 1
 1080 653 l 1
 1080 804 l 1
 615 804 l 1
 615 653 l 1
 738 653 l 1
 563 201 l 1
 359 653 l 1
 465 653 l 1
 465 804 l 1
 4 804 l 1
 4 653 l 1
 144 653 l 1
 432 50 l 1
 510 50 l 1
 475 -53 l 2
 431 -182 382 -192 294 -192 c 2
 195 -192 l 1
 195 -362 l 1
EndSplineSet
EndChar

StartChar: yen
Encoding: 559 165 511
Width: 1327
VWidth: 0
Flags: HW
PickledData: "(dp1
S'org.robofab.postScriptHintData'
p2
(dp3
sS'com.typemytype.robofont.layerData'
p4
(dp5
S'b'
(dp6
S'name'
p7
S'yen'
p8
sS'lib'
p9
(dp10
sS'unicodes'
p11
(tsS'width'
p12
I1320
sS'contours'
p13
(tsS'components'
p14
(tsS'anchors'
p15
(tsss."
LayerCount: 2
Fore
SplineSet
289 297 m 257
 1043 297 l 257
 1043 414 l 257
 753 414 l 257
 753 503 l 257
 1043 503 l 257
 1043 622 l 257
 289 622 l 257
 289 503 l 257
 593 503 l 257
 593 414 l 257
 289 414 l 257
 289 297 l 257
EndSplineSet
Refer: 137 89 N 1 0 0 1 0 0 2
EndChar

StartChar: z
Encoding: 122 122 513
Width: 894
VWidth: 0
Flags: HW
PickledData: "(dp1
S'org.robofab.postScriptHintData'
p2
(dp3
sS'com.typemytype.robofont.layerData'
p4
(dp5
S'b'
(dp6
S'name'
p7
S'z'
sS'lib'
p8
(dp9
sS'unicodes'
p10
(tsS'width'
p11
I985
sS'contours'
p12
(tsS'components'
p13
(tsS'anchors'
p14
(tsss."
AnchorPoint: "top" 479 804 basechar 0
LayerCount: 2
Fore
SplineSet
86 0 m 1
 842 0 l 1
 842 308 l 1
 680 308 l 1
 680 141 l 1
 340 141 l 1
 826 656 l 1
 826 804 l 1
 87 804 l 1
 87 509 l 1
 244 509 l 1
 244 662 l 1
 567 662 l 1
 86 143 l 1
 86 0 l 1
EndSplineSet
EndChar

StartChar: zero
Encoding: 48 48 517
Width: 1115
VWidth: 0
Flags: HW
PickledData: "(dp1
S'org.robofab.postScriptHintData'
p2
(dp3
sS'com.typemytype.robofont.layerData'
p4
(dp5
S'b'
(dp6
S'name'
p7
S'zero'
p8
sS'lib'
p9
(dp10
sS'unicodes'
p11
(tsS'width'
p12
I1100
sS'contours'
p13
(tsS'components'
p14
(tsS'anchors'
p15
(tsss."
LayerCount: 2
Fore
SplineSet
556 138 m 256
 409 138 334 280 334 556 c 256
 334 858 409 1015 556 1015 c 256
 705 1015 781 859 781 557 c 256
 781 281 705 138 556 138 c 256
556 -22 m 256
 855 -22 1005 180 1005 557 c 256
 1005 936 855 1174 556 1174 c 256
 259 1174 110 934 110 557 c 256
 110 181 259 -22 556 -22 c 256
EndSplineSet
EndChar
